<mxfile host="app.diagrams.net" modified="2022-09-13T13:32:14.382Z" agent="5.0 (X11; Linux x86_64) AppleWebKit/537.36 (KHTML, like Gecko) Chrome/105.0.0.0 Safari/537.36 Edg/105.0.1343.33" etag="_thJQRCAmXdSci3obqca" version="20.3.0" type="github">
  <diagram id="yo_Xl7c8T9oBOKZVO992" name="第 1 页">
    <mxGraphModel dx="914" dy="498" grid="1" gridSize="10" guides="1" tooltips="1" connect="1" arrows="1" fold="1" page="1" pageScale="1" pageWidth="827" pageHeight="1169" math="0" shadow="0">
      <root>
        <mxCell id="0" />
        <mxCell id="1" parent="0" />
        <mxCell id="X5dV8ayuIPw5LhitXocs-1" style="edgeStyle=orthogonalEdgeStyle;rounded=0;orthogonalLoop=1;jettySize=auto;html=1;entryX=0.5;entryY=0;entryDx=0;entryDy=0;fontFamily=Helvetica;fontSize=13;fontColor=default;endArrow=classic;endFill=1;strokeColor=#7EA6E0;" edge="1" parent="1" source="X5dV8ayuIPw5LhitXocs-2" target="X5dV8ayuIPw5LhitXocs-5">
          <mxGeometry relative="1" as="geometry">
            <mxPoint x="205" y="382" as="targetPoint" />
          </mxGeometry>
        </mxCell>
        <mxCell id="X5dV8ayuIPw5LhitXocs-2" value="" style="shape=image;verticalLabelPosition=bottom;labelBackgroundColor=default;verticalAlign=top;aspect=fixed;imageAspect=0;image=data:image/jpeg,/9j/4AAQSkZJRgABAQEAAQABAAD/2wBDAAYEBQYFBAYGBQYHBwYIChAKCgkJChQODwwQFxQYGBcUFhYaHSUfGhsjHBYWICwgIyYnKSopGR8tMC0oMCUoKSj/2wBDAQcHBwoIChMKChMoGhYaKCgoKCgoKCgoKCgoKCgoKCgoKCgoKCgoKCgoKCgoKCgoKCgoKCgoKCgoKCgoKCgoKCj/wAARCAKAAoADASIAAhEBAxEB/8QAHwAAAQUBAQEBAQEAAAAAAAAAAAECAwQFBgcICQoL/8QAtRAAAgEDAwIEAwUFBAQAAAF9AQIDAAQRBRIhMUEGE1FhByJxFDKBkaEII0KxwRVS0fAkM2JyggkKFhcYGRolJicoKSo0NTY3ODk6Q0RFRkdISUpTVFVWV1hZWmNkZWZnaGlqc3R1dnd4eXqDhIWGh4iJipKTlJWWl5iZmqKjpKWmp6ipqrKztLW2t7i5usLDxMXGx8jJytLT1NXW19jZ2uHi4+Tl5ufo6erx8vP09fb3+Pn6/8QAHwEAAwEBAQEBAQEBAQAAAAAAAAECAwQFBgcICQoL/8QAtREAAgECBAQDBAcFBAQAAQJ3AAECAxEEBSExBhJBUQdhcRMiMoEIFEKRobHBCSMzUvAVYnLRChYkNOEl8RcYGRomJygpKjU2Nzg5OkNERUZHSElKU1RVVldYWVpjZGVmZ2hpanN0dXZ3eHl6goOEhYaHiImKkpOUlZaXmJmaoqOkpaanqKmqsrO0tba3uLm6wsPExcbHyMnK0tPU1dbX2Nna4uPk5ebn6Onq8vP09fb3+Pn6/9oADAMBAAIRAxEAPwDPGkWB/wCXG1/78r/hTxpGn/8APha/9+V/wrTVD6U7yznpVWIRmjR9O/58LX/vyv8AhS/2Np3/AD4Wn/flf8K1fLPpTglSNMyP7G07/nwtP+/K/wCFZN/pVispC2VsP+2S/wCFdbsrF1Ff3xpx3FLY5xtNs94/0S3/AO/YrO1LT7RSNtrAPpGK6Irlqy9UX5hWhMXqXND0qxawRms7djzyYlP9K0TpFhgf6Da/9+V/wp/h9P8AiWx1pmPgVzy3OhIyP7IsP+fG1/78r/hTLrSbAWe4WVtnP/PJf8K2fL4qK8TFj+NOO4pbHPrpdiVH+h2//fpf8KtWGlWLTfNZWxGO8S/4VYRflFXdNQGfHtWttDBPUZ/Y2n/8+Fp/35X/AAo/sbTv+gfaf9+V/wAK2PLo8uoNTH/sbT/+fC1/78r/AIUf2Pp//Pha/wDflf8ACtjy6Qx0CZjHR9P/AOfC1/78r/hSHRtPx/x42v8A35X/AAra8ukMdMkwjo2n/wDPja/9+V/wpraPYY/48bb/AL8r/hW4Y+aa0WaaJZg/2RYD/lxtf+/K/wCFNbSLA/8ALlbf9+V/wrb8rmjyvarFqYR0ixH/AC5W3/fpf8KQ6RY/8+Vt/wB+l/wrdaKozFzQF2Yh0ix/58rb/v0v+FNOk2P/AD5W3/fpf8K3jCKYYfmoFqYY0mx/58rb/v0v+FL/AGRY5/487b/v0v8AhW0Ysdqd5dAamIdIsP8Anztv+/S/4Uo0iw/58rb/AL9L/hWz5dOWKgd2Y6aPY/8APlbf9+l/wqQaPYf8+Nt/36X/AArXEVOEfFA0ZA0ew/58bb/vyv8AhS/2PYf8+Nt/35X/AArZEdL5dAXMb+x7DH/Hjbf9+V/wpTo9gFP+g2vT/niv+FbIi4oeP5G+lIDgodNs/tkg+yQY/wCuY/wq7/Zll/z52/8A36X/AAqSFP8AT5MVe2VbRF2R6bpNgwO6ytj9Yl/wrQ/sbT/+fC1/78r/AIVLpScN9a0/LzWcjSD0Mf8AsfTv+fC1/wC/K/4Uf2Pp3/Pha/8Aflf8K2PLo8upKuY/9jad/wA+Fr/35X/Cg6Pp/wDz4Wv/AH5X/Ctjy6Qx0CMU6Pp//Pha/wDflf8ACmto+n9rG1/78r/hW0Y6aY6aJMM6PYf8+Nr/AN+V/wAKjOj2H/Pjbf8Aflf8K3TFTTFirFdmH/Y9gP8Alytv+/S/4U3+yLDP/Hlbf9+l/wAK2zFk0CHFAXZif2PYf8+Vt/36X/CkGkWP/Plbf9+l/wAK3fJpfJApXDUwv7Hsf+fK2/79L/hR/Y9j/wA+Vt/36X/CtzyaPKoQamH/AGPYf8+Vt/36X/CmnSLD/nytv+/S/wCFbvlUwxUwuzFOkWP/AD5W3/fpf8KcNHscf8eVt/36X/CtnyqXyaB6mP8A2PY4H+hW3/fpf8KP7HsP+fK2/wC/S/4VteV7UoizQGpjLo9if+XK2/79L/hUg0ew/wCfG1/78r/hWysWBS+XUlHDeKdMs4mh8u0gXP8AdjA/pWbe6faiyUi2hBx1EYrpPFqZlhHtWXfx/wCgD6VrFaGTepzmlWduzpugiPzd0Fb7adZ/8+sH/ftf8KzdGT51/wB6uiZf5USQJnKvZW2W/wBHh6/3BVjTbG1adc20JHvGKlZeW+tWdKT/AEhKhnTEv/2ZZf8APnb/APfsf4Un9mWWf+PS3/79itUx8ijysVkaGV/Ztl/z6W//AH7H+FKdMs+MWlv/AN+1/wAK0xH1o2c8UDM3+zLMf8udv/36X/Cl/s2yz/x52/8A36WtMJSGPk0AZv8AZll/z52//fof4Un9m2X/AD52/wD36WtNUNBjpBYzDpdl/wA+lv8A9+hQdMssf8elv/36X/CtIrRs4phY0f7Rf+5R/aMn92qoHtSfhW9kcPMy4NSk9BThqUo/hFUce1LijlQczLz6q5jYBACe9ZzuzglySaeBmmlO1HKg5myv3rN1Bf3ozWvtAcVQ1Nf3gxSaKhub3h9P+JZF+NaZj+UVV8OJnTI/xrUKcCuaW51IpBKZep/oP41e2VFfx/8AEvz70R3JlsYagYFXdLA+081CEwoojyGJHBrptc5b2Z0G1fUUbRWQHkxy5p4Lf3j+dRyGnOae0UbR6issk/3j+dKGb+8aOUOc09opCg9azssP4jSFm/vH86fKLnNExj2pvlD1FZ+5/wC8fzo3v/eNHKHMi/5Qz1FBh+lUN79mNG9v7xosHMi6Yc9xTTBz1FU/MYfxGjex/iNOwuZFw2/vTTB7iqpdv7xpC7/3jRYLoufZs9xSfZ8HqKph2H8RoLserGiwroufZx6infZx/eFZ+8/3jSeYc/eNFgujTEIx1FL5SgdRWZ5rHjJppc460WDmNXYncigInYj86yNxzyxpN5H8RpWHzG00YA4I/OmyINjAEZxWOZWxwxpvmuScsaLBzGVbKRfyZHGavNtAoOCxNNIzWhmaWksmwjOGz0rVAGOo/OuaX5TkGpRK2Mbj+dQ1c0i7I6D5fUUfL/eFc/5hx1P50m8+p/Olyj5joTt9R+dHyf3hXPeYfU0nmH1NHKLnN9in94fnRtX+8K58uT3pfMb+8fzp8ocxuHZnqKNsZ/iH51glif4jSZPqaLBzI3wif3hSbE/vD86w97eppMt6miwcxvlE/vD86aRGP4hWFk56mkz7mjlFzG7+6/vD86P3X98fnWF+Jo59TRyhzG5+5/vj86Q+Sf41/OsQfjRiiwcxtgQ5++v50791/fX86wqMUco+Y3f3Wfvj86AIs/fFYeD60c+tHKHMb/7r++PzpN0Q/wCWi/nWDz60hHuaOUOYreJNst0m05GO1Zd+P9BwRjFbLxg9RmqGrp/obYrRdiHqc7o4/eJ/vV0hXisPRk+aPjvXROmEJ9qJAjm3Xlqs6SublKjdc5q3pK/6UlZvY6obm+U5FIyGrezNIU4rE1Kqp7UFMVa2ZpClMZXCUbOTVpY+aUx8mgCoExSbKtlOBSFKAKpSgpxVkpRs4oA1/KsfQ0vk2HoagVOKNlann8xYEVgf4TSGCx/u1DsBp2zNAcxKLex/u0jQ6eTgofzqMRkUhjzQHMKbHTmO7LD8aztasbBbVpInO/sDV5ospgHBrL1OPZbNkg0Fxlqanh1P+JXF+Napj4BFUPDALaYn1rZKfKormludUSlsyajvo91hjtuq9spl2n+gMacNxPZmQIrMgAykHFIsFmCcyk1VSIYPFNMWD6V0nG5F8x2h/wCWrVIIrPj96ayymRSbSDRYOY1TDaH/AJbGgQ2g/wCWxrKIIpQDRYOY1vJtT/y2NNMFr/z3NZRBzS80WDmNPyLX/nuaPs1qf+W5rKyaOfenyi5jV+z23a4o+y2xH/HwKyufekOaOUObyNf7Jb/8/C0n2O3/AOfhayecdTRk460WDm8jV+xQnpcrR9giz/x8JWRlvejLe9Fh83ka/wBgi73KfnR/Z8R6XCVkZPfNKMjufzpWC/kan9nR5/4+EpDp0Xe5jrGubhbdC8jYH1rMVr7VGxbZjh/vmplJR3LhHm2Rt6jNZ2SEtdI7Doq9TWMdYaUH7NbSPj/Zq/Z6NZ2fz3DiSTuzmrL6jp1ucebGD7CuWWIfQ6Y4ddTD/tLUD93Tnx9Ks2+pt/y92ssXvjNXRrds8m2GOWU/7K1rBA6AlcZHQip+sy6lewiVLJLa8GYbqIn+6Tg1ZOlYBYzRgeuao32i29z8yDypR0ZOK5/UYNVS4jsizNC5/wBaPT3rWOIi9zOVDsaV1cxRytHA3nOOMLVVo9Uc/u4kVfc1u6dpsNlCoRQX7sepq7sHpWU8TK+hpHDx6nNyWeqKgKPEzd1qIXNxbsBfW5Vf768iuoKgAk8CqU+oWMYImmjx3BqY4iY3QixbSyW6hEsE8TKf9qpTpMmf9ZH+dcjq19awOJtJdzITyig7Wq1b65lFM0M0ZI5yOK7IVVLc550uXZHSnR3I/wBbH/31Sf2Q/wDz0j/OshNUtnA/fY+tTx3MUo+SYH6GtE7mNrdDQ/seT/npH+dH9kSZ/wBZH+dVAW/vHH1pfm9T+dMWhb/seT/npH/31R/ZEv8Az0j/ADqn83qfzpct/eP50ahoW/7Il/56x/nSHSJB1lj/ADqrz/eP50YOPvH86Aui1/ZMn/PSP86P7Jl/56R/nVXnsT+dHzep/OgV0WRpMn/PSP8AOl/slz/y0j/Oqp3ep/OjkdCfzoC6LX9kv/z0j/Oj+x5Mf6yP86q4J6sfzoAP944+tAXRZ/siT/nrH+dL/ZMn/PSP/vqqwB/vGl5z940WC6LH9kSf89I/++qX+yJP+ekf51XGR3P50HPqfzosx3RY/siX/npH+dH9kS/34/zqvkjuacSw/iP50WC6Jjosv99Pzqve+H5p7coskYPuaXLY+8fzphdsfeP50CuilY+E7mF1zLFwc/erUutHMce0TRlsdM1Udnx99h+NMCln3biadmxqSOYniMcro2Mg44q3pCZvEpl2v75/rVrR1zdR1LR1QOjKdBSeWRVsRkUMhIPFYGxWCZoKVYVKUpk9KBlUJyCKcU5q0IsY4odPUUAVfL5ppSre0Y4prJx0pgVSlLt4qYrTtvFICUx4pQgxXJHxr6Wn/j1J/wAJqR/y6frXQebys7DaKNvFch/wm3P/AB6D86X/AITb/p0/8eoDlZ2AFIy4rkP+E3I6Wn60n/CcE/8ALr+tAcrOnnB3DHArP1ZMWZPesg+M9wwbPP41FN4jS8XyhAULHrmkOMdTuPCaZ0uP8a3THwtZXg9c6RGfc1vlOFrlnud0digY6bdJ/wAS5j6GrhTk1Fe4TS5HbAAPNOG5M9jlFwOtJJhsBaz5vEWnKxUk5H5VEPEunD+9+VdSRws1dmBTSPas3/hJ9OPXcPwo/wCEl03+8fypgaOwGjy6zx4j00/xn8qB4i005/e/pQKxf2UBKorr+m55lp3/AAkGmf8APWmgLZj5pRGKpf8ACQabnPmnH0o/t/Tf+ep/KgC6UxQUHeqX9vaaf+W36U067p2f9d+lAWZeCcUpi6VSGu6d/wA9aP7f07/nrQMt+XR5fFUjr2nE/wCt/Sj+3LJuImaR+yqOtJtIEmy4Y6rX00VnEXdhnsoPNOih1G+Pyx/Zoj3PWr9loNvCd8+ZpD3fmuaeJjHY6IYaT1ZwUjalqV8GS1Z7dTkA8A10cGnatcqEeVLWHHSMc11yQqi4VQB7Cl2etcU6zk7nbGmorQ52Hw5bjm4llmfuWarkWj2UeNsC/iK1ylJsrLmZVimltFH9yNR9BT9lWdlGylcLFbZRs9as7KNlFxlfZSbKs+XRsouBVaIMpVhkGqJ0SxLZa3Un3rY8ujZTvYVjNj062jHyQoPwqY28ZGCikfSrmyjZRdhYzJNMtJAQ0Cc+1UpPDlk33FaM+qtiug8ujy6anJbMTimcxJod1CM2d0x/2X5qrJcXtm2L62JUfxx812WykaINwQCK1hiZx3M50YyOXtbyC6H7pwT6d6tBfWpNT8OW103m2+YJxyGSsmW6vNLPl6jCWiHSZR/Ou2niYz3OWpQlHVGltAoAFZ412wI/1opP7csAf9YK6E77HPZmiAO9LtFZv9vWB/5aCmnX7Afx0wNTaKNorJ/4SHTz/GaQeItPH8ZpWYGvtFLsFY//AAkengfeY0HxNYerflTA2Ngo2Csc+JrD1b8qa3iex9H/ACpWA2wtAQGsMeKbHPST8qX/AISix9H/ACosBuhBRsFYQ8UWQ7P+VO/4Six9H/KmkwNoqAKiKjvWUPE1ge7D8KQ+I7H1P5U7AaZweKds2rkdDxWWfEFg5wA5PoBTJNctwyqqTc8AbaAKd0v75/rV3QlH2yPNV5gHct61oeH0/wBOSs5bHZT6HTlcuOOKHXJNW3j5XApDHwa5zcqKnFL5dWli/OkaOgCDbjGaHjyKtLHwKc0fGKLjKQjwOlNZPl6Vd8vjpTGj+Wi4FEpQU4q0Y6aY+KYHh5iuPejyp/Q11P27TP7y/lSC803+8lcH1qp2L+r0+5y4iuPQ0eXcH1rqReab/fSnC6049HSl9aqdg+rwOV8q4PelFvP611Ql08nhkpfM09f4ko+tT7B9Wgcibe6ByDxWhpUdwbpN+NvvXVWsdpPgoqn8KlksoYyHRQD7VUMVJyUWEsNFK6PQfB0e7RY/qa3tmAuazfBUf/EkjPua33j+VfrXTJ6mKM50qprFuX0SYCtaSPnpUd8n/EqkGO9VB6kz2PFLjTI2Y7lGfpTf7PiAA2Cu5ntI2wWQE/SoDaQn/lmteipHmy3OLeyhA5QUwWEJ/gFdr9ih/wCea05bKH/nmv5U+YnU4cWEP9wUv9nw/wBwV3Qsof8Anmv5Uos4f+ea/lRzAcINPi/uUDTof7grvPskGf8AVL+VNNnAT/ql/KjmGcN/ZsJ/gpDpsP8AcruxZ2//ADyX8qPsdv8A88lo5gOEGnw/3KX+zoP7grufsdr/AM8VpwsbY/8ALJcUcyC5wf8AZ0OeEpktlbxrlwBXX6jPY2Q2iJXnbhUXqTTNH8PSXc4u9TQAdViHQVhWxEaaN6NGU2c7pnhmXVG3FDBb/wB49TXZ6R4ds9MQeVGGf+8eTW6kSogVAAB2FO2V5NSvKbPShSjBWK2wemKNlWNlHl1jc0sVilGyrOykKgDJIFAFfZS7KWS5towd80a496oy63p68C4Rj7GnZiLuyq1/DcPbN9kYLMOhbpVVtbh/5Z7T+NKmsDIygI9qLMLlCDW2hnFvqUJhn/vfwt9K24Zo5hmMg1Df2VvrNiykDfj5W7qa5bTLqa3upLS4JW4hOOf4h607XFc7XZxTWCqMscCorO+jlg3SMA6jmuc1O+uNVvPsNgT/ALbD+EUkhlnUNaeS4NppUfnT9C38K1oaRY3FvGzXc7SyvyfQfSrGmabbaTahcqG/idu5qC68QabbkhrgOw7IMmm/IEX9lG32rFfxTbf8s7W6f6R01fEpJz/Zl5j12UuVgbuyjZWMnie14823uo/rHVm18Q6ZcttW4Ct6OMGizA0ClJsqePZKu6NlYe1O2UgK+yo5rdJkKSqGU9jVzZRsouFjgvEHgiOctNpp8uXrs7GuDu7O4s7gwXUTI4PccGveguKoaro9rqcBjuYgSej9xXVRxMoaPYyqUFLY8R+zS4/1bflTfs0v/PNvyrudR0a90VizIbi0z94DlRUcXlTpuj2mvVpTjUV4nBOEoPU4r7LL/wA8m/Kk+yy/882/Ku58oegpPKHoPyrblMrnEC1lz/q2/Kl+yTf882rtxEB2H5UFPYflRyhc4j7HcHpG1L9huP8Anm1dsqDd0FKE5p8gXOJFlcf882/Kl+wXH/PNvyrtgntS+XRyBzHE/wBn3P8AzyNL/Z9yf+WTV2uynInPSjkFzHEjTrnr5TUjWc0fLRnFd2FHpVPU4wbdiQMUcgcxzujQ/wDExjOOM9K765tovLD+Wu4DjiuP8PJu1ONe26vQL2PELj0FZsdzkJVJY1qeHEzfxiqEw+Y1r+GlzqMVYy2O2HQ65ojwaTy+DV4p0FN8sbjjvXMdBTVMUhT5qt+XyaDH83tQBWEfNDJ7c1cEftQyelIZTWPiozH1q+qdaYY6YGayc0oTjpVt48Gk2+1MDx7+xFx91/ypP7DX+6/5V66dNh7IPypP7Nh/uD8q8X28jf2aPIv7ET0b8qQ6Ko7N+Veu/wBmQ/3B+VNOlwd0H5UvbyDkR5EdHX/a/KqsukmNt0ZJPpXsx0qD/nmv5VkeItLiWxd40ClecgU1XdwdNHEeHg/zZ4wa35kzH+NZuhxj95/vVsypiKiLvVRdvcZ6F4KT/iRQ/WuieL5VrG8DJnQoc+prpXj4XivTlucS2MySOobuL/iVy1oypzwKhu0/4lUnHerpvUmexwkkfaoTHitGSPBBqBlr0FseZLcqFMUADPNTMtNxVEXGhfanAdsVIoyKXb3oAiK89KAvtU1NxmgBm2kwPSpVQjtS7Tgk9qBkDAKMkAD1rGvL6e6nNnpib3bhpOy1Lfm41SdbPTmwv/LRx0FdPoulQ6barGi/Pj5m7k1w4jEqGi3O2hhub3pGVo/hyGzfz52M1yerNzitvy6tFM0nl15UpuTuz0VFRVkVtlGyrOyjZU3KK2yobqeG0hMtw6og7k1f2VjaloA1G/WW6mZoE5EXbNNW6iMWbW77UHZNGtSU6ebJwPwoi8P6leDdqd/Iuf4I+BXYQW0cCBIkVVHGAMVJsqubsKxyR8Gac/8ArDKx93pf+EK0fGPIP/fVdZspPLpc7CxyP/CEaXnIEo+jVDP4MiX5rK7nhbsCciu12UbKfOx2R59FJqehTAX0PmW+eZo+mPerPiDTxqcdtq2m4aaPhsfxL3rtZYEljZJFDKRgg1ztrp91pGqeXaL5lhOeU/uGmpE8phSJKYSIkJlI4X3qzptq+gad5hgaa+uDnAHQ1tfZRFrCgDgndW6YVJyRmhyBI4238PXeov5+s3DndyIVOAK3LPRrK0AENugx3I5rY2UmypcmVYqiFP7i/lS+WPQVZ8v2o8ulcLFQwI3VVP4VTutGsblSJraM574wa1/LpdlCbQWOes9BSyuhLaTypH3jJyDWxsqxso8ui4WK+yjZVjy6PLouBX2UbKseXR5dFwKzxqyFWGVPUGuQ1zwuyM15pIAk6vEejfSu52Umyrp1JQd0TKClozyi3mEjGORTHMvDI3UVPsrsvEXhqLUgJ7cCG7UcOO/1rjl823uWtb+MxTr0PZvpXt4bFxqqz3POrUHB3QgWkK1YK803ZzXYcxCqYelC80/ad4p23BqgIwtO208DmnbaBEW2nKvPSn7acBigQ0AGqeqf8erVfxkcCqepr/oppMRjeG1/4m0ePWvQ9QT9y/0rgvDA/wCJvH/vCvRdQX91Jx2rGRSepxU6/Oa2vCyf8TKGs2dPmNbPhNN2pQ1hPY76fQ7Zou9N2c9Kv+VwaTyunFcp0lDy/mpGTmrpi+ak8oZ5oArCM46U5o8AirPl05oywJxQBRC/L05qMpV7yflFMMVAGe0ecnvTVTLVdMXBpgTawpgR7MdqNlTFTTcc187c7CEoQelBXgcVYCEnpSFCRSuBUcgcVka+CdOmz0xW48RJ6Vm+IIsaXKcdqa3DocDoaYMn+/WvOv7qs/RE/wBZ/wBdK1rhP3dbQf7xB9hnpPgOLOgQn3NdO0fyrWJ4Aj/4pyD6munaP5Vr05PU4UjKlTJ4FQ3kf/EqlrSkhwTxxUV7H/xKZTWlN6k1NjgJk4FVHX0rTnT+VVTHXpR2PKk9St5QxmmrGMVZMdPWEYqiCtDDkU8wEduK57xLPexzqlpIyADnFYn2zVcf8fMlPlYzuxBz7U4249K4D7Zquf8Aj4lo+26p/wA/EtLlaGlc78QYHsK529luNYv20/TgViU4ll/oKw9Pl1bVr9bO2uZCp/1jZ6CvUNF0mHTLRYo1G7HzN3JrgxWJ5PdR3YbDX96RBpOlQ6ZarFEOe7dzV3ZVnZRsryXJt3Z6VraIrbKNntVnZRsqbjsVtntRs9qs7KNlFwsVtntRsqzso2UXCxW2UbParJXHWs++1axsv9fcID6ZyaeoifZ7UbPaotM1CHUVLW6ybR3ZcA1e2UaoZW2e1Gz2qzso2UrhYrBKXZVjZRsp3CxSa2QzCUj5hxUmyrOyjZRcLFbZ7UbParOyjZSuFits9qNntVnZRsouFits9qNntVnZRsouFits9qNntVnZRsouFits9qNntVnZRsouFits9qNntVnZRsouFits9qNntVnZRsouFiuE9qyte0K31a1KSDbKPuOOoNbuyjbVRk4u6E4p7nj7LcadeGy1IbXBwknZx9at7a9B8QaHb6zZNFMuJByjjqprznbcaXfHT9SGHH+rlPRxXuYTGKouWW55tfD8vvIbNIsLAtUH21Oyk1bvbVpvuLkiqDWM4/gNehe5wsf9vQdFNH9oKf4TUZsZ/wC5QLGbH3KdmLQl+3r/AHTQdRUfwVELGb+5R9hm/wCedGo7ok/tMf8APM1HdXaTW7DaQxpPsU3/ADzNI1lN5bNs4HWlZhoV/C6/8TmP/eFelagn7uQe1edeGARrMeP7wr03UFykh9qxmNaM4eZeTW34QTOoxVlTrya3fBiZ1KOsJ7Ho0+h6AseM5pjIQeBWgI8014gDXFc6TPaP5qjaP56vtGd3SmNEA2TVAVvK4pwjPIq0I8ineXTAohKa8dXEShkHpSuBmMnUVF5fzCtB481AU+amiiJo6TyqtryMkUuBjNfNXOuxU24bmnbRt4FTHGacoAFO4FN4/asnxOmNKkroJADWN4n/AOQVIKpbks870NeJP+ulbE6/uqytB4aYf9NK2p/9X+NbQ/ior/l2z1XwBHjw5b++a6Vo/lWsTwEAfDlvjtmuiI+UV6ctzgRSePINVr9caPL9a0HHBNVb/B0WT6mtKfxEVNjgJ15quUq7P0H0qCvUieTLcr7KljSlqxCBkVRAy30oXhYrGHfNXI/CbsufIRc9sVteDwDNNxXVHGKh1GnY2hTTVzzs+E35/dJ+Vch4siW0mXTrNI3vZeDt/hHrXefEDxYNDiSCzAe9l4VfTNcx4U0WRHk1LUiZL2c7iT/D7VzYjFckbdTqoYdSdyfwvoMWj2QAGZn5dj1zW1s5qfFJgV4k5uTuz1FFLREOyjZU2KXAqRkGyjZU+BRgUAQbKNlLcTR267pGAFYeoa8qK3lYUD+I0JXE2bErpEu6QgAVz2seKLOyUqh3ydgO9YDXmp6/cNDpquUJw07DCiul0DwhZaeBNdgXV4eTI/IH0FacqW4jAiTxD4iOf+PCzP8AEfvH8K39K8KWFkA0itcTDq8vNdIAAMAAAelLgUnN9B2K6QqgwoAHoKXZU+BRgVAyDZRsqfAowKAINlGyp8CjAoAgKUbanwKMCgCDZRtqfAowKAINlGyp8CjAoAg2UbKnwKMCgCDZVC61O1tbxbedjGzdCwwD+Na2BVXUNPttQgMN3GHQ9+4+hpq3UByqGUMpyDS7K5K6uNT8LH5gbvS8/ePLRj3rotI1e11OFXt3ByM4ptWEi3so2VNgUuBUjINlGyp8CjAoAg2UbKnwKMCgCDZWR4j0G31qyaKUYlHKSDqprewKMU4ycXdCaT3PGbeafT7qSxvlP2iLgH+8PWp2vMn/AFTV3PjHw8uqW63FsAl7DyrevtWXoeitqNtuyglXh17givosFilVjZ7njYuh7N3WxzRuzj/VNSfbDj/Vmu4/4RSU91pR4Rl7lfyrv5vM4rLscKbw9ojSfbH/AOeRrvx4Pb1X8qH8JlRyR+VHOu4W8jz5rp+D5dRSXMjKRs4Ir0M+E9y8ED8Kydb8PS2FnJOSpRfak5J9RpeRwnhgY1qP/er0/UFzHJ9K828NqBrSH/ar06/H7uT6VhMvqcNcL8zfWuh8DJnVIx7Vh3A+Zq6TwEAdVT6Vz1Nj06XQ9FCZIxSSx4Iq8qjA4qN1+bkVwHSUHTJFNeLkZ7Vbdec4prjgVSKIFj4pfL4qwE4qTYDTAorHik8v5TVvbgkUYGzgUAZrR8VXaPD1psmATVaVcnimgM1SeR2zShioxTV7/U04471860dVxM5pw6UijmlpDInbnFZPifnS3rWbrWX4kGdLkqkJnn2hfen/AOulbU/+rrF0QfPOP9utqb/V1rH+Kil8DPXvAH/ItW/410cn3VrnfAX/ACLdv+NdG33a9SW55xAwG01Vv+NGlq0wqvqOP7HlFaUviFV+E4K55x9KrdBVqeq55Feotjx5bjRU8XWoBU8VUSdH4P8A9fLWx4g1KHSdMmup2ACg4+tZHhEhZJSelcb421CTxF4gTSbZv9GiOZSOlctaXJds66EXLQp+HrSTWtTk1rUAWDH90rdhXY4wAB0qO2gjtoFiiGFUYAFSGvEqT55XPYhFRVhRSUUVmUFFFFABVDUr+O0UgHMnYUuqXotITgjeRwK4TWNW8qUZzLcPwqDqaqMbibLWsasIwZLlsk8Kg6n8Ki0rw/d65KtxqeYbPOVhHVh71o+GfDbSSC/1cb5jykZ6LXZABRhRgD0qnJR0QkrkdrbxWsCxQIERegAqWiis73KQUUUUAFFFFABRRRQAUUUUAFFFFABRRRQAUUUUAFFFXbO3juY2QHE3bPejcVylRTpEaNyjjDDtVi0gW4DKGxJjIHrRboMpyxrLGySKGRhgg96881vSJ/DV619p4Z7Bzl4x/AfWvUorMyQykNiVDyp9Kz5okmieOVQytwQapXW5L1MXw/rcd9AmXByODW7XnGtafL4YvhcW+5tOlbLAf8sz/hXXaDqq3cKIWBJHyt605R6oafQ2aKKKgYUU5Mbxu6d6u3NkoeNoj+5k4B9DTSuJuxQoq6LB/tDQkgMBke9VJUMblGGGHBFDiwTTG4rn7oSaDrceqQKWtJTtuUxxz3roKbPEk8DxSDKsMGtKM3TldEVIKcbM7O2S1uIEmhVWRxkEd6nFvD/zzX8q4HwDqcmn6hLod85IHzW7nuvpXoWc17MZ8yujx5Q9m7MYIYv7g/KnCCL+4PypwqRRTuEdSMW8X/PNfyrkvifBGnhefYoByOldmOlcj8UB/wAUxN9aIP3kayilG58+eHgBrMf+9Xp17/q5B/s15joHGsp/vf1r02+4WT/drskcfU4qflj9a6XwAP8AibJ9DXNS9D9a6f4fKG1dPpXLV2PSpbo9OTjrQ2D0qfYu2on+XpXnpnUVpaQjIB7VJIu4UoT5BmquBGDkU5VIOaUqFFIpO2qQCIMls00jAp8dOPPFMorEcGqrjmrjDhgKqyKdwqgRjgYY/U0d6XufqaK+de50i0A0Y5pcVJRC9ZniL/kFvWo4rM8Rf8gyT6VS3FY880b/AI+Jx/t1tT/6usTRv+Pif/erbm/1Vax/iopfAev+Af8AkXLf8a6Qj5a53wF/yLdv+NdGeVr03uecyFulU9R/5BEv1q8/3TVHU8DSZOeprWl8RNT4ThLjrVftVif73NV+1epE8iQ0VYiquKswj16VQgvdX/snSbplP71wVQDuap+DtMNrZG6uObm4O9iayt/9r+JIrUDdBAdzHtmu2ACgBRgCvHxtXXlR6+EpWjdhRRRXnHaFFWJrVooo2PJfoBULqyHDDB9KLBcbUVzMsELSOeBUtc14nvxGrJuwiDLU0rg3Yxdd1MKrTTNyeFXufQVY8FeHjvOqakpa4k5RW/hFZ3hHSn1y/wD7SvVYWqH9zG3f3r0dVCgADAHFXJ20JSuL06U6ONpG2oMn0pvetS3As7USEfvpOF9hUJXHsZ6wu27Ck7evtSRxtJIEQZJrRu5kt4PJgOXcZdqhsriO3gdwMznhfanZCuyK8txbsED7mxz7VWpzsXYsxJJptSykFFFFABRRRQAUUU2SRIxl2Cg8c0AOoqlrN19j0u4nVwrIuQfeszwZrw1uybzRtuYzh1PH40+V2uFzoKKD1opAFFFFABTo3ZGDKcEd6bQtAF69uI7mFHYYnH3sd6pIxRgynBHekoouJKxZ+1y+cJQQHAwT61XZtzFj1JzSUUN3HYiureK7geC4QPG4wQa82Mc3hnW/skpY2kjFreT09q9OrN1/SINYsGgnHzjlGHVT61UZdGJosaZdLdWyuDyODVqvP/CmoT2F/Lpt8cSxNjJ/iHrXfg5AI70pKzBO4taOnzo0bW033W+6fQ1nUoODkdaE7A1c1ZHzEUlbFxB91vWor10urZJuBKOGHrVAuzEkkkmkycYzxT5riUbCUopKWpGzI8Q27+VFfW/FxasJFI6kdxXoOg6gmp6Xb3SHO9efY1ypUOpVuQeDUngKY2l7e6ZIcKD5kQPoetejhKn2WcOKp3XMjuRUi1GtSLXazkpjhXJfE/8A5FiautWuT+J3/IsTfWin8SNZ/Cz560H/AJDKf71emXpyr/7teaaF/wAhhP8Aer0u7+63+7/SuyRxdTiZO/1rrfh0udWX/dNci/VvrXY/DjnVwP8AZNc1X4WejS6Hp+3jFRONh+tWMY61FOgZevNecjqIMZyRR796eBg0pUHmquBCyllpQB06U4jjimqCOtO4CcKcCnAc0gGTTx2FO4EDLjdUO0b8datSjJqFV/eCqKOaP3j9aBSev1pQcV8+9zqHKcnFKxwKaowxpx5qRkLc1neIP+QZJ9K0TWfr/wDyDJPpTQmedaJ/r7j/AH62pz+7rG0Uf6TP/v1s3A/d1rB/vUP7DPYvAA/4pq2P1rpD0Fc58Pv+RZtvxrpSPlFeo9zzXuQuODVHU1B0mU+mavvkCqepD/iUy1pSfvCqfCefTioKsT1B2r1VseTLcYMbqZqt2tlp0spODjinr96sTxEzXV9Z6enPmMGYD0FKpPli2VThzSSNTwLp5t7F7qbPm3DbyT6V0tMgjEUSRqAAoxxT6+cqSc5XPfhHlVgqa0VGuEEhwucmoaKhFGuHV5Zbp/8AVx8IKiiQNFLd3PO7hQe5qo1wzWyw9FBzRJcPJGiH7qDAAq+ZE2KOoziCB5M4PavOblH1/WksYyfKVt07D+VdB481P7LbiKLmZ+FUdyau+DNI/s3S0eYA3U3zSMeuTTXuq4PU27a3jtoEhiAVEGABUtFFZvUoKcXZsbiTjgU2igBc5pFoooADRRRQAUUUUAFFZ9/qcdne2dswJe5fauO3vWhRYArmvH8xg0MOpwwlUg/jW/d3MdpbPPMcRoMk1xfxOvUfwpFPGfkdgymqgruwmyfxTcG7TS9OQ48/DyY9BVPV4W0LULfVrQYi4jnQd19areEXl1q/W/dcpGgii966/UbDzrd7e6QhXGCCK6UrKxHmattMlxBHNGwZHG4EVJXHeC76Wyup9Cvmy8PMDH+JK7LFc0o8rNEwNJRRUgFFFFABRRRQAUUUUAFAODRRQBxvxA0uRo4tVsVJubflgP4lrX8JarHqmmRujAsBgj0rZdBIjK4BUjBBrz2AN4W8YGFciwvCSvoG9Kte8rE2seiUUgORkUtQUFFFFABS0lFADhWTqcj6dqNpqsOcxNtkA7qa1RUV3AtzbSROMhlIrSlPllcipFSVjv7aRZoUljOUcBganUVyfw8vGl0drWU5ktnMZ+nautWvXUrq55ijyuwork/icM+F5vrXWCuT+Jv/ACK831qofEh1PhZ89aHxrCD/AGv616be8K/+7/SvMtF/5DUX+9Xpuofcf/d/pXZI4lucO/c+9dp8MlzqufRa4s/drtvhjxqwH+zXNVfus9GnuepMMioJVq0w5BqKYV5tzqvcq7RnnmkbIOKmIprnkYp3AjI4pMZFSCj2qwIcYNKDTyozTgvFAED/AEpicyDipnGM0xB+8WmUcl3f6mgHmmq2S31NLXhHUPBy1OamL1zTj0pDIj1rP1//AJBsn0rQPWqGvf8AIOl+lNCZ51o5xc3A/wButq4/1dYmkf8AH3cf72a27j/VVrD+Kh/YZ7F8P/8AkWrb8a6Y/drmvAH/ACLVt+NdKORXpy3PMYxxlapan/yCpqvP0NUdS/5Bc1aUviFL4Tz64FVz0qzcH5arnpXrLY8uW4xR81UrCFbnxS8g5EEeM+9XJHEUbu3RQSaq+A/39rdXrA7ppmwfbNcmNny0zqwcLzudRRR2orwj2AooooAKRmCqSegGaWsbxbqH9naNM68yyfu0HqTTirsGctpMR1/xfNeSDdaWp2r6Fq9C4AwOlYfg/TF0zSI1x+9k+dye5NblOTuJIKKKKkYUUUUAFNZ1XG5gM8c06uZ8UzPNqemWMLEMz+Y+PQU0rgdNRQBgAUUgCiiigDktRIuvHNjED/x7xl/xrra5Dw0pu/FOqXhO5UIiU11/pVPsI5fxvM0kVrp8R+e5kCn6VifFaJP7AsLKPgs4QCrskg1TxpkHMFipJPbdXOa7dT654w0/ygTZRXIj56E961gtSWerfD7QEt9PtWMe2ONRgY6mum13S1u4d8Y/eL0rUtYlht0RBhVGMVLjitjBz1PFfFOlys6XloCl9bHI/wBodwa2vDmrRatYLIp2zLxIh6qa7PXtGFyGmgGJMcj1ry7WLSfQb7+0bFCFzi4ixwR6/Ws5wuawlc7KioLG7ivrSO4t23RuMg1PXNaxqUbHU4rq6ntuUmiOCrdx61ernfE9nNE0eqWA/wBJg5ZR/GvcVraVfxalYx3ERBDDkdwfSqtoBcoooqQCiiigAooooAK53xxpf9o6NI0Q/wBIh/eIe/FdFSMAylWGQetNOzuDMjwlqI1LQ7ac/fxtYehFbFZOhaV/ZbXSo2YZJC6L/dzWtQ9WAUUUUgCiiigApQaSqupCY2E4tm2TbTtPvTQnsO0C6/srxh5THEF6uB/vCvS16GvEU1GTUdEtNTxi5tZAXA7EHmvZNKulvNPguEOVkQGvTw8rxscNWNpXLlcl8Tf+RWn+tdbXJfE3/kVp/rXTD4kYz+Fnz1on/IZi/wB6vTNROI5D/s/0rzPRf+Q1F/vV6TqozG/+7XZI41ucWxAFdt8MPm1YH2rimXIBruvhcMapj/ZNc1X4WehDc9TYcCopRxVgjiopFGK8w6EytjrTcZ5qYgDj2ppXavFMoiI44pFB71JwenWhVweaoCM4zSBj0xT2XDcUoXFUFyFgc0kYy4zUzDJpgB3jAouUcRGhCDdy3en7D608UpPFeEdg3GKdjK0lOpAQMp7Vn69xpsv0rUbiszxAP+JdJ9Ka3EzzrSBi9n+tbU/+prG0n/j9uPrWxOf3YraH8VB9hnsXw9OfDVv9TXT9K5n4ej/im4Pqa6cV6ctzzGNf7tZ+q/8AIKmrQfoaz9V/5BUv41pS+ImXwnAzj5BUOKsTfcFQ45r1Y7HmNamP4hl8nSrkjqy7R+NbHha1Wz0O1iQY+TJ+prm/Ekn2i8tNPT70rgn6V20KeXDGg6KoFeVj5aqJ6mBjaNx9FFFeadwUUUUAFcZq2dZ8XQWQJMFoBI4HQtXWXs621rLM/wB1FJNc54GtWkS51ObPm3blhn07VUerEzqQMAAdAMUtFFSMKKKKACiiigBrsEQsegGa5Xw3nU9fv9Tk5jQ+TF7Ada2PEt19j0W6lzj5CB9TUHgy3+z+H7cEfO43t9TVR0QjboqvdzGIKE5djgVOudo3daljFrE8XaxHo+jzTu4D4wo962mYKpZugrzHxlHJ4jmO0lbKCQID/fb0q6cbsTOn+Hds0fh9LiUYkuGMh/GtvWLxLDT5rh2xtUke5qXToFtrCCBBhUQACuJ+IurIlzbaeTwx3uB39qaXNIXQp6YtzLbJp9oC19qL7pGH8Cn/AOtXYatosOlap4Y0q1TMgk3yN3OOpNa/wz8OG2h/ta/QC7mGEUj7i9qW1Y6p8UZD/wAsrG2P/fRIrpirGTlqd8n3RS0hpRSMQrI1rR4b+FvkG8j8616KY02jxOWO48H6uYplI0uZvwjb/CutidZYw6MGRuQR0rrdc0e11ezkguo1YMMAmvLlS68I6h9g1As+nO37mU/w+xrGpC+qN4TudMRkEHpXIRI3h3xCc/8AIOvW49Ek/wDr11ykMoZTlSMgis7xBpq6ppkluTtf7yN6MOlZRdnZmlzSHSisLwnqT3lo9tdDbeWx2SKe/vW7UtWGgooooAKKKKACiiigAooooAKKKKACiiigApD0qK8d4rWV4hmRVJA96p+HdROp6ZHcOAHyQwHqDRbqHkc5o6i08TarpT/6i4XzUB9+tekfDa8DabNYO3721crj27V534qH2DxNpGoLwHfynP1rqdCuE0/xnDjiO8Qq3oW7V20JWZz1Y3R6ZXK/EsZ8K3J9xXV1y/xIH/FK3X4V6EPiRxz+E+dNGP8AxOof98fzr0vUv9XJ/u15nov/ACGof98V6Zqf3JP9yuyRxL4jjT9wV3Hww/5Cq/7prh/4BXc/C/8A5Cw/3TXLV+FnoQ3PViKifODU5qN14ryzaLICuaTbUmKYwOc1VzQYVAGR1pB0qXtSY46U7gRbfejHNSYyBijFUhEeOaFAz9KeM56U4r0xRcZ58jHGTTs1Gv3KevWvDO0XPODTs8VG33mqRcYoGBGRzWXr/wDyDpfpWqeBWVr3/IPl+lNCZ53pP/H9N9a2Zh8grG0zi+nHvWzN9wVtD+Kg+wz2P4e/8izB65NdOormPh1/yLUB9zXUivTlueWyF+hqlqf/ACCZq0JOlZ+rf8gqatKXxCk/dOCm+4KizgH6VNIMoKrSnajk9AteqtEed1Oa08/bfGzHGUgX8jXeVx/gOEyXGoXjDmR8A/SuwrwcXLmqM9rDx5YIKKKjEyGZogw3gZIrmNiSiiigCnq1iuo2EtszlA4wSKlsbZLO0igj+7Gu0VPRRcAooooAKKKKACiiigDmPHRZ7O1tlPM8yrj8a6O2jEVvHGOAqgVzGvEXHivSbc8qpMhH0FdJeyiC3Zzx2FUxIrQ/6RfvJ/AnA+taFVtNi8u1XPVuTUl1cR2sDzTMFRBkk1O47mR4nvJVji06yG+9u22IB/CO5qLX9KTTE8PaOgzJu86Ujue5Na/w80qXUdRl8QXy8MStup7L61S1Wf8AtH4h3RzmOziCD6mulR5YmXNeVjQu7hLW1lmkICIpJJrlvh94aPifXpvEOpqWtlbECnocHrR41upLy5tNEtMmW7cBsdl71634f02LSdJtrOBQqxoAcetKlGyuE5WRamZbe1kYcKik/kK4n4Xp9pvda1Rx8082wN6gVveOb3+z/DF9Ln5vLKj3Jqv8N7I2XhOzDjDyDzG+p5rcx+ydSaSiioJCiiigArP1nSrXV7J7a8jDow4z2NaFFAXseTyxXHhO/SwvmaSwlOIJz/D/ALJraBDAFSCOxrrtc0q21iwe1vEDIw4PcH1FebRi78O6iNM1Ri1uxxb3B6EdgayqU+qOinO+5R8RhtL1q01WIYic+VPjvnoa6lGDorKQQRkEVV1S0TULCa2kGVdeD6HtWR4Pv3kgk0+6J+02p2c/xL2NZbo06nRUUUVIwooooAKKKTIzjIz6UALRRRQAUUUUAFFMlkSJC0jBVHc04HIBHINAXBwGRge4Ncx4GkwNSt+8VwePY11A61ynhf8Ad+Jdbjz1cNVLZiJPiFCZNC81RloJFkH4Gpb2VptEsNSg/wBZBtk4/WtHxHALjRbyMjOYzxXM/DnVYtU0GTT5CPPt8xsp7irg2kmKSWzPcdLu476wguYjlJUDA1hfEb/kVbr8KxvhVflbe60idv3tq5KA91NbfxE48K3f0r1qUr2Z59SNk0fOOif8hqH/AHx/OvTNU/1co/2K8y0T/kNRf74r03U/9XJ/1zrukcC+I40fdWu4+GJxqy/7priMfu1Ndx8Mv+Qun+6a5avws9GG56welNYcU6ivLLRCRQRTz1pCMGi5aZGR7UhqTqKQrTHcYRnpSbT2p2MU4D1q0MYAQfanfhRjmlpgecqKeBg0L0oyc4rwzuEYZY05RgUoHJoxigY2TgCszXDnT5fpWjMeAKz9b/5Bsv0poTPOtO4v562J/uA1j6f/AMhCetmX/Vit6X8RB9hnsfw6/wCRZg+prqAa5X4dN/xTMA9zXUg16ctzy2K33aztWP8AxKpa0GHymsvWyf7KlxV0viJl8LOHk/1fFZerTCKwmbOPlIrUfAjrlfGdz5NpHEOsrBRXpOVoNnDFXkkbfg23MGiRZ6v81blcy15JbappNjEeCmXFdNXz1TVtnuQ0Vgrk/D073HizVWJyqAKB6V1h6VyfglQ19rMw6tORSWxR1lFFFSAUUUUAFFFFABRRRQAUUUUAcYx874ixDPEUJre1SXddwQdRnJFc7o4+0ePL+YfdijC1r2rm51tnHKrWkiUdAMBQBxWC1u/ibxEumQk/YrfDXLev+zVrxDqH9n2Dsg3TP8kajqSa6nwBof8AZGjh5ubu5/eyseuT2q6UOpM5WRussWnaawjASKGM4A7ACvJPDFwvl6rqs78TSs24+grvviTqP9neE7xlYiSQeWmPU8V5TLFNcWGneH7IZnnwZSOwPU1pLXQzp9zpfhbpcmq6xdeIbxT5ZYpAD6etesAVS0LT49L0u3s4QAsSBeKvVREpXZwXxKZry40vSozzcTqWH+yDzXc2sSwW0cSABUUKAK5VtOmvPHS3U6H7PbxfIT03GuuAxQEtkgooopEhSYpaKAAUUUUAGazde0i21mwe1u0DK3Q91PqK0R1qC6vLe1TfczJGvqxxTsC30PMLdrrQr8aZq5JU/wConPRx6E+tZ3ieI6Xq9prMIOzPlz47g966jxnrvhnVNPktLm8XzesbxjJVvUVw/h3XYNat7nRr5t0igokjDG8dj9aylCzujpjK+53EUiyxLJGwZWGQRT65vwTdN9jmsJz+/tHMZz1I7V0lYNWZomFFFFIArnRdSJ4yNuXOxocgflXRVy2rxrF4y0yYZzIrJ+lVETOpopTSVIwooooAoa7bG70q4iU4YqcfWq/hO7+2aLCWP7yP5H9iOK1/r0rltEf+z/E+oaeeI5v30Y/nVLVCZ1Ncnpg8nx5fqOkkQbFdbXHklfiNgfxW/NEeoM6u7UPbyr13KRXDeG/CU0GlXOuaVuN5DcMJIh/Etd4wyCParPwtmQRanZN99Jy+PY1vhtXysyrOyujjLTWo7PxDpusQELFKRDOPT616R4/ZZfCF26kFWUEEVwvxL8KS6YlzqWmxGWzk+aWFRyjf3hW0+o/2p8KROD84i2sO4x613UVyuxy1XzK54lo3/Iai/wB8fzr03VMeXJ/1zrzHRRjWoR/tj+demar/AKqX/cr0pHnLc5Ef6tfpXb/DL/kLJ/umuGB/dLXb/C8/8Tdf9w1y1vgZ6MNz1sCg4xSikbkV5RYymHOakXig4zQUmMoApwFOGM1SC5GRRUhFIFwKpBcYRzS4zS4z1ozgVQHm7Aq7AdM03J3U+X/Wt/vGmnBavFe56CY/d8xoyaReppSOKkohbknNUdbx/Z8v0qHWtesNIRjdygOP4B1NcBr/AMRPtELw2FqQrcbnNbQoynsjOU0txbEj+0JsVrTtiLNeZrrOopcNKroCx5GK04PE90F2zxq49jXTDDzjNSJ9tHlaPpv4bjPhqL0ya6sV498NfiTokGlQ2F9I9vOD1YcfnXrFjfWt9CslpPHKjdCrA12SWpwssn7tZus/8gmatPGRWdq4H9lTZ9Kql8REvhZwcn+rNcZeQvrHi+3gVsw22HYV2Fy4itnkPRVzXM+Bj5ranqJIO5yo+grrxE+WnYxw0eadw+0w/wDCcTzTMFitYcE+lddYXcd7apPDny3zjPevKdGE3iDxHdxRq3lGXMrY/hHavW4Y0hhjijUKiDAAryKisepEJ22wyN6KTXM+AButL6T+9cMf1ro704tJj/sGud+HPOhynuZ3/malfCxvc6iiiioGFFFHegArLh1Mya/LYBAUjj3FvetQnArkPCztceKNblbnayqDVLZibOvoooqRliJQIXdvwqv61YYYtF9zVZvusfSgDhvDsoi1TXpj13YFbPhz5p5nPUDNcvpUw+06soP3pqtXGoyWds1va5N3dERx47e9bWuyLmvos1trXjhnuLiMWVj0DsAC1eoT+INKto8y39uqj/bFcVoPwr0iGzWS+MstzIN0hDkc1rj4eeHI0PmWhdQMne5P9a3SsrGMmpPU5L4m+J7DU3tLayuUmhiPnSFTnp0FbPwr0UlZdcvFzPccRg/wr2rhtD8EWviLxVfvYBrfSY2KfKfvEV0t1oes+H5RDpmqyoifcWTlSPSq0KtpY9borj/Bviee/lNhq8Qiv1GQw+7IPauwFSYtWCiiigAooopAFFFFABTZHCIzMcAU4Vna6sj2RWEEsTjigEruxxOveJ9dnvpLTR7NUj6CZuc/SptJ8Ez35W68SXk1055EO7Cj8K6bRtJFuBLOAZOw9K28U0zSUktEY1v4b0iAAR6fAMDGdorL8T+DbHUNPb7DBHbXkZ3xSIMEEV1uKKCOZnz9FqTad4nhlvF8m5Y/Z7lDxz2avQ1IZQy8g8iqPxe8FDWbA6npw2ahbDd8v8YHNUvB2prqeiQPk+dGNkgPYjisasep0wlc3KKFpCyhtuRu64rAsWuR8Y5i1jR5gcATY/OuurkfiKdltp8g/huU5/GqhuJnXn2pKAQQCDkGipe4wooooAK5Lxh/oOraXqKcASCJz7GutrC8a2LX3h+4WP8A1kf7xfqKqO4mbq8qD61xcL7viO5PaDbXQeGL8aloltOPv7cN9RXKWblviHdHP3VC046XQjvs1T8DSeV44vIlOA8eSKuHrVLwoCvxBk2jgw81rh/iIq/CeoOiyIVdQynggjrXE+MdIh0zw/qMtj+6hlGXiH3c+oruK5z4hDPhS+/3a9SG6OCWx83aOc63D/vj+demap/qZf8AcrzLR/8AkNQ/74/nXpurcQS/7ldkjj+0cWD+6Fdx8LjnV1/3DXCg/uxXU+CNWs9Gujd38qxxJGTk965qvwM9GC1Pa5ZUhjLSMFUdSTXH+IfiJoWjbhLdI8g/hU5rwv4h/FS91u8kh0uR4LMEgc8mvM7i5lnkMk0jO56ljmvPjT7mqifRlx8c9MUkRWkje9QQ/HWyJ/eWTivnUuB1o8yq9lEZ9O6d8bNGnfFxG8QPc12uheNNE1nH2S9j3H+EnBr4uElWbO9mt3DwSPGw7qcU3TXQVj7uRldQVII9RS45r5k+HXxXv9Lu4bXVpDPZMQCT1X3r6R0vULfUrKK6s5FkikGQQalqxDVizikbpTwaRhQK55nJ/rH/AN40gNLPxcSD/aNMzzXiyPTRIDxXFeLvGiaYXt7LDzYxu9DWl4x1tdJ02QA/vXGBivFZmku5Xmc5JPU104ehze8zOpUsR3lzPdzvNdOXkY5JJquWGaWRWDlMc1EuWbaBzXpJJbHJe47dRmkKsJNmPmzihR8+1uDnHNMVyVWrU0fV9S0uZZdPu5oSvOFY4rIb93IVJzj0qZbgIW2dCMYNAXPa/B/xlkXZb6/FvHTzl6/jXrLalaat4ee6sZVliYZBBr45VxXS+F/GGoaC2yCVmtj96IngiqgkpESV0er+NL77FoE7Aje42isS3uofDfgZPtDgXFwC+CecmsjxV4msdXhsEjkARjudT6jnFVtZsptZ0uXUbv5YIgBEmewrSunUaS2IoWpLU7j4b6cLTQlnYAS3BMjH1rqqx/CDbvDljjp5YrYryp7noR2Ib0Zs5h/sGua+HAK6TcL6Tv8AzrqJxuhdfUEVzPgD5bbUI/7lw1JfCw6nU0UUVAwpRSULTAH+430rj/AvOpa43/TfFde5+RvpXI+AObjWW9boiqWwmdfQOtFIzhBuYgD3qQZZm/49Y6qv/q2+lW5/+PWKqj/6t/pQh9DyrRHzq2rDsJjXU/DnTf7a8WS3kqlraxG1D23VwNldi2vNbZT87SlVHua95+FmjnSfC8Pmj9/OfMc+5rrUbamEnZHYDgYrG8V2d7f6VJa6dIIpJflZz2XvWyaKq5inZ3Mrw1o1voemRWlsgAUfMfU+tWNT0+O+i2vw3Y1dzRQ9R8zvc42TSLm1ukkRdxB4YdRXXQ58pN33sc1JgGjApDlLmCijNHWgkKKKKACiijNABRRRQAUUhYAZJwKwNR8WaZZXKW/mmadjjZENxH1oBJs6CimxuHRWwRkZ5p2adgBgGUg8g8V4xfWLeFPHUkY40/UcunoH9K9mBHciuM+Kmj/2p4ceaDi6tSJoyPaiSurFwdmVq5rxBNJZa/pdxkiCQmF/QE9K0vDeoDUtIt7jPzFcN9RVPxvD5ugySAZeFhIp9MVyLR2Onob9cb8UGxo9qB1Nwn866fSpxc6bbzD+NAa5b4mkNY2EfdrhTRHSQPY6zTn32UTeq1YrP0Jt2nRj04rQpPca2CiigkAc0gCmyIHRkbkMMGhWDDKkEU4ZJ4oQHIeB82d3q2nMf9VIWUegNY+hyF/GeoyE5/eAVtX3/Ev8aJNkBLuEr/wIZrnPCW46vfTE53XJFbLa5HU9PNReB18zxpfOf+WceKlHOKT4c/P4l1Zj2AFXhvjIrfCejiub+IP/ACKl/wD7tdIK5z4g/wDIqX/+7Xpx3Rwy2Pm3R/8AkMw/74/nXpWsf6iX/c/pXmmkHGsw/wC+P516XrJxBL/1z/pXbI418RwdxcJbWhmlYKijJJrzrWtWudTuGIdhApwq9q2PGupjy47KM+7VxxkIGAa46suiPTih4Vt5XoR1pjcR7s9TjFR7yMnJyaiNYGhal2iNCpBY9fammRNqcdOtV8+9FAExcbjt6U9ZDVanK2BzSEXEkORXqvwb+IbeHdQSx1KUnT5jgZP3D615GjdKJ3wEI4INDVwZ9/W0sdxCk0LB43GVYdxUjV43+z540Gq6T/ZN4+biD7hPcV7IRWTVjN6M8xuf+PiT/eNMYheSegzT7j/j4l/3jWbrU5t9NuJc/dQ141rux6XQ8l8e6q19q8qbsqhxgVywlZMbTxT7qQy3EsjclmJqua9enHljY4pu7HLOVd2PLEVEkrRyb1+9TT3ptaEji7GTeT82c0OxdizdTTKFoAdk04GmUUCJQacXCqSaiWq0zGO6UMSUYYqkBteCbaG/8S263nMJb7ue9e3eLbdIfC9xHEoVQowBXgulTmz1y1ePjLg/rXvvit8+FpnP8UYNdVL4GclW/OjS8G4/4Ryx/wCuYrZrF8HEnw3Y/wC4K2q8OfxM9WGwjfdNcl4IJj1TWoT087diuurkNGZrfxtqMOOJUDiiOzG9zrzRRRUjCiiigBG+6fpXKeAhtbVl7/amrqz0rlfBZ2arrkGMFZ92PqKpLRiZ1dc942umt9LRImIllkVFxXRVynio+frmk2o5y+8/hRFagzsXz9gts9dvNYniS/Gn6VNKD85G1R7npW/MP9Ei9uK4jxWkmo61pWlwk/PKHfHYCnFXYN6HnHgLQbyb4mw2GqlgHbzmXse9fVsUaxRqiDCqMACvHtZutJ8NfFS1v9QuEih+y43eh96sa38c9Bs5NlhFPeN6qMCu2zZzSuz1yivnLVvj5qKnFvpYhB6F6xV+OXiO5ukSBEyeAoA5pezYuU+idb1bUNOkH2fS5buLGS0bc/lVHTvHWkXEnk3jvY3H/PO4Xb+teQ2Pxi8SQEG90ppF7/LXS2XxO8K6+oh1+wNvP0JkTj86bg1uOyZ7FDKk0YeJw6HoQcg0+szw6lhHpcX9lOGtDyhDZrTqGQ9AxRRRSAKKKKACkWloFABRRRQBx+uQaxrV+1lb77OwXh5ejP8ASrdjpGi+GLJrhhHGVGXmkOWP41qa1q1to9jJdXrhI0GfrXj+rnUPHl2XmeS30oH5I+hf61cYtsq+mpY8SfG23ile28P2TXkoOA5BxXCat478d32XadbGI8gAba67WrXRPBmjvdLaxGUD5MjkmvDr29vddvXubqV1jJJCA4AFaT5aauxw974Tpv7X8W3T/wDIeO4np5laC23xFeErFqNy8TjGQ4IIrivsabcKWB9Qa6bwN4vv/D2pRW17M81g52/Mc7ainWpzdkXKEoq53Xwenu7eG+0zUgVuYX3Ybqc13ms2/wBq0q5gHV0IrkdXlisPFemapb48i7HluR39K7rhl+ormrw5Jl03eJg+BphLoESFstCSh9sVifEht1zpMfYzZq14Jl8nV9ZsOyyeYoPoap+P23a3pMfoSf0qEveKex0vht82zJ6GtesHwu3+tGa3qiW5SCqmqy+Tp1xJnG1DVusfxdMsHh+7djj5cUJXYNjfB8zXGhQSPncxPWujsMGcgj+E1zvg6MxeHbMMMErmugssi5GO4oe4I4n4oo8Oh/bYRia1bcCK5b4esz2EU8n35ZN5P1rufiIUXwzf+Z0KmuN8Dqq6TY7TxxW0fhM3uen5wufQZo+Fa+bqOsXHYvtFQ3b+VZyuegQn9K0fhFAyaJcTt/y2mJBrXCrW5FbY7uud+IHPhS//AN2uirn/AB8P+KVv/wDcr0I7o4pbHzVpI/4nUP8AvivSdfdY7KdzziP+leaaQSdahz/fH869E8VkLpV2f+mVdktjjXxI+dtRma5vp5WOcscVSPU1K332+pqJhXny3PVWwxu1JTuDx3oxxzUjGYoJwOakC8Z9aguWONo6mhBcepDDINNl4Q0ya1ubLyzOjIHG5c9xSzMGiHPWgB1q+Rg9akn/AIaqRJIo8xRlR1NTtJvIqhHX/C7WZdG8YafNG+1WkCt7g19twOJYUdejKDX5/afKYbyGUdUcN+tfdXgu9+3+GNOuDnLQr1+lZTRMjirgYuZR/tGsPxcG/sC62jJ21t3BzcyEHOWNVNSg+12M8B6uhArw07SPR6HztIOahard3C1vdTQyDDRsVNVGr2obHFLciNJTmpD1pkiYo70ZUnAIzRQAUjEKMtwKdiqupNtg2KCWPQCgRaBHrUV+m+3JHUc11Wr6HFovgzSnuYj/AGlesZQx/hSuauSFt3z6YqkDKlpOftVoT1WQc/jX0hrEfn+E9rd4FP6V4V4H8PS63cOUXiJcg+9e+wxOPDywzD51h2nP0rroxfKzkqyXMifwcyt4etNh4C4rarlPhxK0mgsjn/Vysorq68OorTaPVh8KYVx1xKIPiDbgdZYiDXY15/4sc23jHSrnOBvCE/WiGug2egUUfSioGFFFFABXG6DJ5XjrVoiwHmqrgeuK7I8V5vezvY+O7S6/gmYxNVxVxN2PSa5NwLvx6ozkW0OcDsTXV5HU1ynhci48Sa1cDnDhAaI9QZ20zf6Ejds14n4i1LXbrxy58Ohi8S+Wz4yFr2LUJ1g0SeRukYJNcl8O7df7OnvWXEtzKzZ9s10YWF3cyqysjmYfhnNq032rxDfyTztyRnpVfxXZ6B4M0zZa28cl6eFDcnNey2unXF0MopC/3jXzN4+mmvPHV5DO29bd9o9K7JtQjcxheTsYM0c2qTfaL04z0UcYpRpyROJLdmWQcg1echeTwBRE4l/1ZBzxXkvEzbudqhHY9L+FPiQaqraXqaRvdx/dYj7wrsNa8GaXrMMkb26RzOMK6jBBrw3R72TQfE+n6goI2yAOPUZr7Es7ay1Gzgu1jGJUDgj3FenRqe0hc4qsXCR4r4H0TxboN+lpGZfsscnyhh8p/wDrV7nblzChlAEhA3AdjT9oU4A4FLWMnqDldBQelFB6VIgFFItLQAUlLSLQAtFFFAHP+J/DdprflvdGVvJ5WNT8pPvT9I8PpGimddqqPlQVvx/eqWuqlsTKXQ+Wf2idQ+0+LYdOhwsMK8qPWuBWMIgCjpXQ/FJnu/iffHaSqyFaq3tqkNocD5vWvOxtT31E7sPH3bmKrhm2qQSO1M1GFhbsXUgjkGs/S2Y6vKvUE5rq9YQNYnjkCuVv2VSKRrGPNFnoXheNPE/wmkugWa/00g4B7Cu60K6W90e0nVt2+MZ+veuK/ZbC3WneILKXlGIBHsRitnwlv0zU9V0Gc/Nayl4/dCcivTrx5oqRx03aTRm6c/2fx++B8s6EfiKg8ZN5ni+xQc7Yyag1KY23iexnHAExX86drshuPGp29IocGsLdTVnTeGDiaUewro65jww3+lsPUV09ZS3KiFcx8Q5NugFc/wCscLXT+tcd8QZAw062P3pZ14ojuDOo01PL062QDGEA/StCy/161Wj4jUegq1Zf8fCUnuNbHJfEWN7jTfsiZLTvtxXJ+EYHslNnLkNBJtweteg3Nu1/4wsbYLuVGLsPQVzviW2Gn+ObuJcBZMOBXVGP7u5i5e9Y2vEs5i0KUg4LKFH413ngS0Fp4WsUxyU3H8a8z8WOZYtNtEyWmlXivZNOh8iwt4gMbEA/StsNGyuZ130LFYHjz/kVdQ/3DW/2rB8djPhbUP8Arma647o5nsfM2kf8hiH/AHx/OvRfEqeZp1yvrF/SvOdI/wCQzD/v16ZrPNpN7x4rslscKfvHzVKuJHHoSKjx61o6zAbbUJkYdWyKqLGZCqLyzHAFefPRnrQI5bCaGOG5dSIpcha2PDXhyfXXnEYKxRqSWx39K9SufB6ap4SsrTd5c8ShlbHeug8E+Gm0nTVtokDyt99gOtc7qo2VM+f7TR57ySeC3DFoQScD0o8K6PNqmuwQMjFVb5+OlfTejfDiG0vp7tVWNpvvDr1rb0bwDo+l3UlxFCPOk+8elL2ocqPGfiV4SN9pdvNp8f7y3AXaB1FeVa9oNxoxhFwrASqGBIr7XOiWOMeSPzrF8ReAdG16BY7uLGw5UjtSjUaBpM+evAnhD+0fC969wuGnGYsjoRXnt7ZSWN3LbzKQ8bFTX11N4XOk2qR2QDW6DAA6ivHfGngy78QeL4rbSIl+0SIXfdwOKqFS7FJJK5yPgnwXqWvr9ptLdpIY3G4AdRX2T4bs/sGh2dtt2lIlBHpxXI/BjSU0nw01q6Kt1C5SXHrXoNVJ3OeT6Hlvl/OcZxmlCHOfSngjNKDXgXPVPIvihoX2O9/tCBf3U338djXAHBr1TxTcXutTXVnvVLNW24xzXIHwdhfku2z7ivVw9T3PeE8FUn70Ucsy9avaBpMmr3ZBJW3T7zevtVLWLeaxuvsyyJKWbbkdR9a7rwyY7eIWkKZ2Ll5B0z6VvOdldDwuF5qtp9Crqvhiyj0uU20eyWNdwbPJxXFxEvGGPWvWbhd0MikZBUivIZZhbyzxYOVc4/OppSctzTMaMYWcUTMyxgliMVp/DzTYvEHjjTrOcgQl9zZOOBXNyu0nLH8K9s+AvgGDV7W41XUVkXjZCwOCD6itb6Hkln9ouzW21LQ0hULAkBRQOg5ryC202bUrySCMnai7zXoXxcuNRtdRtNG1bdKbYkwznq6HpmsjwEinU7wPxuhwDVQFI9P8DaNb6Ro8Hkrh5FyxrfuF3QuPUGobJNlnbp0woq11GK9JLSyPLlfmuct8NZDs1O3z/qpzxXV6hcizspZ2GRGMkVy3g2P7J4i1mEj77BxXUatD5+mXMX9+MivBrx/etHt0XeCMnXdYeKyszYt+9umAXHpXL+PVdk808yQMjk/SovB076rrVpA+SmnoQ2fXtWl4mQXEt3HwQwIpJWZT1Oy0m5S9023uEORIgNWcVyHwuuzP4cEDZ327mPB7V0mo6hBYGDzyQJXCA+9ZSWpS2GQ6gsupzWeMNGobPrV6uUik2ePnjB4kt8/lXV0SVgTEbofpXmPi5HZHniGZYJBIv4GvTm+6fpXB6kgeadGHBJGKcHYUjrdLv0vtHjvFI2tHuPtxWP4Dw9tezL/y0nY59eaxPBN+YtH1TTZD89sGKg/3TXQ+A4hF4fhI/jJY/nTlotAWpuanbveaLe20Qy7pwK1/BfhsWmmW4uFwFUYX1rnYtSaLxjpNiv3ZQxceoANeqJgqMdK7MLojnr7jdqrGQoAGO1fHXiixnm8batKsEhRpj8wU4HNfZArivEHivwrol3NZai8CXHVo/KBJzWtePNBq5FKTjI+XNdt/JtOBg7eaxvDDFjgnOHrvvG32XU7+6l06LyrZzlF9q5XSNLa2l6cFs14UaiVOUW9T0rNyTRN4mT/RldRyOc19W/C6c3PgXSZGbcfJAzXyz4jGLLHtX058HFK/D3SQx/5Z16OXN+zOXF7nXN940lObrTa1lucyCiiipGFFBoFABRiiigAooooAcp5qbtUNSKciuii+hEji9Si8FxXl19v/ALPF2WJlEhG7NeHeN4tOm1O6XRgfsmfl/wDrVq/tFaXJYeJLPUoxthnXDEDvXJWEyz24KkE4rzsxbVrI7sGlbc5yx0hob9pMHk961tWAFi2a0yMDFYXiW4CQiJOWavOpylWqI7JJQiz1L9lKAiPXJyDguBmuj8Youn/FCGUAKt5b4J9SKv8AwV0yHwv4C+13hEfm/vXY8cV554+1C91LXLbxNLvi0uG5EMee6+tfRON4cvU8mPx3G+K/l/e5wY5g2fxqtos73up311Ic8hVP4VN4ndZ9JuZFOVZdwNUPA4J0dZW+9IxNctrI36nd+GOb1j/s11Ncz4WH+kyn/Zrpq5pGqCuI1sm+8cafbqMiFd5rtmIAJPQVxnhVDfeKNU1AjMaN5SGqiuombfibVDptvAIuZppAiit3T2JkhLdcAmuNnJ1jxjFGBmCxG5vQsa7O3/1wx1oewFTwY0l5441Ccf6uJdlYnxatTD4v065XpIhU12fw/tFtYrueTCySyHOetc18bHRF064BGVk25r0VD3LHJze+Z/huM6x47t1cbobRN3417QOBXmHwatcwXWpTcPMcDPpXpZlQfxCrpx5URN3ZJ61g+N/+RX1D/rma2xIpOAwJrn/HU6R+Gb4OwyYyBz3rWO5k9j5o0k41qH/fr07Vhm1kH+xXlmknOswZ/v16nqR/ct/uV2M43ucR4R0Sz1jx3bW2owrJAYWbB9aPEnw1vNI8Z2r2EDS6dLKCu0fc9jVjTr1tH1m01NBkRvtf/dPWvfrK4hvrSK4hZXjdQwPWvLxDcZHrUrWOe0nw6QqG6OAB9wV0cFtDAoWJFUD2qaiuQ2uwpk5YQyGMAuFO0HuafRQSUdFuLm60+OW9h8mfJDJV6haKAEIBGD0rhdFCH4l6hKiAJb25BPpmu6chUZj0AJrynw9e3V/4l123s4HzcNs87sAKuG5FTY9B8BL/AKHeSH/lpOzA+tdR2NZ+h6eumadFbJztHJ960OxrQwPLu9P6nFRg80/PNeEeucFqcXk6zdr2Y7gKgq54wK2WpC5m+WF1wW965ifVJbv93psLOT/y0PAFd1NXR6lCquSxyfj2IQ3vmWgBZwDIR1GDXX+F5LY6ZEtuwLbQX9c1zHiZBZ2v2bcHvJvmdj2FaeiWyX2mRT2j+TdINrEdD9a6mrxMackqrtudVIwVGLdAK8c1Rlk1S5ZehkOMfWvR9G0rW/EmpPpkFzEkaD55c4r1Lwl8FtF050uNRc30w5wfu5p01yq5x5hiFUtFdDyf4WfDS98UXqXN9G0OmIcsWGC/sK+qdJ0620rT4rOyjWOCMYAFTWtvDaQLFbxrHEowFUYArM0PX7fV72/t7cNm0fYzdiapu55Ld9jyH9pGxH2vSbwDsUJrzXwPYT33iRFhLCNRlyK9o/aHtfN8N2s/H7qWuO+ClmJX1G52/dTGa2pg9juguzYo6AYqZeeKjb7y1IvBzXpx2PLlucxaE23juRQflmirsJCBE5bpjmuK16Q2ni/S5gMBzsJrqNcuPs+lXEpOMIa8TFx/enr4WV6Ryfw8a1k1fW3t8bvNxTtU5vpv96sr4d2clhrBmY/LdqWI961tWG3UJ/8AerOceWRqpKSM3wLONM8V3ti5xHdKJEHv3rtfEunjUdIniHEijch7gjpXnGuh7a4s9Rg4kt3BJHde9ep6fcreWMM6EFZFBqJ6alI818M6wb3xhY+dxOkJikHuK9SryTXdKbRfiPYXsJCQTvz6V60DlQfXmlPVJoaFPSuI1EYvZv8AeNdvXGayu3UZvrmpiNnG67ctpF+bxOEniMT/AFr0vwcMeG7Ijuma868aW32jQ5hjlPmFd/4Cl83wppx7iMCtJ/CRHcLIeb8UbBP7luzfzr122f5dp7V5Lovy/Fe33dGtWA/WvU8YkI7N1ram+VJmdRX0LykHoc186/tE6I1nr1prMaExSja5xwCK9Suo9Z8OXj3NiG1DTnOXgJ+dPpVTXde8N+KdHn0/VvMt88bZkwVaumVqkbMxjeDujwaykWe2RgQeKnKjsKytU0+60DU5LezJvLTrHIgJ4qSJ9Wul221hOWP+wa8Grg5qVorQ9SFZNalXVVkv7+2sbdC0kjBcD3NfW3g/T/7J8M2FmRgxxAEe9fPPw28KeIbbxXbale6Y0kIbOH4x719MglkBIxx09K9XDxVGny9Thry55BRRRTZkFFFFIAooooAKKKKACiiigApytg02g002thHO/EHwrbeLvD81jLhZsZif+61fK2radqfg7VnstRjO1T8rDuK+yxWNq/hjR9XnE+oWMM8oGNzDJpztUVpl05OD0Pk6TWWkixBC7sfQVB4f0fVb/X7e4udOuZoFYEqFNfWtp4U0S0YGDTrdSO+wVqxWlvCP3UEaf7qgVlSowpaxRrOtzqzPPbTTdW8T+Tb39udO0eAALCD80n1pvxo0qFPh1JDAgWO3dCoAr0sCuU+J8Qm8FaiGAICZ/KuhVGpKRknqeFeJZhD4ZLA9YwP0q14TRU0K0290BqkLKTxDb2enxtgGIvIfQAVf8Lp5WlpFnIjYoPwOKynqrmqOr8K3sSai9sx/eyLkfhXWV5hpcrQ+OLIfwvGy16ga5po1Rh+MNUXSdCuLhmAbaQvuaxvAMwh8Em+cje4aQn3qHxQY/EHiK30dTuigUyy+mccCsuwufL8LppEH+tkuGhA9FB5q1HQTZ0/gO3YWEt7L/rLpy5+ldE1/DZ3VuszAGV9qj3plhbraWcUCDCooFc9qOL/xhYWwcFbcGVxSpx55im7RKd5qV0l9PsndVDnABrmPGtxdXtjErTO+HGATXXz3OlNJITbvuJOTuqnKulSgBoHIHTmvpoxTglY8LmkpXuUtCvryx02KFJ3QAcgGtAazfH/l5k/76pRLpgGPJf8AOnifSh1tnP8AwKtEopWsQ+Zu9yP+3dQjGVupAfrWfqGr3t3BILm4d1IPBNaq3OkA/PaOf+BVT1WXSnhkEUDoMdQaHbsCcu5wOln/AIm8JH9+vU74hom/3a8p0zjVo8dN/FemysTbnP8AdrKQ+pzQjEkRVuVPGK6DwfdazYP9l0mcSQgFvJk5/AVgwn5PxNdb8Pz/AMT2L/dNclaKcT0oSsd/4X1hdZ07zmXy50OyVD2YVr1xWmt/YvjW5tJAUgvR5kZ7bq7YV5UlZnUndXDj1FFYGv6FPqMomtNQntJQMfIePyrGfQfE6bVi1sMvTLLzQkM7csACSQPrTY5EkBKOrY9DmuKXwnq9wf8AiYa5MyHqqcV0uhaNbaNbmO2Ltu5Z3Ykmiwhnii++waPO45dhsUdyTR4C0hdN0hZHTE83zuSOeazL5o9c8S2tjGd0dq3mS+mR2ruVAUYAwBWkDKo+g+iikzVGR5atOFMzilDV4J7BX1fTLfVbGS3uFDAjj2Nea3EqaKJre6xGYs7c/wAQr1Xfge1eQfF25t7vUIYowPNT7zD+VdWGbcuUqNZ0tUcPc3D3t7LdSDljgD2pINQu9LjlNm4AfqD2po4GKiuRuiNeql0OF1Zc3Mmdz8F9Jt9f1XUP7Rupo3ChgUk25r2aLwo8AP2DXL5PQeZuFeMfBDQ7TWdYulvFYqicFWIx+VeyHwNFBL5um6ne2z9hvyKTKiuZXY258ReIvCtnMuow/wBp2wU7Jo/vL9a5v4beJZIPNnW1n8y4laRxtODk1v3T6/osUi3yrqlgRhio+dR9Ks/CfXtNvTdaZCirLE5ZAy4OCelHKZ1IqOqOf+LupanrmgOIrF4LSJtzO/etH4LaeIPBl5dFcNJnmut+J8Pm+D7yJFALADim+C7Eaf4FSIDrHmtIaGEnoYjZ3ITTyelNOCVzQzCvTjseXPc5H4gjy7e0uwcNDKDn8a0fGF1v8NQ7Dkz7QMe9M8aW32rw9dL1YLkVhWFw2q2OhQv91U+Yf7vFcWIp81SLO3D1LU2jRMf2CXSJAcAHafxqXXEC6hIfXBqx4jiP2FHUZ8pwwFV9WfzTBMv3XQGsMZDlkma4SfNFmVdQrPA8TjhhitL4bakRBNpNw3762b5d38S9q5u81iO31iCyYf6wfe9KL5303VLXVYD8sbBZcd1rkcbo6kzp/inYvPoQuoR+9tnEgrY8Gaqur6Ba3IILbQGwehFXZfs+r6S20h4Z4+D9RXlHw+v7jw/4lvNOuGP2EylB6Ke1QleNuxd7Hstchr67dRf35rrwQRkVy3iZcXqt6rURBnM60u/S7gY/gNP+EeryLajTLsbScvCT3HpT9QG6ynB6bDVnRdHeb4dWer2Cf6XYysxx1KZ5FdCV42IvZnQ2/wC6+KOkSdA8Lr+hr1mQZwR1rxa8vY7jWvDOqQN8rTBCfTPava05Ue9OPw2IqaO4o6c1Vn0+zuDme2icn+8oNWqKpMyKK6Tp46WcHH+wKnjs7aP7kMa/RQKnooC7EChegA+lKKKKQBRRRQAUCiigAooooAKKKKACiiigAooooAKKKKACiiigArmfiSP+KL1P/rma6aqWs6fFqumz2Vx/q5lKmncFueKfCDSpG8KaprV0pDGIxxZ/uisLw0+6wf8A66v/AOhV7bqun2+h+Crm0tVCxRQED8q8S8KD/iXcd5GP60p7G8Xc0ryIW2t+H7njMkhWuy8SarHpOlS3EhwcYX3Ncx4jQLrfh6I8BCXPtWL4lv8A/hJNfFtASbG1bk9masbXLua/w4tJDLd6len99N8zE9hWX4NghvPHmpSROGghdigB4BJrVu5pYLC20uyO28v3CAL1C9zUHgHRTofi3WbMksYiBk96ro5B1O9vrhbSzlncjaik1yXgW7trm41TVrtWeTYx+i+lSfEnUPs+krbRviadsY9qy9BjFn4Ovpc48wiMe9dOEpXjzM5sRUs+VGv/AG54cz/yD5c/71J/bXhzP/IPl/76rhN1NZ69yMEjy3LW53w1zw4P+YfL/wB9UDXfDYP/ACD5f++q4HcTRnmjkQuY73+2vDTf8w+X86S81bw01hIFsZQ+CBzXCg02Y5jajlDmMvTiDq0ZXoX4r0yT/j2P+7Xl+l/8hWH/AHxXqD/8e7f7tTLYSepzcJ+Sut8AH/ifRf7prkYvufia6rwE2Nfg+hrlq/Ceij03xBokOtWiqxKXEfzRSr1Vu1YGleKlsbw6T4hYW96nCSNwsg7EV1N5fxafaPNcMAqrmvBfGs0ut6uuq3EZlskbbs7hfUV5jt1N6KctEe/xukihkdWU9wadXiNjYzi2WbRNYuYY2GQu/cBVxZ/FkYwmrq4P95eazaRtynsDuqKS7BVHJJNclq3jG0N9/ZulutxetwQpyFrhbi01e6Rjq2sTNH1KodornvC2mxwajeXtk7JKHxHJnNGi1HGnKWiPevCuhLpkbzy5a7m+Z2P8q6GuK8EeME1LGn6kwj1FB+Eg9RXa1r6HJNNOzF70d6Wigk8rApcAVA17Yg4F7F+dKt5Yd76IfjXj8jPU5kZ/ijVE0nS5LhsZxhR714PqN497eSXEpJZj3rs/ilrcd5qCWNnOssEQyxXpmuBY16GGpcquzmqzu7C5qKZgYiRTmPymqgbNu3qTXWZHsH7OEWb3U5P9kCvdj96vF/2cYClpqMxHVtoNe0ipZ1U17ohGQQRmuX1TwwkWpLq+i4t7+M5OOj+xrqTSCgpxuQaVq9n4gtZLK9Ty7of6yF+D9RWvcxJDpUsUYwqpgCuY1rRxdst1asYb6LlJBxn2NWtD1s6lptzbXa+VfQKVkT19xVx3Rx1YcqOeKkMDmhqc3G2k7V6kdjx57lO/RZbWVDyGUiuD8E3CnW2syDutgy4+rZr0Cbjgc5rkfDemmHxPqNyVxk0pxu0y4SsmjrLuEXFtJER94EVyEFwTGbKX/W2rFfw7V2griPE8ZsPEsNwFxDcrsY+9YYunzxv2NcJU5ZW7nP3+n/bNSupFGZIEEi/nW7EEubJQ4BV1wRWObuWx8TyyBd8Ui+UV9c1pW0FxptybO9Uo7DzIwe6nmvPmlyK256Eb8xoeANUNhfS6Ldv8pO6At3HpVfV7KFfF13aTDbHeJvjb0YVheMN9tbw6ja5FxbOGBHpWvqeqQ65oFlq9v8t5ZspmU9QO9Y2s7o2Or8G6nJNDJp96f9LtvlJP8S9jUnilCfLfHTisjUonMEOs6XxOqhiB/Gvoa0pdQj1jw/HdRfez86/3T6VEo2d0O90YFwN0Eg9VNdx8EGjn8IXFpINwSZ1YH0NcWRnIrpPgxcpb6lq+nEYZiJl9xWkGZyWhynj/AEi78L6qixORpRmE8JP8LZ5WveNDuxfaRaXK9JIw36Vm+NNAg8R6FcWUyqXIzGx7N2qD4dR3Fv4agtLxGSa2JiIbvjvWmhnJ3R01FFFSSFFFFABRRRQAUUUZoAKKKKACiiigDJfWoF1z+zCR52zf+FawrznW7a4PxJt5IUbYYACwHHWvRUzsGeuKCpKyQtFFFBIUUUUAFFFFABRRRQAUUUUAcp8UJvJ8G6gQcEpivI/AlputbSNxnI3Gu/8AjfeCPw9FZg/PcOBivJb/AMSNpUEenaUA97Ioj3D+CnJNqxrDREnxG1CS88X21ppkvMcexip6etX9Pit9Is90pGFGW9WNcnoVomnavdXd7MZJEHzu3OWPYVrQCe/nSeVCfNbbbwd2PrS5ehVztPhSP7Z8XXF5eRnzIlBTPRB2FXNNvYbr4geJJImUojBSQfQVNdN/wgPg0Q/K2tahlQR1BP8AhXmekahLoy6yC+67nwN2ecnqafJzLlQr2dy/4quv7S8SSSq+6GH5VA6VrarJ9m8NWFuODKTIRXPWVsYoIVkOGdssxrT8R3aXFxDDEwaOCMICO9exSpcijE82rU5m2ZJbimZzSnpTa6zlHA0AnNNpwpgPB6Ukx/dNQtMn4ibNJjMvSv8AkKw/74r1F/8Aj2P+7Xlukf8AIXh/3q9Tkx9nP0rKYR3OYiPyfjWz4d1W30nUUuLhh8qnA9a52e6WCPaAXlY4VB1JrS0jR3kcXWpjMn8KdlrkqNWsdsqiirieKfEOrapdw3Fwpj0wSYZR6eprciEbQKEwYyOB2xS3VvHcWklu4Gx1xisTQ52s3fTb07ZIuUYnhlrzcRB2ujvyzExbcZDpbS60p3udKcbOrQN0P0pLLxzbTROrwTC4TgqFyM1na/ql3ds9tpcLyov+tdOwq74fu9KMAih2JKo+cSDDZ96xXMldo7ZKnUm1FlaDUbjxNKyNJ9mt1ODHnDNXS2tvFZ24jjAVFFclrpjvb+KLRQFvA3zSLwAPepNQ1PU4bQ2VzaSGd/kWWPlT70OnKauhRr0aLcW9SzaBtU8QyXVrK0YtcCORe7V7D4E8WjVd1hf4jv4Rg5/jHqK838P6emm6fHEB82MsfU1YmheG7iv7MlbuI5BH8Q9K7FTtGx4ksTz1G3sz3bPFBrnfD/iW11PT0lLbJQMOh6g1onVLcD79Y3SNlFtXPnaqWsXYsrGSX+IDA+tYjeIn/wCeYrE1fWpNRYQ9EU5NcUcLO95Ha8TTkrIply5Z3OWY5NMJ9Kr30hjiwpwxOKljBCLk5OK9BKyOdu4TNtibPpWbbS5j2ehNW799sOO9UrGIyuFUcucVSEtz6Y+AlmYPCBmYY86QsK9LrnPh7p/9m+EtPgIwfLBIro6ze52x2CjFFNkdUXLMFHqaZQ6uV8V2z2Vymr2xKlRsmA/iWuoR1ddykEHuKhv7ZbuymgcAh1IwacXZ3InHmi0cpHJ5sccin5WGRUtZejlo4DbSf6yByhHt2rU6CvUpu6Pn6seWViCT79NSNEZmVQCetOfljRg1sZIkA+UGsPxlZfa9ElYf6yH94v4Vux/dqvqLRrbfvv8AVl1VvoTWU/hZdL4kc18IvJ1PxdM08aSRmEMAwzg12/xX8Om5tItWsU/0m0+8B/Eneud+H+iHQPiXe26/6mWPzI/oa9kliWaN45ACjDBBryJLU9ZycWj5zuUTUtMdRgh1qDTbE3+gS3dlH/pliphvIB/y0Ts316Vr+J7BPDHid7AsPs9yPMh9uelReHL1fD3iyO7mH+gXa+VP6DPc1C00NLifDzUBcWUtm3JhYgZ9Kl1e2l0WWe8s0L2k3+ujH8J/vCtDU/DyeGvGcV/Zc6VqXyZXkIx6VJqzalokjprdmZLFzhbmIblwemabQ1IyIJUuIxJEwZT3FWPClwdO8fWE2cJcKYmrDv8AytHmF7ZyCXTZj8wB+4TU99Lutob+0bLQsJVI9KhLlYPU+jFpQAOlUNA1KLVtHtbyE5WRAfxq/VswCiiikAUUUUAFJS0UAFGKKKACiiigAooooAYYkMvmFRvxjOOafRRQAUUUUAFFFFABRRRQAUUUUAFVdTvEsLKS5kVmVBnCjJNWqRlDDDAEehpgeQax4d1X4g6pFdXO+x06E5jU/eauK8Z2OjeHvEyW9sPmtYhk9WdzX0HrmoQ6RpVxdykKkSEgep7CvDtN8D6p4t1FtVuE8hbmUyGVuoXPAFUnY0i7nHaDpt3qN/kwyXU7uWEKdAT/AHjXtPhjwvFoEba54hkRbhE+SMYCxj0+tdHZWGjeC9IaQiOJFXLyn7zGvGPFPjGXxxrb2dlIyaXCeQON9D7jvcdq2py+J/Es2pz5+yQ5SBe2PWuPjh+3eJZ50J8pD09a3Neuxp9pHZ2gxLJ8oUdhTdNtFtbVRj525Y+9deDpc0uZnPiKnKrIlvRhVqgTzV++6LWe33q9U86QZoooqiQpVpKWgBw6U2f/AFTfSlWkl/1L/SkMytHGdXh/3xXf6zqa2kIiiHmXD8Korzq1m8i+ST0Nd/oFgZT9vuxmZ+VB/hFc1WfKg21YmgaJ9mAub0+ZcNzg9FrfNLSGuJu5Lk5O7FrK1zRYtXSMu7xSRnIdOtadOpBGTi7oq6dYw2EAihHHc9zVbUtCsb9g80IEn95eDWnRUj9pK9ylp+m22nJttowPU9zVw4PUA0GkqhOTbux1KtJRQK5z3iGa+0ucXunyOsbfLKq/zql/wkupMMrdPj611csayxsjgFW4INeceL45dBm82KJntG6Efwn0rlrUnLWJ6WFxCtyyOr8Y+DtJ0nSyYSxuH4QH+deOQReX5h6nJ5r3DxpILm01XUXY/Z7aMxRf7xrxRIpZ2jt7dS00pwAPetmx4em1BN7sz5X86+RV5VOtXx0qN9MOnajcQs+90IDH3p0rBEyetSzcz9QfJI9K6P4ZaLJrfiS0t0XKIfMc+1cpMd745JavpP4F+F/7K0X+0bmPFzccjI5C0bGkI3Z6dBGIoY41GAowKlFFBqDrAnHJritaup9e1pNJsWZbZDuuJlPTH8NaXi3VJ7dIrKxVjd3J2qR/CPWr3hvSY9Jswgy0z/NI56k0Esv2lulrbpDH91BgVN3oooKOK8WWNxYXv9rWamSI4WeMenqKWCZZ4FkjOVYZFdlIiyRskg3IwwQa8+t4pNM1a50+T/VlvMiPse1deHqfZZ5mMofbRdPU0hZVPJA+pqC+ultYi7ck8Ae9RaZ4Vu9YgNxqdzLAHOURPSuudVQWpxUqEqmkS+txCoAM0Yz/ALVc94qmm1K2bTtLUy3LkEFegxXTWngLTYnDTSTzY7M1dBp2k2Wng/ZYFUn+Lqa5Z4lNWR208C1K8mc3oN+V1bTG8QWz2d9bp5Im6pIMcZNeoowIyDwec1ymradFqVo8EyjkcHuD61yi+LL/AEq0k0GaN3v1+SKbsU7GuTlcnobVocquZ/jq1TxTq9+YWHmWi4hceorkrCVb60kt7pcTR/JIp9fWu+0OwFjA27maQ7nPqa5Lxlprafqseq2inyX+WdR/OumpQ9xNbnJTr+/boangnxQulyx6L4jVZbAsDbzuMhD6GvZAtveWoGElgkHHGQRXgMscN7bAMoeNhkU/wL4t1nQZry3YNd6bbtnYTlkX2rjinLQ6pW3O38a/C6z1G0nk0l3tpT8xiB+R/bFcDbaLc2mnSz6cjTRQHy7u1P3oz6geleweHfHmha4qi2vFSU8eXJwc+lY3iuB/D2vReILJN1lNhLxB0IP8VO3Rji31M74Ia7BPaXekeYPMgkLop67TXqnSvLdc8KjTdXt/FfhQdcNPAnR1PcV6XYXH2uzhn2lfMUNg9RSaJlrqT0CiipJCiiigAooozQAUh60tFABRRRQAUUZooAKKM0UAFFFFABRRRQAUUZooAKKKKACiiqWs6hDpemz3dwwWOJckmnYDgfHTzeIPFNhoFuxFuhEtwR6e9bPifxpovhDThFNMhkjTCxLyeK8ctfEOs6lqOpXlhKsKXL487HzY9qy9a0dLy2ZWmae7LhpHkOTirjHmaiXKyVy/r3ifUfG8265BgsF+7Gvf61jeEYYrG91MAYCHj6Vr2cC29vHEgwFGK5fUrtrTVbuBDh7gACvQq4dKmkjmp1m56mjpxbUtTmvJR8q8JW4elVdKgFtZomMHHP1q0a7KUOSKRzVJc0rkF4PkWqHer93/AKsVQJ4rQxY1qBQeaBQIWlpppRQMVaJf9S30pRRIP3TD2oAxdJt/teuW8I6btx+letIAiKoGABivO/AVv52vTzMOIlwK9GrzazvIJCZpabRWRAUUUUAFOptOoAQ0lFFABRRRQAVX1Gyi1Cyltp1BRxjntVilzQCdtTH+Jkbaf4Bs7YcSXEgZ/fvWL8I9BSRb/XbtCY7aMiEHpkdTXWfGu0lu4dIsrRSXeTYoFaGtW0Pg/wCGM1uMLM0W0n1Y1imfQqFn5HgFw7T3lzM/V5GYmsu7ffJtXp0q/Kxjt8n7xFdP8KfCEniPWo5p4z9ihO5ie/tQZJczE8C+CpNQ1iwS4UlmIldSPur2zX09awJb28cMYAVFCgCqtlpFjZTvPbQLHK4Csw7gVfFS3c6oR5QooopFkbQRNMsrRqZF6NjkVJRRSuAUU6m0wFrh/iNDLaJb6vAC3kHEijuDXb1Dd28V1bvBcIHicYKnvRGTi7kTgpqzOI0HS5tfaG+vV8q0XDRp3b613aKEUKvAAwKhsLSKxtVt7dSsS9ATnFWKqc3J3YqdOMFZBmigUVJoRzyrDE0jHAUZriISdS1eW+kVdq/Khx2rR8b6t9mhisoMme44wOwqKxi8i1jQ/eA5rqw0Op5uNq2XKifpTLiFLiCSKVQUcYINOpTXYeSnbY8zEEui6u9hPkwOcwsfT0q74aKR+KbiBgCk8XQ966LxdpP9paazRD/SYfnjI659K4XRLtpfEGnyuCsysYpFPY1xyp8lTmWx3xqc9Oz3Les6Lb6ZqxhKFIZjujdeCrfWrrXuuxWDWUF+JrZwV2TDPH1rqPE+nDUtPI2jzU+ZD3FcNeXDy6PMYHKzxjB9iKyr03GV0a4epzRszs/g94nuLad/DutMPMGWgc9GHpXsC4xx0r5k0y4Gs2ENzA5i1CAgq6nBBFe0fDvxaut2X2W9YJqVuNsiHq/+0Kwe5tJX1R2lFJn0oHWpIFooooAKSlooASjNLRQAUUGgUAGKKKMjvQAYooyPUU2SRIxmRgo9zimA6imJKkn3HDD2NOOc0gFooooAMUUUUAFFFGaACvJfjfrfmwQeH7Vj5twd0pH8K16H4p1y38P6RNe3TAbVO0f3j2FfP7XE15c3uuamT50pLKG/hXsKrYuC6lbwiVtdMlizhYnI5qDw/efb9Q1FwPlAwKyNK1DzdGvWTIaSYgVpeHoBYap5Q/5aR5NdWHpu/MZVaiXumtWVfaUlzqMF0eqda1pBtkYHsaYa9dLmWpwXaY7tSdgaO1A6VRJDe/6sVnt0rQvP9WKoHpSJYzFHSlooATrSiilWgBRSTHETH0FKtMvW22sn0qXsCL/w1ibyrudhwzkA+tdpWN4PtRbaFBxgv8x/GtuvMm7sUtxtFY11fz6dqQW6O6zlOFf+4fQ1sjBAIPB5zUiasFFFFAgooooAKKxpNZlk1RtP060a6nUZYAgYq8tn4plx5elRqPVnp2NFSk1dFuilTw54nkALG0iz254qYeEvERUk31op7DaaLFLDzMvV7k2lqJR/z0VfzOKu1zvjDSfEunWsDXxtpbNp0DNGDkfMK6FfuL9BSsROm4KzO+1HSIb6/tLmX71udwHvXlPx41dZJbPSYmyQfMfHavYr2YW9pNKTgIpOTXzBdSXHinxsI5HYfaZfLVyONoPaueJ9DN6aFTwz4du/FGrR21sjCAEeY+OAK+m/DOh22g6XDZ2qBQg5I7mo/DHh2y8P2CW1nGoI+8+OSa2z0obHCCiJRRRSNAooFFACFlBwWAPpmlrG1/SJL/ZPa3DwXUQ+Qg8H2IqpoWvSNc/2fq0ZgvVHBP3ZPcUrCOkooHNFMAoooqRhRRRVAFHY5orjfG3itNOT7DYfvdQl+UKv8NOKcnZETkoq7Kl86X/i+WTG5bdAoPbNahORWV4ftJLa133J3XEh3Oa084r06UeWNjwK9Tnm2OWjqaAc0vSqMR3avNPFelvp/iuxvLYfuZ5RvHofWvR881U1KxjvljEmPkYMD70nG5cZuJcBzwa838RWx0zxBIuz/RbtT9A1ekYrC8Z6adR0eTyh/pEfzIfepqQ5o2Loz5JHKaLpG7QftVgMXUTHIH8Q9KbG0rzx6hp7mG/hOSAcfga1fhfJM+kT/aFKyiQhgR0o8Vac2n3Q1K0Q+W3EyKP1rmq0Lw5ludVOvafKz1TwP4pg8RWGThLyPiWI9QfWulHWvnQXdzpVxHrWjyYkjG6RR0kX0r2HwH4007xZpyy20ipdAfvISeQa4rXOmUeqOropKUdKRIUU6m0AFFFFACMcAkc1xuoah4qmv3i03ToY4FOBJK3UV2dIaY07HEtZeMLlgJL21t1/2FyabJ4Z1+4P7/X5FXuEXFdxzS4ouPmOf8PeH30qZpZdQuLpmHIkPFWtd0K21mMJcPKv+42K1sUUXFzO9zkNO8Fpp1wstpqF2NpztZ8g11yggAE5paKAbbCiiikIKKKKACq2oXkNhaSXFw4SNBkk1LcTJbxNJKwVFGSTXhvxG8YnW3ezspcWStg4PLmqimwS6sxfFvi9/GXiyK0RSmn22SB/fPrWP42uf9B+xwnlhlsdgKrx2Y03VILp+NyHIx0qpNuuIL7UZ/4hsjB/KuiFB89mTKsuXQp6LEqzwWo+6zCTNdBdlY/EMYX/AJ54pdK0ZYxZXJOHRACKjlXzPEjN/dXFejShynA6nPM02OTmk70veg11EgelAo7GkFAEV39wVQJFX7v7grPIpEsQ0gpaTpQAtKtNzTloAVar6mSbYIv3nYKKs96SOA3GqWcX8O7cazqO0WNHd2qeXaxIOyAVLQBgAe1FeYzNkN9bx3dtJDKMhhisnQLl4JX027J82P8A1ZP8S1uVBLaQyzxzOmZI/utSGn0LAparz3CQYDn5jwAKnHNMlCU6jFVNRvI7SHc5y7cIg6sfagpRu9DzuW7ubHVtQ1awlMc9vLxzwR6GuwtPiD4kuIY3VbTJXPXNP8IfDG81Vp7nWXaC0nff5PciutvfhLpywE6TcTW86jjLZBNUq1NOzPTVKfKcjJ4w8UStnzraMegWon8R+JZB82oqv+6tUtSs7/Q7wWurwlCThJR916qtJPcalb2FnsE8vQucCu2MaLjznO3V5uUTWdS1i5NrFd6i80bzKDGRwea7dfur9Kzz8Mteukina9thJG29VHOalV7ux1E6dq8YiugMqw+649q4p1ISlaBNalUteR6pe20d5bSQTDMbjBGa858U6Pa6f4s8Mw2UKRqJGPAr02uG8TATfEDQUP8ACGauVHuSVzuRzT6aKKllBRRRTGFFFFAgrE8V6bBqOnESZSZTmOReGU1t1l66+IkXPU0AznvD/iWWznTTNcG2bpHOPuv9a7QHIBHINcHq9vbXFo63eAgHDd1rI8I+L73Ty8OpK8+nI+yO5xyB2zTsTfU9UoqG0u4LuFZbaRZEbnKnNTUiwoJoNcv4q8QfZV+x2Hz3b8cfw04xctEROagrsPEevmJ/senkPctwSP4a5/StGjt7h7q5Pm3bnJdu1T6fZiAeZKd07csxq+G5r0qVJQVzxcRiXUdlsTZwKAeKjzTh0rU5CQU7NMB4py0rAIaB2oNFFgHUh54pc0nemBDBbxW+/wAmMLuOTjvT3RZEZHUMp4INO70tIdzzvVLJtF1B4WybG5yEPZSe1cxoovLDUpjaM1vLC/7uZeAfY165renR6nYSQSD5iMqfQ+tcJ4LhabVtS03UB84HUjr71xzoe9od1Ov7up6d4H8fxakVsNZ2W2orxknCv7ivQFIKgggj1FfOeq6aYZjaXWQ45gmHB/Otv4f+N9b06GWHVomu7GF/LEi8sorldN3sdF1JXR7jmlzVHSdUtNVtEnsplkRvQ8j61drOwC0UUUgCiiigAooooAKKKKACiiigAooopgFBIAJPQd6bLIkUbPIwVFGSScAV5r4o8YTavff2J4ZbfIx2y3C8hR3xTjFsErjvFl1eeLdV/sDRXKW6n/Spx0A9BWB4n+F8egxx6npLSTxwj97G3J/3hXqXhLw/BoOniJAGnfmWQ9WNbkqLJGyOoZWGCD3rqhHlIk76Hyt4i26jax/ZHDMDggdRVDVCqSaZpg4LMGb8K9N8b/D+007UzewNJDazt95D/q2Pr7V5Rr+jX+n6+ZGuPtEkGGjb+8DXRGsnK3UweHaV76HaH5I/QAVzelky6hdTHkFiBXVWvhbxTq1krRQRQCRfvMe1YV1oWpeFryO01REYzZKup61vGvGUkrmEcPOCcmWqKO1NrqJFBxSU4YI5ppGDQBFef6sVnk4rQu/9WKzzSJY3vS0UUAFKtJSrQA4dam0OWMeIELnAVDnPaoRVSxIF5dXEp2ovyg1hXdojR6Sro/3WB+hp9eeR+IYYZAY2lIHUhTitq38YWLW+WZmlHG0Dk154uRnT1FczLBEXYj6VzQvta1NsWkItoT/G45psnh/VLhsz6oQPQLQLk7ssJI1zexsxzlq6YV5/DZ6h/bSwaffmQRcu7IMKa3dNXX9T1d9Os2SZFwJJwMBKTdtWaqk5u0TVubyR51s9OTz71+AoGQPc12fhPwPHZzJf6y/2q/PIB+7H7AVqeEvCtroUW/HmXbfflbkk10mMZrlnVvoj0KNBU1ruY3iLS5NRtVjgvpLPb3QgVyU+mavo0DyxeKY2IGdswGD+tafiPw+Cs97fa1dQ2o5KKcACuD1H+wlsJnsrDUtR2g5kd220RVzouZ+t+NdR8SWVxpl3ZWr+U4H2iNu47isfStP0fUbmSLxDqklnJER5Xl8Ej1zVfw/Go0/zI02CRmbae3NXdA1jSNEu5n1rTFvS7fLJ1IHpivSnTVOj7pxRqc9XU7XR7bRo4vs+meJbtJwfkaVuCfxrY8UaDqOr+GfNvmh/tKyy8M8R++B60zRtU8G+I4VgFrHBI/AV02n8DXS65JaeG/CVxtdhCkZCb23dRXm3aZ2NK1mahridQH2r4kWITB8iBmb2rsriUQwu56KM1w/gdW1HxJqmquSVz5SfQVSOlneUUUUmUFFFFIApDS0YqhMSsPxBKquAxwFGSTW27BEZ2OFUZJrhr6K48UamYbctHpqHEj9C+OwoAzRFJ4kuWjh3JpsJ/eSf3z6CtVLaGKD7Oka+SBgLjtXRyWsGmaV9nto1RANoAFYRpk2OeurG60bzL3RLloio3NAx+Rq1LfxZrAtY5JtNR9yg/K9LrA/4llz/ALhplhj7Bb+yD+VdFGmqm5x4mtKlaxK3ibVbyBo0sRAWGA5bpVfTrEQbpZW8y4flmNWsgcinrya7KdGMNjzquInU3Y7NOFMHWnKeTWhzkq4696cORTFFPBwpoFcAafmoakByKQA7YxQDSMMkUmcHmgCSikBzStwwoAKKKKSGJu5rn7nTHj8Uw38CfK6bXI9a3iOadnIoaKTsZfiDTlv7Nh0lT5kPoawfBExW+u7aQD5hkqfXpXYEZFcx/Y8tp4rjvrfcYJARIPQ+tRKN3c0hU0aZb1KG70bfqOhSeVKnzNF/C4rY0H4oRvDF/btlJa7uPOQbkP8AhTpoxLE6NjawwfpXI6BJbi+vdImKTIp3KDzwe1c2Ippao68NPm0Z7fp+oWmowLNZTxzRkcFWzVo14d/Y13pdybvw5ePaS9TFnKN7YrodF+JU1pKtr4ptGt36faEGUPvXEdLg+h6hRVXT9QtdQgWaznSaNuhU5q1SZAUUUUgCiiigAooqtf31tYQNNdzJFGoySxxRuBZrm/FHi7TdAjIuJQ9x0WJOWJrjdd8f3uqzNaeFoSEPym6ccfhWJBpMOnxTahqcrXN1gu0spzzVWsWo9WY/jTxJ4h8S3NvZRsbO3nbHlIfm2+9eq/Dbwpb6HZoypmTbkuepNcf8PdJbU7p9Xuk/eTHEQP8ACtezW0QhhVB2FdMI2Im+hNRRRWhkVr+zhvrSS3uEDRSLgg188+MtBu9C194bti9tIP8AR5D6dhX0fmvO/jbBGfCguGQFoZAVb0pxS5rhurHP6N4khhgsLuW/x9mjMc0Hdj24rkfEWrS6/q7XkwIjGRGp7Cs+3CTQRy7VJYdakYeldNLDRjLmMqlZyXKN6cUUpoHSuw5gFIaM0GgCG7/1Yqg3atC8/wBWKzzSJYhpBS0CgBD0py0005aAFA4ra8L2lrfaU6XESuRIc5rHWtXwO5D6hCe0gIH4VzV/hH0LGq6Rd3EggsxBb2mMFlHzGptH8N2OnAPsEkx5LGtzNJXDclzdrDiABgYFZmv3v2DTnkXmRvlQeprRNc54zztsP7vnDNAo7lnRLT+ztFd2yZ3UyO3vXpHwt05LTw1FcYzLdEys3c5rjpIhLatGP4k25/Cr3hLxnb+HNL/s7Xy0YgyIpQMhl9PrWVVNrQ7sJNXdz1SszW9ZsdGtvOv7hIl7ZPJrzy9+I2o3rsNE04mA/dlk71514ql1W51e0uteuPMikJBQcKtZ06Lk7M6pV4x2Z6ZqfxY0Vy9vDaS3Z/ulMg1zOteOdS1iyezsLBLG1fhieDj2rmkewSZpUeMMRjipTfWv/PZPzr06eEpx1bOWeJm9EiS3j8qBYh0AxUvh7V/+EYvLie40+K/tJTkhlBZPpmqT6laL1nUn0FUbzVoZUEEIdmkIQHbxz710V1CULNmFKUoyuj3Dwb4n8PeJdotLOOGcDIR4gD+FQfGu2E/giYDI2sMAd/atvwl4fs7DR9P/ANHjFxHGPnA5yayPjJbXNx4RItRykqs3sK8HRS0PW6EnjbUvsuk3Ow4IQ0/4fWH2Hw7DuH7yX52P1rlvHc7nSJGHO51B+ma9A0YKNJtAv3fKXH5VZ0dS7RSLS0mWFFFFIAooooARlDKVYAqeo9aZFDHCu2JFRfRRipKZNIsUbO5wAKoRka9JyiA+5FY561NeTmednPc8VXoQFbVSBp0+f7tQaac6fD/u1X8U3Bi04xKf3kpCrVrT4zFYQo3UKM13YVaXPKx7WiJ1HFPBweKbSp15rsPNH9aVetIOKUEk0CJVbAp2eDTcYoPAqQEJpw44plOzzQA8dKQ84pAcUtAD+gpCcmgHAwadQMQUtJmlB4oAb3p1NNJnjmgBx6VGzBMsxAX1NY+q+IrWy/dqfNm6BV5Ncrp15r3jHWzp1hE9vAp/eOR0FRKaiawpOR1F/ez6pONN0Yb7mQ7Sy8hfeotc8ASeFdNg1u3lee7iObn0KnrXqHhTwtY+HrVVgTdcEfPKeSTW1e20d5aS286ho5FKsD71zVHznZTXJseU2ky3NtHMhyrjcKWe3inQpNGrqexFY+hB9M1C+0S4J32sh8vPdD0rcrhkrM7dzA/sObT5TPod5LaSZzsB+U/hW7o3j+/0uQQeJ7RjH0FzCMj8RS55psiJKpWVQynsRmpuFrnoWk65p2qQrLY3UUinsG5rSBB6V4nceHbVpDLZyzWk3UNE2Bn6VYtda8XaKAEmh1GAdpBhsVW5m4dj2So55ooIzJNIqIOpY4FeZH4mXwg8s6HOLvHqNn51gXv9veKXDa3cm2tM5FtCcfmaLAoPqdn4k+ItjZ7rbR1N/engBBlQfc1xU1hqfiKf7T4huWMfUW6HCitPTdKtNOjCW0Sr79z+NXh6Ur22LUUiK1tobWMRwIFQdgK5/XjJrOqQaNaMdhIedh2HpWxrWoppenSTty/3UHqe1XPhvoEgU3lyN11cHcxP8IPatIRbdxTlZHceFNOS1tl2rtRBtUYroqjgiWGMIg4FSV0o5m7hRRRTEFcH8aojJ4CvcdiK7yuH+MrY8C3i/wB5lH60AeISaXfaHYQTqrXFk6gkjkpUlvcRXCB4nBH8q9L06JW0qCORQymMAg8jpXI+JPBzRyte6GRHL1aH+Fq7ITcUc8rNmORSEcVStdQDytBdI0Fyn3kfj8qvYOK6U7mTTQi9DSU6kNMRDef6qs81oXX+qFZ5pEsSilxSUAFKtJSrQA9aueHpfs+tlf4Z1/UVTHajf5N5bTZwFcZ+lY1o3gNHfUUKdyg+ozTq84zExVDWbAahZmIna4+ZT6GtCqWq6lb6ZatNcuFA6DuaBx30MMeJG0+MW2oQSC7X5UCjiT3FIlnfa8ySakiQ2oOVi6k/Wq+hxya9qR1G8G2OM4ijI6D1rsAMDA6UFyko7biRRrDGscYAVRgYqK8tYL2ExXMYdPQ1NRQZ31MNvCmjt1tvyNOTwxpCdLVfxraoouVzy7mfDo2nQ/6u0iH4VJd6dBcWrQiNU7qVGMGrlKKBKTWpd8L/ABFtNNxpPiOQw3MQwkp6Ovajx7410/VdHk03R5PtM82ASoOAPrXAeONLt57u0uLlSI2PlM390noaittB1mxj8qwuLUQ4wshX5sVl7JXuehHFe5rueia9bR3WlTxSEAFSQfQ1u/DzUDqHhm3LEFof3ZPriuYk0y/1ZGNy/wBntiDhB94/Wtb4VW4tNEuLcMDsnYDn3qWtDup4iFSfLE7UsFBZjgAZJqlBq1jNny7qI4OCN2KukA5B6VhXfhTSrmRnaAozckoxFSdJtpKjjKOpHsaeCD0INcung61j4hvLyMeglNXbHQPscm5NQvHH91nyKNA1NuigDAxTqBjaxtdkl+VMYjPetmobqAXEJRqSEck3NJTpYzFMyN1BxSMQMnpTQHJawGfxZZpKf3WwkA+tdL2A9q5u8Zb/AMVwCIgrbLkn610h7Yr0sN8B4eNd6gtOHao++aevNdByD6VOtN6A5o75FAiYnNGeKiBJNKM0gHGgdajIOetOU4oAex9KXNNJ4pmTSAsjkUbuaiVmFI7GgCYtik3gAk8D3rP1HUYLCAyXDgeg7mucN1quvuVslNvan+Nupqblxi2b+o63aWXBk3yY4VRk1l7tX1oDyx9ltj3PXFamk+HbayUPJmacjln5puq3lxcXiaVo677uThiBwg9alt9TeEF0Mux0RJdQGnaQhmu2/wBbO3IQfWvYfC3h+10CwWGBQZTzJJjljUPg/wAN2/h+w2KA9y/zSSHkk10Nc7dzoSsFNkcRozN0FOrN1u48q12Dq3FIZ5H8SFez1q316AZUMI5sd1NaUMqywpIhyrDINWfHPkHwxffaMBNh596xPADNqnhGC5iJYxfu3HcYrmqrqdMGalFLQawNBKM0YoxQAdaWgCloASjOOT0FTW0ElxIEiQsx9BS+KkXRNIVeJNQum8qGMe/emldivY5mztn8UeKUiiXfZ2bcnszV7ZplklnAqqMHHNc/8PvDaaFpCeYAbmT53Pua6yu2MbI5pyuwoooqiAooooAK84+Nt4qeH7ay/juJ0AH416PXkPxQlN7410iwGGWP94R6Ypx3AvWsfl20a+igVKaWiulbHIzn/Enhey1xA0i+XcD7sq8EV59f2+o+HpvK1FDLadFnUZwPevYahu7WG8gaG5jV0YYIIpqTWw733PLoZUnjDxMGU9xT6v6z4RuNLd7jRT5kPVoD1/Csayvo7lnjYGOZeGRuCK3jNMlx7El1/q6oMBmtC5H7us5+GqyGJmkpTSEUCClWkoHWgCSknUNCwPXFA6USD92/0pMZpeGPEkbgWl+4SReFYnqK6kzwhQxlQA9814jrBICkHB3dRXT2elCW2hZ57hlKg7dxxXnVIKLKcE1c7DVfEtlYqUicTXB4VE55rlzDPqVz9q1Ikt/DH2UVPb2ENucpH83qetWqzsJWWxc0i4FrMB0Q8GumQq6BkOQa42rNvfTQDCNx6GkS1c6oilrCTWXxhox+FWYdWifiQFaCeU0qKiinil+44NTY460CsJTlptKDigCprFvDc6fNHcDKFT+Brl9F186aRZarnyl/1c3UY9DXQa7OEt9gPzNXIaqEawm3qD8p60zSCTVmeyatcfZtMuJs4KocV4vYahqVpdS3VheyRO7klc/KefSvWPF7hfD9yCeduK8ig+WFRXLUlY6cohe7Oz074m6zaAJfWUVyo/jU4NbVt8W7E8XWn3MR74Ga8z3c0ZzWSqHv8h7JafEvw7OmZLh4T6OhrRg8beHpuU1OL8eK8IaONhyqn8KYbaBusa/hT9ohezZ9AHxfoWR/xMoP++qZJ4x0FPvajD+dfP8A9it+6UfY7ftGKftEHs2e8S+PfDsf3tQj/AZqjd/E3w7brmO4knPoiGvGBbQf881/KpAiL91FH4UnUQ/Zs6zxB8RwzyS6bYSMp53SHGK5iXxFrWsxB2uPs8L/AMMfWqOottspiP7tO0wbbOIf7Ip8+hPs9bM3vhzvj1i7jkkaRioO5jk16R9K808FSeX4mZf76V6XjNerhvgPAxqtUEpynFM5zThXQcpJ1FH1/CkA4pccU0ALyaeTxUY4NPPIpMBhbmnDmmlaVcimBIelRk4NBOcYqhqmpW+nR7p2+Y/dUdTS0QJXL7SKiFnIVR1JrAvtdknuBaaRH50pOGkx8q1Elrf+IGDTbrWx7L0LV1GnabbWEIjt4wMd8cms5M1jC25kWPhxXcXGqyG5n6gH7q10EcaxqFjUKo6AU/FZGu6nJA8dnYoZb2XhUHb3pbI0Sb0QmqX8rzpp+mL5t7LwAv8AD7mu78FeGItBtPMlxJfy8yynrn0qv4G8JposRu7zEuozcu5/h9hXYVzylc6IxUQoooqRidq5nV7jzrpgOi8Cuhun8u3kb0FcXqV2lrbTXMpwqgkmkykch4hjl8QeJ7HRISTb5Elx/ujtW34Mto9J8ba1pVuoFq0ayhOwPSk+F2nPM97r90DvuWPl57JU3g5zqHjnXL9V/dKBCreuK5pu7sbLY09d0Qxs09suV6kelc7tOa9QZQwIIyDXP6toKy5ktQA/dT3rKxUZp7nIbaTFaUml3aNgxH8Klt9DvJTygQf7VIu6MkLnpzWxpeizXZDuNkfqa39P0K3tgGkHmP79K11UKoCgACmRKfYp2tpb2EB2KFCjJY1w/h62Pirxnc6vPlrCzPlW6noT3P6Vd+IOtyoItG03LXt2dmR/Ap6muo8K6RFoejW9nEOVXLH1bvW9KHUyk7I2AMDiiiiugyCiiigAooooAa7BVLHoBmvE4ZBrHjzUtR6xQfukNejfEPWV0bw1dShsTOu1B3JNcJ4QsfsWjRl+Zpz5shPXJ5q4K7Jm7I2BS0UVscwUUUUwCuX8UeFLfVM3Fr/o96ORIvf611FGKBp2PGbma506X7Hq0RjkHCydmpmQ3I5Fesazo9nq9sYbyJXHY45FeX654c1Hw9cF4N1zp5PbllrSNRrcUo32K+OaYaWGVJ0DxHI/lQwrZO5nYSlWkApelMQo606T/VP9Kao5pX/1T/SkwON1UZC/74/nXsukRRjS7QhFz5S9vavHtSHyH2avYNCbdpFmfWMfyrhrblSfulqSGJwQyL+VYWqaeYDvjGUP6V0JpGQSIVYZBrnuZpnG0Vd1O0NtNx9xulUKZY6kFJSZoAkVmU5UkGrtvqc8PBO4e9Z2admgDcTWlx88Z/CmT60Cp8pMH1NYuaTtSCyJJ5nnkLSMSazNbITTJyT/AA1fWuZ8dX/2bSmiX/WScfhTRcVqew/ECUx+H5+OvFeXDhBXonxOuANIjUHG5wPrXnp+7XFWO7J42ptjCaTPvQaSsD20Ln3pd1NooGO3UbvamZpaAF3UbqbmloAramGkspFUZJFWbQbYUX0UUg561KDiquTYveFoWbxTAykgBTmvUl4NeeeAgJNelJ/gjzXoh65r2cKvcPncc/3ojdaOKQ80Cuk4xxPy4pQflpvUDFKOlMAzT88Cmd6c3QUABNIDk0hqvqFylnZyTSHAUZo2BalLW9aj0xQiDzLl+EQdc1D4e0GS4m/tHVzvnblUPRRUHhLT21G5bVr1SSx/dq3YV2gGBWTdzdLlQKoVcAYA7UpwaKyNV1YW7ra2cZuL2ThY15x7mpbSGotk+r6h9kjWKEeZdynbHGOpNdP4H8K/2cv9oakPM1KUZJPOz2FM8GeEDYynUtWYT6jIOM9Ix6Cu27VhKVzojGyCiiipKCiiigDO1t9tmR3Y15j48naaC10uE/vryQLgenevRfEMm1Y17da8/wDC9uNd8dXN6fmt7IbEP+1Wc3ZGkUei6VZR2elwWqDCogXH4U7T9NtdORltIljDtubHc1bFFctx3YUUUUXACM0AYoozSAK53xd4iTR7dYoB5t9L8sUQ6k0vinxPb6LCEUedePxHCvJJqh4O8P3Et02ta6BJfSjKIeREPatYQbDZXZL4N8NzW9xJq2rnzNQn5wf+WY9BXZ0YorpSsZt3CiiimIKKKKACkPAyaWsbxbqyaPoV1ducFVIX60Aeb+OL0eJPF9tp8Lb7Oy+ebB4J9K1gAAAowBwBXO+CbR47KW+uB/pF25kP07V0dbxVkYVHdhRRRVEBRRRTEFFFFABTXCuCrDIPY06igDzrxb4PeJ31DRQQw+aSEdCK5W3uFnU8bZFOGU9Qa9tx69K4Xxp4TMrNqWkgJcry8fZxVxlyg1zHI4xSVHaXAnQ5BWReGU9Qamx81bp3IasKOlEn+rb6Uq0kn+rb6UMRyd4pdZFUZNereFpBJoNmQckJivNrNQ98FboTiu28GTGOW7s+THGcqfTPauPELqD1Vjp6UVFdpM0JFs6rJ2LDisN9P1yQkNqSIv8AsJXKQka2prG1o/mkDA4Jrlasz+HdSuQVuNUlZfQcU2HQrm0QqGaX3JzQXGy6kFJUkkTxnDqRUdNAFGaKKACiiigBO1eW+NdQc6vInUIMDPavUia808U6LdX+tz/ZI9xHJxSbsb0Vdns3xaciGyQdDIK5B2CpljgV2/xSj8zTLaUKCUmWuDks5dRmjtIG2l+T7CuStudWUy/c3I/NkmJFpC0xHXaKiYaomTJpswT1rprDw7qOlwEWF5GSOdrrnP41dstdZJRa6zD9nlPAb+Bvxrmcux6nPI4yG+hkYoW2SDqrcGrOa6TxL4UtdWi863AiuQMq68A1wrzz6VObe7Vvl6g9fqKqHvrQpVbfEa2KSkhlSaNXjIKmn0WNBtFOopFCDrUi9ajFSCmhM3/h6P8Aic3h9EAr0LNed/D19ms3Y/vKK9Er28N/DR83jf4rA9eKTtSnpSGug5BV6U4AdzTAeKcelACkZPBp+3jmolODUhbOBQA0rz1rnNbL6nqcGmxcxk7pMelb11IILeSVjgICazfBMInjn1BwS8rkKT6VMmaU11OktYEt4EijG1VGABUpooqDTcxfFVzqNvprHSoPOnbj6VhfD7XY/D3mXGu6bcyai7ZaTbuAHtXbGkKKeqg/hUuPMXGfKXIPipojf61biL/ejNWU+Jvhw9bpl+qmsZrWB/vwxn6qKibTLJvvWsJ/4AKj2RftUdLH8RfDT9NQUfUGrSeOPDzjI1KHHua41tH05utlB/3wKqXPhvTJjn7Mi/7oxS9mw9qj1LTNa0/U8/YbuKbHZW5rRrwqXwxJYyi60O5e2uU5XB4Psa7PwT46N5d/2Rr0YttSQYVj92X3FS4tFqSexP8AE/VRp2nuy8ysuxB6k1a+HWlHTPD0JkXE8/7yQnrk1zHiYnX/AIl2eljBt7YCaQeuK9PjUIoVRgAYFctSXQ2WiFooorAAooooAK4zxj4v+wSjTtKT7TqUnARedvuaTx/4ml0xoNN05Qb67O1WPRB61Q0UeHfCAe61fUoZtTl5kZm3MD7VtCnfUNtTQ8HeEJIJ/wC1NckNxqEnzYbonsK7oDAribX4neF7iTYL/Yc4yy4FdfZXlvewLNaTJNE3IZDkV0JW0M229yxRRRTEFFFFABRRRQAdK8q+K94+o6tYaHA3yswklx2Ar1C4lWGB5XOFQEmvFdDkk1jxLqWsTcx7zFEPYGqirsG7K50aII40ReFUYFOoPWiug5W7sKKKKBBRRRQAUUUUAFFFFABRRRQB5/478LvltU0lcTqMyRjo4rkbO4FxFuHDDhl7g17aQCCDyDXmPjfQf7JvTqdih+zSH96g6KfWqjLlY372hj0kg/dt9KcrKyhlOQRkU1/uNzW97kWMCzB+3rjrmuk8DXaQ6nqcd1KqOXBG444rm7Q4v1Poa1bDRrXUZLm4m3hy+AVOOKwqQdTRDSTvc9EW6gbpMh/Gl8+HP+tT864hfDluPuzTgezmn/8ACPW4/wCW85+rms/qsyeRdzsjdW46zR/99Cm/bbb/AJ7xj/gQrj/+EetSeXlP/AzS/wDCPWffzD/wI01g5i5F3OnurmwmiZXnizjruFcpd3NtDMymeMgdDmpV8PWHdH/76NDeHNOIOYf1NP6nPuUlFFJtUswP9en51E2tWKdZ1qO88PW1uSY4gU9+1VBY2y/8sU/Kk8M1uVaLLZ1+wH/Lb8hUT+JLMfcEjn2U1H9lgHSJPypREi/dVR+FCw3mO0SKfxC7Ifs1pIx/2qPDGrMJ5rqeAFn4PtU5UYIxVLSI12yrvUHceCa4sbS5IaHbg0uZnrXxFhB8Osw/hcH9a4rwYom1W4k6+WoA/Gu+8dR+d4ZvcfwrkVwHw1+f7fL6sBXLiVZXMcol7ljtqrX9jBfwGK5QMp/SrRpK85PU9k5WK6uvDt2tveM0unOcJKeqexq54n0O312w3R4E6jdG471rahZxX1o8EyhlcflXPeGrqTT9Ql0a8YkqMwsf4lrVPqhNdzhoYprDftyfLOJo/wC771qxssqB0OQea3/FFmtnqEOpKmYX/dzr2IPeubv7dtFvghJNlOd0beme1dllUhzImnU5JcjLGKTFLnPNFYHWIOtSLTBTxwCacSWzd8AwltWuZR90YFeiYHFcX8O482s8vcviuzFe5h1aCPmsXK9RjiBTCaeelJitzlEA6VJ0xTAKcDQMYR81Ox0o6mnY6UhGL4unKaWYozh5GCdetbmh2q2Wl28AH3VGfrXN6qpvvEVlaYJRD5jfhXZAAAAdqh6m8dELSd6WikMKKKKAAUuaSigAzQelFFAAOhrM1rRrfVYwJAUmTmOVeGU1p0UbjTszzn4b6mmjfEm/TX9QDOU2JLL3r3u21SxuBmC7hcezivmTx5aRp4ukLry6ZBrJjE0Dbre6niI/uua55YRz1izp9vFaM+vVZW+6QaWvlW08TeI7Ej7NqsrKOznNb1j8UPFFoR5xguF9+DWEsJURSqwfU+jM0V4T/wALm1Ux4/smPf67uKzL/wCKHia8Vli8i1U+gyalYao+g/aQ7nQfE60/t3x5Z2QkaNIItzFDyKpXHhC0tsMsZnPUs/JrL+F7X2pX9/qmpzNPKz7Q5r0c4NdlOnyqzMKk7vQ4CTR7FgQ9tH+VT6DqF54Ou/tWns8tgx/ewE5wPUV181jBKcsgz7VVm0eJ1IVsAjGDVShcmM7Hpegavaa3p0V5ZSB43HIzyD6GtOvDtHlvPA2qfaYd0+kzN++jXnZ7ivY9K1O01W0W4sZkliYZ4PT61i1Y2TT2L1FFFIYUUUUAcp8StWGk+Er2XIDuuxc+priPCFubXQbZWHzMN5+p5p/xium1DXNJ0WInaW8yQdsZrTjQRxoi9FAArWmupnVelh1FFFamAUUUUAFFFFABRRRQAUUUUAFFFFABUV1bx3Vu8Myho3GCDUtFMDxS48MTJrtzYNeyQqCWiGOoqVvAkpz/AMTOX8q7nxza+WlvqUY/eQMAxA6qabDIJYldTkMM5rysVVqU5aPQ9PDRhUjqtTg18AOrZGoyZ+lWrXwhd2gxDqb4znBFdrTa41i6q6nR7Cn2ObXRdRReL0E/Sq5h1q2choo509QcGusorSOYV4vcl4Wm+hyLanLB/wAfdnNEPXGRVm21O1uB8koz6Nwa6RlVxh1BHoRVK40mxnB3wICe4GDXbTzaa+JGE8DF/CykrK33WB+hp1VpPDKqWNrdSxMRwM5FQHTtZtseXNHcAdmGK7qeaUpb6HNLBVFsXmUMCCMg1g6pZ+S29PuH9KstqN7b8XljIMdSnIqnqes20kAXLIc87hiur6xSmtGY+xnHdFI0lNSWOT7jA/jTsHtSUkxWCuJ1Zmh1OURsRzng121cTr5C6rLnvXLi9YG9DR6H0rrkYudCu4/70R/lXnPwxiKadck/89CK6fRdVkewubG+OLqKNgCf4hjrWJ4BTbpMjf3pW/nXk4l3hdCy2nKnJwkdN1pKdTa849oZNIsMZdzgCvO/HF9Kl3aX1uNskbgfUV1OrXJlkMan5FNcl4sUPaQL3MoropRszKUuh0Wqail54cnWdcOYs/jUCWCa34Nt1cZk8vKN3BFU75caTMp7Rn+VN8I38ttpNsCdyY6V34RLVHNXb0ZjaZI4jaCfiaI7WBq7Ud5JFJrty8QwG5P1qSuerHlloehRlzQTFWlbiM00U5yPLNRHcuWx3ngaMJoqsOrMTXSrWN4Vh8rQrcY681tAcV7tL4EfK19ZsU8Cg9BTcnJpRyK1MhF5NPbp0pAMfWnc4oGIvWnZxk9qQdaraxOLXTZ5R1C4H1pMaV2ZXh0yX3iW/uyP3UY8pa6+sfwpa/ZdJjJGHk+dj7mtisjdhTe9OJAGTWIl28mpqM/KDjFMVjbopD1oFAC0UUUAFFFFABRRRxQB5j8V7YxahYXoBwf3bGuRY+9em/FK0+0+FppAPmhYOPzry2F98KN6gVrS7CqdyTNG6mMaTNbWMiYNUN7L5cDEfebhfrTgat+F9POt+JYYOsEH7x/Som7IuCuz1HwDpx03w1bRuoEjje31NdEKbGioiogwqjAp9c/Q1YUUUUEjXRXUq4BU8EHvXOtpup6FeNfeF59hbmS2b7jfSukoHBqXG5UZNF3w38Q7O6xba4n9nXw4xJwrfQ13MMqTIHidXQ8gqcivLdR0201CPZdwpIOxI5H41m2A1/wzIX0a5+1WY5NtMe3saycLbG0ZpntFNY7VJPQCuL8NfEHTtVnW0vEexv8AoY5eAT7Guj8Q3a2eiXdwx4SMkH8KixZ5Hav/AGz441TU5MFLdvJj/rXS1zPgJd2kyXJGGnlZ/rXTV0R2MKj1CiiiqMwooooAKKKKACiiigApM0tFABRRRQAUUUUAV7+2S7s5YJACrqRg1w2hs0Pn2MuRJbuRg+navQa4vxdamy1W31OLAR/3cvv71yYylzwudWFqckrFim0o5UEUteEz1xtFFFIAooooAKdTaKAAgHqBVWfT7ScHzYI2z6irlNqlJoVkzAu/CmmzkmOMwt6oayp/CF1EP9Evdw7CQV2lFawxNSGzIdKEt0eczaTrNty9sJl9UNcX4ktLp70yPazRjGOVr3qo5IY5BiSNWHuK3ePm1aRmsPGLujI8TaW99as9o5jukHysvf2qj8PGZNJe2m4nich1PWuo49RXP6zavYXa6pY4DLxNH/fWuWM248prypS5joagvphBbk9zwKLK6ivbZJ4GBRxkVna5L8yRjtUxjd6lN6GUxyxNYHiVi01lGO8gNbp6Vz+s/vNasI+27NdUdzFmlq8nl6XOf9giqehDGj2/+7mpvEZ26TP9KZowxpVsP9gV2YXqc9boZin/AInFwPar4rPj+bWrg9sYq5PKIUHBZ24VR1JrnrayPQw7tT1JsY71BJPFgr5ig5xjNZ8mm67cTrK9s32cfwKcHFatlaaKGEepWdzbyH+JycZ+tQrLVhOpfRHqOjNEmmW6LKrEKOhrSDVwUWgRNEr6VfSxgDghsipI9e1LRHEerQme37TJ1/GvSoYyEvdZ4lbCTXvI7gc5pw4FUNI1S01OHzLSUOO47itA9K7r9jhaa3E3DNODZNMxzT8UXAeOtc/4tn3fZLJT808g49hXQEkDiuVkcX/jm2jXlbZST7GoZpBana26COFEHRRipKKKRZDeNttnPtXMWrkXaHP8VdBqxxZOM9a5lOJFPfNAHZ0UyA5iUnuKfQgYUUUUwCiiikAUUUUAZ3iK2+16JeQf3oyK8Is/li8v+4Spr6GkXfGynoRivBL23Nnrmo2x/hlLD6GrpvUJK8SM00dacwoUV0GBFdSiKBj36CvUPhfoh07SPtUwxcXPzHPpXnmgae2ta/b2qgmGM75Pwr3WCNYYUjQAKowAK56ju7G0VZElFFFQMKKKKACiiigApaSjNAzP1bR7TUk/fIBKOVkHDKa47xrrHifS/D8mmSSfa7OQhFlx8yj0Neg5qOaGOddsyK6+jCpcUyozaMzwnbta+H7OJhghATWvSKAqhVGAOgpaolu7CiiigQUUUUAFFFUNVuvIhKqfnNAF/IPQ5orP0UN9nLOSSTnmtCgAooooAKKKKACiiigArM8Q2f23SLiLHz4yv1FadIwyCD0NKSurDi7O5xOlTGeyjLffUbW+oq0apWifZdTvrU8ANvUexq9XzteHJNo92k+eKY2iinViWNopcUlADqKQUGgBaKKbQAUUUUAFFFFAHl2Vzk61Jn/fpkiROpV9Ycg9fmru/wDhGNJ/59V/Kj/hGNJ/59l/KulVYmfIzk/C2rw6Ldiye5EttKfkb+6a3r2bz7hnBBHYirkvhfSnBAt1GR1HasG4t5NEuVgmJe2c4jc9vY0lKMndCaaRaNc/f8+JbMegroAawbkbvE0HshrWO5DJ/FBxo830pdI40y3z/cFQ+MCRo7gd6saeCthAD2Qfyrrw2xhW6GVaf8hC6PvVrw9Gb7xZHGxzHCu8iqtj811dsP79afw/j3+Ir6XrtXbXNW3Z2w/ho9FwAOOlRXNtDcoUnjV1PUEVLRXAUc1c6Rc6VJ9o0RyEzl4GPB+laGmapb6qjQzKFmHDxOOa1s1jaxoy3R+0WreTeL91l4z9a0Ur7it2KGqaJPp7G90FzFMOWjHRq1vCnin+0IxFqCiC6U7SD0JqromsNLMbHUF8u8T16MPaqnibSdhN/aLhh/rFXqR6iu7D4uVP3Zao5a+GjUV1uehR4IBp/HpXFeEvEZ+S01BvvcRy9m9j712owRkHivXjNTV0ePOm4OzCRgkLsTjAzXLeBYvtWralftzlyoNbPiK4FtpFy57Iag+HlsYfDsTuMNKxc++TSe5UFZXOmooopgZfiBttqoB6mue9D3ra8RtxGtYh6Uh9DsLM5toyfSpqracc2cRPpVmmJhRRRQAUUUUAFFFFABXi3xHiFl4vEnRZkya9pryr402v72wuQOAdpNEdGNdjleGGQeDUV1L5MBYcnoB6mqMNw8XfK1veDdNbxJrkYVT9ktzukJ7muiU7IzjDU7/4Y6J/Z2k/ap1/0m4+Yk9QPSu1pkMaxRqiDCqMAU+uc0buFFFFAgooooAKKKKACiiigAooopgFFFFIAooooAKQ0tIaAAkAZJ4rmr6U3N7heRnArY1WfyLRjnk8CsrRYTLceYwyooA3raMRRKg7CpaQUtABRRRQAUUUUAFFFFABRRRQBwHxAmn0nUbe+tYw4lGxgfWue/4SjUFAzYj/AL6rufiHYLe+H3z1jIfPeuQs/DFnPaxSeZN8y5++a8vGRipXZ6eFk5Rsip/wlN9/z4j/AL6oPiq/xxYjP+9WgfCNl/z1m/76pP8AhDrL/npP/wB9muHmpnXaRm/8JVqP/Pkv/fVI3irUscWaf99VqDwhYd3mP/AzSf8ACH2H96b/AL7NHNTC0jJ/4SrU/wDn0T/vqk/4SzUv+fWP/vqtf/hDtP7tN/32aP8AhDtN9Jf++zRzUwtIyh4s1H/n0j/76p3/AAlt+Otkv/fVaTeDdN7eaP8AgZo/4QvT/wC9L/31RzUxWkZv/CXX2f8AjyH/AH1Tv+Etvdv/AB4c/wC9V4+DLA9GlH/A6D4Lssf6yb/vs0c1MLTKH/CW33/PiP8AvoUHxbff8+I/76q9/wAIXZf89Jv++6cPBdjj/WTf990c1MLSOmooorA0Cqup2UV/aPBKMgjg+hq1RTTsBwdo8lvO9jdjE0Z4J/iHrVB/+RpTPaI12PiPSft0SzW+FuouVb19q8/t7ppvFKrIjJKibGB9a6qb5rmLVmXPGbY03b6sP51eiGLSMf7A/lWZ41OLWEesgrUUYtl9kH8q7sKvdZy1t0Yekso+07iB855NbXwzIbUdRYHIz1rjoVVprje77Qx+Ud67T4WRqv25lGBuxXLX2Z2Rfuo76iiiuA0CiilFAXMnXNKW/jEkR2XUfMcg9aboWqG7V7W7Hl3kXyup/i9xWzXNeJ7F49up2eVuIOTj+Je4q4voS+5BrWnDT5DPEhezc5kQdUP94Vo6F4iexmht7xvMtJf9VP6exq7p11DqmnJKuGRxgg1zMFtGt/d6Pcf6t/3kB/u/SuuhXlB6mFejGojpfiHd40mOGMg+ewUY711mhw/Z9ItIsY2xgV5Pp7Xup+IrPR7zLG1bdu9VFeyoNqqo6AYr2ISU1dHlzjye6RX9z9lsppyMiNS2PXFM0y8S/sIbmMYWRc4qW7jE1rLGwyGUisLwLJnRmt8/NbytGfbmr6kdCTxEPnjNYNxOkELSSHCL1NdF4jX5Im965PXUMmj3SjrsJpMEd7Y4+xxbTkFQQas1i+Drk3fh2ykbrsAP4VtUAwooopiCiiigAoopBQAtcR8WrXz/AA00mOY2DV2xrH8X2f23w7eQ4yShIoY4nz6Q8gSOIFpJMKoHUk17t4B0EaDoUURH7+Qb5D715x8KtCe/1r7bdJ+5tDgZ7tXtlF7jegUUUUEhRRRQAUUUUAFFFFABRRRQAUUUUAFFFFABRSEgdaWgApDS0yVtkTN6CkM4rx/qLLHHawH95IwQAdc10+hWxttNhV/v7RuNchZxrrPjHJG6O0G4+mT0rvwMDA6U0D0AUtFFAgooooAKKKKACiiigAooooAqatD9o06ePGSUIFcX4dctY+Wx+aNip/Ou+blSPUV57pYMOr6lAeAJMgVw46N4XO7BS95o16KKQ14tj0wzRmkopALmjNJRQAppabRQA6im0UALmkoooAKKKKACiiigArjfFmj+ReJq9qm5k4kUdx612VI6LIjK4BUjBBq4ScXcTVzyfxZPHcWlk0bAh5Aa2yP9F/4B/SsPxxos2napbvDn7Ez7sdlOa3G5tM/7Fevh2uXQ4ays9TmtDhRzcuwyd5rrfhquEv8A/rpXMaBjyrj/AHzXWfDcf6Len1lNcVfqdqXuxOzptOptcRTClFJTJpBFGXboKAK+oXn2ZQFwWNYlxdyzIys52sMEU25mMsrMxqLiuiEUtzKUih4P1Eafc3ljLkqrbl9s1J4yukgurHUrdsGNwG+lZwXy/FPAwHjqbXLY6oq6fb5ed2HTtW8ad5Kxm52R1Xw4X+0PEOo6kVG1UVFbHrXo9Y/hTRYtE0mK3jGXwC7eprYr16UeWNjyqsuaVw+tcv4fBtPE2rWpICyETKPr1rqK5XVSLPxhYz4+WdDGx96sUTV19SbQN6GuT1Eb7CdR3Q12mrDNjJ3rkLjmBx6g0hIt/CyYzeGEVuTG7LXY1wXwlkP9m3kR/gnau9oKluFFFFMgKKKKACiiigApsiB42RujDFOooBaGVoOiQaKkyW7lllcuQe1atFFA27hRRRQIKKKKACiiigAooooAKKKKACiiigAooooA5rxvfSWlnBHA22SaRVB/Guht8i3iDHLbRk1yfjAhtd0eJhlTJurr+w4xSW5T2HVmeILkWumzSZx8taR4FcX8R7wiyS0hP72ZggH1oewRWofDW3JtLq+cfPcSEg+oFdpWb4dsRp2kW1sOqLz9a0qaFLcKKKKBBRRRQAUUUUAFFFFABRRRQAVwNyvk+LblezqDXfCvNPG0F4fFMLafKI5Smeehrmxceamzpw0rTN+kNcuuuajYNt1SxYp3ki5Fa9hrNlfAeTMN3dW4IrwnBo9dNM0KKBz0p1QMKbS5pKACiiigAooooAKKKKAP/9k=;fontSize=13;" vertex="1" parent="1">
          <mxGeometry x="190" y="310" width="60" height="60" as="geometry" />
        </mxCell>
        <mxCell id="X5dV8ayuIPw5LhitXocs-3" style="edgeStyle=orthogonalEdgeStyle;rounded=0;orthogonalLoop=1;jettySize=auto;html=1;fontFamily=Helvetica;fontSize=13;fontColor=default;strokeColor=#7EA6E0;" edge="1" parent="1" source="X5dV8ayuIPw5LhitXocs-5" target="X5dV8ayuIPw5LhitXocs-8">
          <mxGeometry relative="1" as="geometry" />
        </mxCell>
        <mxCell id="X5dV8ayuIPw5LhitXocs-4" style="edgeStyle=orthogonalEdgeStyle;rounded=0;orthogonalLoop=1;jettySize=auto;html=1;exitX=1;exitY=0.5;exitDx=0;exitDy=0;entryX=0;entryY=0.5;entryDx=0;entryDy=0;fontFamily=Helvetica;fontSize=13;fontColor=default;dashed=1;endArrow=none;endFill=0;strokeColor=#D79B00;" edge="1" parent="1" source="X5dV8ayuIPw5LhitXocs-5" target="X5dV8ayuIPw5LhitXocs-15">
          <mxGeometry relative="1" as="geometry" />
        </mxCell>
        <mxCell id="X5dV8ayuIPw5LhitXocs-5" value="Blur" style="rounded=1;whiteSpace=wrap;html=1;fontFamily=Helvetica;fontSize=13;strokeColor=#d79b00;fillColor=#ffe6cc;" vertex="1" parent="1">
          <mxGeometry x="170" y="420" width="100" height="40" as="geometry" />
        </mxCell>
        <mxCell id="X5dV8ayuIPw5LhitXocs-6" style="edgeStyle=orthogonalEdgeStyle;rounded=0;orthogonalLoop=1;jettySize=auto;html=1;exitX=0.5;exitY=1;exitDx=0;exitDy=0;entryX=0.5;entryY=0;entryDx=0;entryDy=0;fontFamily=Helvetica;fontSize=13;fontColor=default;strokeColor=#7EA6E0;" edge="1" parent="1" source="X5dV8ayuIPw5LhitXocs-8" target="X5dV8ayuIPw5LhitXocs-11">
          <mxGeometry relative="1" as="geometry" />
        </mxCell>
        <mxCell id="X5dV8ayuIPw5LhitXocs-7" style="edgeStyle=orthogonalEdgeStyle;rounded=0;orthogonalLoop=1;jettySize=auto;html=1;exitX=1;exitY=0.5;exitDx=0;exitDy=0;entryX=0;entryY=0.5;entryDx=0;entryDy=0;fontFamily=Helvetica;fontSize=13;fontColor=default;endArrow=none;endFill=0;dashed=1;strokeColor=#01B177;" edge="1" parent="1" source="X5dV8ayuIPw5LhitXocs-8" target="X5dV8ayuIPw5LhitXocs-16">
          <mxGeometry relative="1" as="geometry" />
        </mxCell>
        <mxCell id="X5dV8ayuIPw5LhitXocs-8" value="Resize&lt;br style=&quot;font-size: 13px;&quot;&gt;(Downsampling)" style="rounded=1;whiteSpace=wrap;html=1;fontFamily=Helvetica;fontSize=13;strokeColor=#82b366;fillColor=#d5e8d4;" vertex="1" parent="1">
          <mxGeometry x="170" y="540.63" width="100" height="40" as="geometry" />
        </mxCell>
        <mxCell id="X5dV8ayuIPw5LhitXocs-9" style="edgeStyle=orthogonalEdgeStyle;rounded=0;orthogonalLoop=1;jettySize=auto;html=1;fontFamily=Helvetica;fontSize=13;fontColor=default;strokeColor=#7EA6E0;startArrow=none;" edge="1" parent="1" source="X5dV8ayuIPw5LhitXocs-11" target="X5dV8ayuIPw5LhitXocs-13">
          <mxGeometry relative="1" as="geometry">
            <mxPoint x="220" y="670" as="sourcePoint" />
          </mxGeometry>
        </mxCell>
        <mxCell id="X5dV8ayuIPw5LhitXocs-10" style="edgeStyle=orthogonalEdgeStyle;rounded=0;orthogonalLoop=1;jettySize=auto;html=1;exitX=1;exitY=0.5;exitDx=0;exitDy=0;entryX=0;entryY=0.5;entryDx=0;entryDy=0;dashed=1;fontFamily=Helvetica;fontSize=13;fontColor=default;endArrow=none;endFill=0;strokeColor=#D6B656;" edge="1" parent="1" source="X5dV8ayuIPw5LhitXocs-11" target="X5dV8ayuIPw5LhitXocs-17">
          <mxGeometry relative="1" as="geometry" />
        </mxCell>
        <mxCell id="X5dV8ayuIPw5LhitXocs-12" style="edgeStyle=orthogonalEdgeStyle;rounded=0;orthogonalLoop=1;jettySize=auto;html=1;exitX=1;exitY=0.5;exitDx=0;exitDy=0;entryX=0;entryY=0.5;entryDx=0;entryDy=0;dashed=1;fontFamily=Helvetica;fontSize=13;fontColor=default;endArrow=none;endFill=0;strokeColor=#6C8EBF;" edge="1" parent="1" source="X5dV8ayuIPw5LhitXocs-13" target="X5dV8ayuIPw5LhitXocs-18">
          <mxGeometry relative="1" as="geometry" />
        </mxCell>
        <mxCell id="X5dV8ayuIPw5LhitXocs-13" value="JPEG&lt;br style=&quot;font-size: 13px;&quot;&gt;Compression" style="rounded=1;whiteSpace=wrap;html=1;fontFamily=Helvetica;fontSize=13;strokeColor=#6c8ebf;fillColor=#dae8fc;" vertex="1" parent="1">
          <mxGeometry x="170" y="780" width="100" height="40" as="geometry" />
        </mxCell>
        <mxCell id="X5dV8ayuIPw5LhitXocs-15" value="&lt;p style=&quot;line-height: 1.5; font-size: 13px;&quot;&gt;Gaussian filter&lt;br style=&quot;font-size: 13px;&quot;&gt;- isotropic&lt;br style=&quot;font-size: 13px;&quot;&gt;&amp;nbsp; &amp;nbsp; - anisotropic&lt;/p&gt;&lt;p style=&quot;line-height: 1.5; font-size: 13px;&quot;&gt;&lt;span style=&quot;background-color: initial;&quot;&gt;2D sinc filter&lt;/span&gt;&lt;/p&gt;" style="rounded=1;whiteSpace=wrap;html=1;fillColor=#f9f7ed;strokeColor=#D79B00;dashed=1;fontSize=13;" vertex="1" parent="1">
          <mxGeometry x="314" y="392.5" width="100" height="95" as="geometry" />
        </mxCell>
        <mxCell id="X5dV8ayuIPw5LhitXocs-16" value="&lt;p style=&quot;line-height: 1.5; font-size: 13px;&quot;&gt;Resize&amp;nbsp; &amp;nbsp; &amp;nbsp; &amp;nbsp; &amp;nbsp; &amp;nbsp;&amp;nbsp;&lt;br style=&quot;font-size: 13px;&quot;&gt;- bicubic&amp;nbsp; &amp;nbsp;&amp;nbsp;&lt;br style=&quot;font-size: 13px;&quot;&gt;&amp;nbsp; &amp;nbsp; - bilinear&amp;nbsp; &amp;nbsp; &amp;nbsp; &amp;nbsp;&amp;nbsp;&lt;br style=&quot;font-size: 13px;&quot;&gt;- area&amp;nbsp; &amp;nbsp; &amp;nbsp; &amp;nbsp; &amp;nbsp;&lt;/p&gt;" style="rounded=1;whiteSpace=wrap;html=1;fillColor=#f5fbf4;strokeColor=#01b177;dashed=1;shadow=0;fontSize=13;" vertex="1" parent="1">
          <mxGeometry x="314" y="514.38" width="100" height="92.5" as="geometry" />
        </mxCell>
        <mxCell id="X5dV8ayuIPw5LhitXocs-17" value="&lt;span style=&quot;font-size: 13px;&quot;&gt;Gaussian nose&lt;/span&gt;&lt;br style=&quot;font-size: 13px;&quot;&gt;&lt;span style=&quot;font-size: 13px;&quot;&gt;Poisson noise&amp;nbsp;&lt;br style=&quot;font-size: 13px;&quot;&gt;&amp;nbsp;&lt;/span&gt;&lt;br style=&quot;font-size: 13px;&quot;&gt;&lt;span style=&quot;font-size: 13px;&quot;&gt;Color noise&amp;nbsp; &amp;nbsp; &amp;nbsp;&amp;nbsp;&lt;/span&gt;&lt;br style=&quot;font-size: 13px;&quot;&gt;&lt;span style=&quot;font-size: 13px;&quot;&gt;Gray noise&amp;nbsp; &amp;nbsp; &amp;nbsp; &amp;nbsp;&lt;/span&gt;" style="rounded=1;whiteSpace=wrap;html=1;fillColor=#fff9e5;strokeColor=#D6B656;dashed=1;shadow=0;align=center;fontSize=13;" vertex="1" parent="1">
          <mxGeometry x="314" y="638.75" width="100" height="92.5" as="geometry" />
        </mxCell>
        <mxCell id="X5dV8ayuIPw5LhitXocs-18" value="JPEG" style="rounded=1;whiteSpace=wrap;html=1;fillColor=#DAE8FC;strokeColor=#6C8EBF;dashed=1;shadow=0;align=center;fontSize=13;" vertex="1" parent="1">
          <mxGeometry x="314" y="753.75" width="100" height="92.5" as="geometry" />
        </mxCell>
        <mxCell id="X5dV8ayuIPw5LhitXocs-19" style="edgeStyle=orthogonalEdgeStyle;rounded=0;orthogonalLoop=1;jettySize=auto;html=1;fontFamily=Helvetica;fontSize=13;fontColor=default;strokeColor=#7EA6E0;" edge="1" parent="1" source="X5dV8ayuIPw5LhitXocs-20" target="X5dV8ayuIPw5LhitXocs-22">
          <mxGeometry relative="1" as="geometry" />
        </mxCell>
        <mxCell id="X5dV8ayuIPw5LhitXocs-20" value="Blur" style="rounded=1;whiteSpace=wrap;html=1;fontFamily=Helvetica;fontSize=13;strokeColor=#d79b00;fillColor=#ffe6cc;" vertex="1" parent="1">
          <mxGeometry x="480" y="420" width="100" height="40" as="geometry" />
        </mxCell>
        <mxCell id="X5dV8ayuIPw5LhitXocs-21" style="edgeStyle=orthogonalEdgeStyle;rounded=0;orthogonalLoop=1;jettySize=auto;html=1;exitX=0.5;exitY=1;exitDx=0;exitDy=0;entryX=0.5;entryY=0;entryDx=0;entryDy=0;fontFamily=Helvetica;fontSize=13;fontColor=default;strokeColor=#7EA6E0;" edge="1" parent="1" source="X5dV8ayuIPw5LhitXocs-22" target="X5dV8ayuIPw5LhitXocs-24">
          <mxGeometry relative="1" as="geometry" />
        </mxCell>
        <mxCell id="X5dV8ayuIPw5LhitXocs-22" value="Resize&lt;br style=&quot;font-size: 13px;&quot;&gt;(Downsampling)" style="rounded=1;whiteSpace=wrap;html=1;fontFamily=Helvetica;fontSize=13;strokeColor=#82b366;fillColor=#d5e8d4;" vertex="1" parent="1">
          <mxGeometry x="480" y="540.63" width="100" height="40" as="geometry" />
        </mxCell>
        <mxCell id="X5dV8ayuIPw5LhitXocs-23" style="edgeStyle=orthogonalEdgeStyle;rounded=0;orthogonalLoop=1;jettySize=auto;html=1;exitX=0.5;exitY=1;exitDx=0;exitDy=0;fontFamily=Helvetica;fontSize=13;fontColor=default;strokeColor=#7EA6E0;" edge="1" parent="1" source="X5dV8ayuIPw5LhitXocs-24" target="X5dV8ayuIPw5LhitXocs-25">
          <mxGeometry relative="1" as="geometry" />
        </mxCell>
        <mxCell id="X5dV8ayuIPw5LhitXocs-24" value="Noise" style="rounded=1;whiteSpace=wrap;html=1;fontFamily=Helvetica;fontSize=13;strokeColor=#d6b656;fillColor=#f9e29f;" vertex="1" parent="1">
          <mxGeometry x="480" y="665" width="100" height="40" as="geometry" />
        </mxCell>
        <mxCell id="X5dV8ayuIPw5LhitXocs-25" value="JPEG&lt;br style=&quot;font-size: 13px;&quot;&gt;+ 2D sinc filter" style="rounded=1;whiteSpace=wrap;html=1;fontFamily=Helvetica;fontSize=13;strokeColor=#6c8ebf;fillColor=#dae8fc;" vertex="1" parent="1">
          <mxGeometry x="480" y="780" width="100" height="40" as="geometry" />
        </mxCell>
        <mxCell id="X5dV8ayuIPw5LhitXocs-27" value="" style="shape=curlyBracket;whiteSpace=wrap;html=1;rounded=1;flipH=1;fontFamily=Helvetica;fontSize=13;fontColor=default;strokeColor=#d79b00;fillColor=#ffe6cc;" vertex="1" parent="1">
          <mxGeometry x="600" y="440" width="40" height="360" as="geometry" />
        </mxCell>
        <mxCell id="X5dV8ayuIPw5LhitXocs-30" value="Second order" style="rounded=1;whiteSpace=wrap;html=1;fontFamily=Helvetica;fontSize=13;fontColor=#333333;strokeColor=#666666;fillColor=#f5f5f5;" vertex="1" parent="1">
          <mxGeometry x="650" y="610" width="100" height="20" as="geometry" />
        </mxCell>
        <mxCell id="X5dV8ayuIPw5LhitXocs-31" value="" style="shape=image;verticalLabelPosition=bottom;labelBackgroundColor=default;verticalAlign=top;aspect=fixed;imageAspect=0;image=data:image/jpeg,/9j/4AAQSkZJRgABAQEAAQABAAD/2wBDAAYEBQYFBAYGBQYHBwYIChAKCgkJChQODwwQFxQYGBcUFhYaHSUfGhsjHBYWICwgIyYnKSopGR8tMC0oMCUoKSj/2wBDAQcHBwoIChMKChMoGhYaKCgoKCgoKCgoKCgoKCgoKCgoKCgoKCgoKCgoKCgoKCgoKCgoKCgoKCgoKCgoKCgoKCj/wAARCAKAAoADASIAAhEBAxEB/8QAHwAAAQUBAQEBAQEAAAAAAAAAAAECAwQFBgcICQoL/8QAtRAAAgEDAwIEAwUFBAQAAAF9AQIDAAQRBRIhMUEGE1FhByJxFDKBkaEII0KxwRVS0fAkM2JyggkKFhcYGRolJicoKSo0NTY3ODk6Q0RFRkdISUpTVFVWV1hZWmNkZWZnaGlqc3R1dnd4eXqDhIWGh4iJipKTlJWWl5iZmqKjpKWmp6ipqrKztLW2t7i5usLDxMXGx8jJytLT1NXW19jZ2uHi4+Tl5ufo6erx8vP09fb3+Pn6/8QAHwEAAwEBAQEBAQEBAQAAAAAAAAECAwQFBgcICQoL/8QAtREAAgECBAQDBAcFBAQAAQJ3AAECAxEEBSExBhJBUQdhcRMiMoEIFEKRobHBCSMzUvAVYnLRChYkNOEl8RcYGRomJygpKjU2Nzg5OkNERUZHSElKU1RVVldYWVpjZGVmZ2hpanN0dXZ3eHl6goOEhYaHiImKkpOUlZaXmJmaoqOkpaanqKmqsrO0tba3uLm6wsPExcbHyMnK0tPU1dbX2Nna4uPk5ebn6Onq8vP09fb3+Pn6/9oADAMBAAIRAxEAPwDPGkWB/wCXG1/78r/hTxpGn/8APha/9+V/wrTVD6U7yznpVWIRmjR9O/58LX/vyv8AhS/2Np3/AD4Wn/flf8K1fLPpTglSNMyP7G07/nwtP+/K/wCFZN/pVispC2VsP+2S/wCFdbsrF1Ff3xpx3FLY5xtNs94/0S3/AO/YrO1LT7RSNtrAPpGK6Irlqy9UX5hWhMXqXND0qxawRms7djzyYlP9K0TpFhgf6Da/9+V/wp/h9P8AiWx1pmPgVzy3OhIyP7IsP+fG1/78r/hTLrSbAWe4WVtnP/PJf8K2fL4qK8TFj+NOO4pbHPrpdiVH+h2//fpf8KtWGlWLTfNZWxGO8S/4VYRflFXdNQGfHtWttDBPUZ/Y2n/8+Fp/35X/AAo/sbTv+gfaf9+V/wAK2PLo8uoNTH/sbT/+fC1/78r/AIUf2Pp//Pha/wDflf8ACtjy6Qx0CZjHR9P/AOfC1/78r/hSHRtPx/x42v8A35X/AAra8ukMdMkwjo2n/wDPja/9+V/wpraPYY/48bb/AL8r/hW4Y+aa0WaaJZg/2RYD/lxtf+/K/wCFNbSLA/8ALlbf9+V/wrb8rmjyvarFqYR0ixH/AC5W3/fpf8KQ6RY/8+Vt/wB+l/wrdaKozFzQF2Yh0ix/58rb/v0v+FNOk2P/AD5W3/fpf8K3jCKYYfmoFqYY0mx/58rb/v0v+FL/AGRY5/487b/v0v8AhW0Ysdqd5dAamIdIsP8Anztv+/S/4Uo0iw/58rb/AL9L/hWz5dOWKgd2Y6aPY/8APlbf9+l/wqQaPYf8+Nt/36X/AArXEVOEfFA0ZA0ew/58bb/vyv8AhS/2PYf8+Nt/35X/AArZEdL5dAXMb+x7DH/Hjbf9+V/wpTo9gFP+g2vT/niv+FbIi4oeP5G+lIDgodNs/tkg+yQY/wCuY/wq7/Zll/z52/8A36X/AAqSFP8AT5MVe2VbRF2R6bpNgwO6ytj9Yl/wrQ/sbT/+fC1/78r/AIVLpScN9a0/LzWcjSD0Mf8AsfTv+fC1/wC/K/4Uf2Pp3/Pha/8Aflf8K2PLo8upKuY/9jad/wA+Fr/35X/Cg6Pp/wDz4Wv/AH5X/Ctjy6Qx0CMU6Pp//Pha/wDflf8ACmto+n9rG1/78r/hW0Y6aY6aJMM6PYf8+Nr/AN+V/wAKjOj2H/Pjbf8Aflf8K3TFTTFirFdmH/Y9gP8Alytv+/S/4U3+yLDP/Hlbf9+l/wAK2zFk0CHFAXZif2PYf8+Vt/36X/CkGkWP/Plbf9+l/wAK3fJpfJApXDUwv7Hsf+fK2/79L/hR/Y9j/wA+Vt/36X/CtzyaPKoQamH/AGPYf8+Vt/36X/CmnSLD/nytv+/S/wCFbvlUwxUwuzFOkWP/AD5W3/fpf8KcNHscf8eVt/36X/CtnyqXyaB6mP8A2PY4H+hW3/fpf8KP7HsP+fK2/wC/S/4VteV7UoizQGpjLo9if+XK2/79L/hUg0ew/wCfG1/78r/hWysWBS+XUlHDeKdMs4mh8u0gXP8AdjA/pWbe6faiyUi2hBx1EYrpPFqZlhHtWXfx/wCgD6VrFaGTepzmlWduzpugiPzd0Fb7adZ/8+sH/ftf8KzdGT51/wB6uiZf5USQJnKvZW2W/wBHh6/3BVjTbG1adc20JHvGKlZeW+tWdKT/AEhKhnTEv/2ZZf8APnb/APfsf4Un9mWWf+PS3/79itUx8ijysVkaGV/Ztl/z6W//AH7H+FKdMs+MWlv/AN+1/wAK0xH1o2c8UDM3+zLMf8udv/36X/Cl/s2yz/x52/8A36WtMJSGPk0AZv8AZll/z52//fof4Un9m2X/AD52/wD36WtNUNBjpBYzDpdl/wA+lv8A9+hQdMssf8elv/36X/CtIrRs4phY0f7Rf+5R/aMn92qoHtSfhW9kcPMy4NSk9BThqUo/hFUce1LijlQczLz6q5jYBACe9ZzuzglySaeBmmlO1HKg5myv3rN1Bf3ozWvtAcVQ1Nf3gxSaKhub3h9P+JZF+NaZj+UVV8OJnTI/xrUKcCuaW51IpBKZep/oP41e2VFfx/8AEvz70R3JlsYagYFXdLA+081CEwoojyGJHBrptc5b2Z0G1fUUbRWQHkxy5p4Lf3j+dRyGnOae0UbR6issk/3j+dKGb+8aOUOc09opCg9azssP4jSFm/vH86fKLnNExj2pvlD1FZ+5/wC8fzo3v/eNHKHMi/5Qz1FBh+lUN79mNG9v7xosHMi6Yc9xTTBz1FU/MYfxGjex/iNOwuZFw2/vTTB7iqpdv7xpC7/3jRYLoufZs9xSfZ8HqKph2H8RoLserGiwroufZx6infZx/eFZ+8/3jSeYc/eNFgujTEIx1FL5SgdRWZ5rHjJppc460WDmNXYncigInYj86yNxzyxpN5H8RpWHzG00YA4I/OmyINjAEZxWOZWxwxpvmuScsaLBzGVbKRfyZHGavNtAoOCxNNIzWhmaWksmwjOGz0rVAGOo/OuaX5TkGpRK2Mbj+dQ1c0i7I6D5fUUfL/eFc/5hx1P50m8+p/Olyj5joTt9R+dHyf3hXPeYfU0nmH1NHKLnN9in94fnRtX+8K58uT3pfMb+8fzp8ocxuHZnqKNsZ/iH51glif4jSZPqaLBzI3wif3hSbE/vD86w97eppMt6miwcxvlE/vD86aRGP4hWFk56mkz7mjlFzG7+6/vD86P3X98fnWF+Jo59TRyhzG5+5/vj86Q+Sf41/OsQfjRiiwcxtgQ5++v50791/fX86wqMUco+Y3f3Wfvj86AIs/fFYeD60c+tHKHMb/7r++PzpN0Q/wCWi/nWDz60hHuaOUOYreJNst0m05GO1Zd+P9BwRjFbLxg9RmqGrp/obYrRdiHqc7o4/eJ/vV0hXisPRk+aPjvXROmEJ9qJAjm3Xlqs6SublKjdc5q3pK/6UlZvY6obm+U5FIyGrezNIU4rE1Kqp7UFMVa2ZpClMZXCUbOTVpY+aUx8mgCoExSbKtlOBSFKAKpSgpxVkpRs4oA1/KsfQ0vk2HoagVOKNlann8xYEVgf4TSGCx/u1DsBp2zNAcxKLex/u0jQ6eTgofzqMRkUhjzQHMKbHTmO7LD8aztasbBbVpInO/sDV5ospgHBrL1OPZbNkg0Fxlqanh1P+JXF+Napj4BFUPDALaYn1rZKfKormludUSlsyajvo91hjtuq9spl2n+gMacNxPZmQIrMgAykHFIsFmCcyk1VSIYPFNMWD6V0nG5F8x2h/wCWrVIIrPj96ayymRSbSDRYOY1TDaH/AJbGgQ2g/wCWxrKIIpQDRYOY1vJtT/y2NNMFr/z3NZRBzS80WDmNPyLX/nuaPs1qf+W5rKyaOfenyi5jV+z23a4o+y2xH/HwKyufekOaOUObyNf7Jb/8/C0n2O3/AOfhayecdTRk460WDm8jV+xQnpcrR9giz/x8JWRlvejLe9Fh83ka/wBgi73KfnR/Z8R6XCVkZPfNKMjufzpWC/kan9nR5/4+EpDp0Xe5jrGubhbdC8jYH1rMVr7VGxbZjh/vmplJR3LhHm2Rt6jNZ2SEtdI7Doq9TWMdYaUH7NbSPj/Zq/Z6NZ2fz3DiSTuzmrL6jp1ucebGD7CuWWIfQ6Y4ddTD/tLUD93Tnx9Ks2+pt/y92ssXvjNXRrds8m2GOWU/7K1rBA6AlcZHQip+sy6lewiVLJLa8GYbqIn+6Tg1ZOlYBYzRgeuao32i29z8yDypR0ZOK5/UYNVS4jsizNC5/wBaPT3rWOIi9zOVDsaV1cxRytHA3nOOMLVVo9Uc/u4kVfc1u6dpsNlCoRQX7sepq7sHpWU8TK+hpHDx6nNyWeqKgKPEzd1qIXNxbsBfW5Vf768iuoKgAk8CqU+oWMYImmjx3BqY4iY3QixbSyW6hEsE8TKf9qpTpMmf9ZH+dcjq19awOJtJdzITyig7Wq1b65lFM0M0ZI5yOK7IVVLc550uXZHSnR3I/wBbH/31Sf2Q/wDz0j/OshNUtnA/fY+tTx3MUo+SYH6GtE7mNrdDQ/seT/npH+dH9kSZ/wBZH+dVAW/vHH1pfm9T+dMWhb/seT/npH/31R/ZEv8Az0j/ADqn83qfzpct/eP50ahoW/7Il/56x/nSHSJB1lj/ADqrz/eP50YOPvH86Aui1/ZMn/PSP86P7Jl/56R/nVXnsT+dHzep/OgV0WRpMn/PSP8AOl/slz/y0j/Oqp3ep/OjkdCfzoC6LX9kv/z0j/Oj+x5Mf6yP86q4J6sfzoAP944+tAXRZ/siT/nrH+dL/ZMn/PSP/vqqwB/vGl5z940WC6LH9kSf89I/++qX+yJP+ekf51XGR3P50HPqfzosx3RY/siX/npH+dH9kS/34/zqvkjuacSw/iP50WC6Jjosv99Pzqve+H5p7coskYPuaXLY+8fzphdsfeP50CuilY+E7mF1zLFwc/erUutHMce0TRlsdM1Udnx99h+NMCln3biadmxqSOYniMcro2Mg44q3pCZvEpl2v75/rVrR1zdR1LR1QOjKdBSeWRVsRkUMhIPFYGxWCZoKVYVKUpk9KBlUJyCKcU5q0IsY4odPUUAVfL5ppSre0Y4prJx0pgVSlLt4qYrTtvFICUx4pQgxXJHxr6Wn/j1J/wAJqR/y6frXQebys7DaKNvFch/wm3P/AB6D86X/AITb/p0/8eoDlZ2AFIy4rkP+E3I6Wn60n/CcE/8ALr+tAcrOnnB3DHArP1ZMWZPesg+M9wwbPP41FN4jS8XyhAULHrmkOMdTuPCaZ0uP8a3THwtZXg9c6RGfc1vlOFrlnud0digY6bdJ/wAS5j6GrhTk1Fe4TS5HbAAPNOG5M9jlFwOtJJhsBaz5vEWnKxUk5H5VEPEunD+9+VdSRws1dmBTSPas3/hJ9OPXcPwo/wCEl03+8fypgaOwGjy6zx4j00/xn8qB4i005/e/pQKxf2UBKorr+m55lp3/AAkGmf8APWmgLZj5pRGKpf8ACQabnPmnH0o/t/Tf+ep/KgC6UxQUHeqX9vaaf+W36U067p2f9d+lAWZeCcUpi6VSGu6d/wA9aP7f07/nrQMt+XR5fFUjr2nE/wCt/Sj+3LJuImaR+yqOtJtIEmy4Y6rX00VnEXdhnsoPNOih1G+Pyx/Zoj3PWr9loNvCd8+ZpD3fmuaeJjHY6IYaT1ZwUjalqV8GS1Z7dTkA8A10cGnatcqEeVLWHHSMc11yQqi4VQB7Cl2etcU6zk7nbGmorQ52Hw5bjm4llmfuWarkWj2UeNsC/iK1ylJsrLmZVimltFH9yNR9BT9lWdlGylcLFbZRs9as7KNlFxlfZSbKs+XRsouBVaIMpVhkGqJ0SxLZa3Un3rY8ujZTvYVjNj062jHyQoPwqY28ZGCikfSrmyjZRdhYzJNMtJAQ0Cc+1UpPDlk33FaM+qtiug8ujy6anJbMTimcxJod1CM2d0x/2X5qrJcXtm2L62JUfxx812WykaINwQCK1hiZx3M50YyOXtbyC6H7pwT6d6tBfWpNT8OW103m2+YJxyGSsmW6vNLPl6jCWiHSZR/Ou2niYz3OWpQlHVGltAoAFZ412wI/1opP7csAf9YK6E77HPZmiAO9LtFZv9vWB/5aCmnX7Afx0wNTaKNorJ/4SHTz/GaQeItPH8ZpWYGvtFLsFY//AAkengfeY0HxNYerflTA2Ngo2Csc+JrD1b8qa3iex9H/ACpWA2wtAQGsMeKbHPST8qX/AISix9H/ACosBuhBRsFYQ8UWQ7P+VO/4Six9H/KmkwNoqAKiKjvWUPE1ge7D8KQ+I7H1P5U7AaZweKds2rkdDxWWfEFg5wA5PoBTJNctwyqqTc8AbaAKd0v75/rV3QlH2yPNV5gHct61oeH0/wBOSs5bHZT6HTlcuOOKHXJNW3j5XApDHwa5zcqKnFL5dWli/OkaOgCDbjGaHjyKtLHwKc0fGKLjKQjwOlNZPl6Vd8vjpTGj+Wi4FEpQU4q0Y6aY+KYHh5iuPejyp/Q11P27TP7y/lSC803+8lcH1qp2L+r0+5y4iuPQ0eXcH1rqReab/fSnC6049HSl9aqdg+rwOV8q4PelFvP611Ql08nhkpfM09f4ko+tT7B9Wgcibe6ByDxWhpUdwbpN+NvvXVWsdpPgoqn8KlksoYyHRQD7VUMVJyUWEsNFK6PQfB0e7RY/qa3tmAuazfBUf/EkjPua33j+VfrXTJ6mKM50qprFuX0SYCtaSPnpUd8n/EqkGO9VB6kz2PFLjTI2Y7lGfpTf7PiAA2Cu5ntI2wWQE/SoDaQn/lmteipHmy3OLeyhA5QUwWEJ/gFdr9ih/wCea05bKH/nmv5U+YnU4cWEP9wUv9nw/wBwV3Qsof8Anmv5Uos4f+ea/lRzAcINPi/uUDTof7grvPskGf8AVL+VNNnAT/ql/KjmGcN/ZsJ/gpDpsP8AcruxZ2//ADyX8qPsdv8A88lo5gOEGnw/3KX+zoP7grufsdr/AM8VpwsbY/8ALJcUcyC5wf8AZ0OeEpktlbxrlwBXX6jPY2Q2iJXnbhUXqTTNH8PSXc4u9TQAdViHQVhWxEaaN6NGU2c7pnhmXVG3FDBb/wB49TXZ6R4ds9MQeVGGf+8eTW6kSogVAAB2FO2V5NSvKbPShSjBWK2wemKNlWNlHl1jc0sVilGyrOykKgDJIFAFfZS7KWS5towd80a496oy63p68C4Rj7GnZiLuyq1/DcPbN9kYLMOhbpVVtbh/5Z7T+NKmsDIygI9qLMLlCDW2hnFvqUJhn/vfwt9K24Zo5hmMg1Df2VvrNiykDfj5W7qa5bTLqa3upLS4JW4hOOf4h607XFc7XZxTWCqMscCorO+jlg3SMA6jmuc1O+uNVvPsNgT/ALbD+EUkhlnUNaeS4NppUfnT9C38K1oaRY3FvGzXc7SyvyfQfSrGmabbaTahcqG/idu5qC68QabbkhrgOw7IMmm/IEX9lG32rFfxTbf8s7W6f6R01fEpJz/Zl5j12UuVgbuyjZWMnie14823uo/rHVm18Q6ZcttW4Ct6OMGizA0ClJsqePZKu6NlYe1O2UgK+yo5rdJkKSqGU9jVzZRsouFjgvEHgiOctNpp8uXrs7GuDu7O4s7gwXUTI4PccGveguKoaro9rqcBjuYgSej9xXVRxMoaPYyqUFLY8R+zS4/1bflTfs0v/PNvyrudR0a90VizIbi0z94DlRUcXlTpuj2mvVpTjUV4nBOEoPU4r7LL/wA8m/Kk+yy/882/Ku58oegpPKHoPyrblMrnEC1lz/q2/Kl+yTf882rtxEB2H5UFPYflRyhc4j7HcHpG1L9huP8Anm1dsqDd0FKE5p8gXOJFlcf882/Kl+wXH/PNvyrtgntS+XRyBzHE/wBn3P8AzyNL/Z9yf+WTV2uynInPSjkFzHEjTrnr5TUjWc0fLRnFd2FHpVPU4wbdiQMUcgcxzujQ/wDExjOOM9K765tovLD+Wu4DjiuP8PJu1ONe26vQL2PELj0FZsdzkJVJY1qeHEzfxiqEw+Y1r+GlzqMVYy2O2HQ65ojwaTy+DV4p0FN8sbjjvXMdBTVMUhT5qt+XyaDH83tQBWEfNDJ7c1cEftQyelIZTWPiozH1q+qdaYY6YGayc0oTjpVt48Gk2+1MDx7+xFx91/ypP7DX+6/5V66dNh7IPypP7Nh/uD8q8X28jf2aPIv7ET0b8qQ6Ko7N+Veu/wBmQ/3B+VNOlwd0H5UvbyDkR5EdHX/a/KqsukmNt0ZJPpXsx0qD/nmv5VkeItLiWxd40ClecgU1XdwdNHEeHg/zZ4wa35kzH+NZuhxj95/vVsypiKiLvVRdvcZ6F4KT/iRQ/WuieL5VrG8DJnQoc+prpXj4XivTlucS2MySOobuL/iVy1oypzwKhu0/4lUnHerpvUmexwkkfaoTHitGSPBBqBlr0FseZLcqFMUADPNTMtNxVEXGhfanAdsVIoyKXb3oAiK89KAvtU1NxmgBm2kwPSpVQjtS7Tgk9qBkDAKMkAD1rGvL6e6nNnpib3bhpOy1Lfm41SdbPTmwv/LRx0FdPoulQ6barGi/Pj5m7k1w4jEqGi3O2hhub3pGVo/hyGzfz52M1yerNzitvy6tFM0nl15UpuTuz0VFRVkVtlGyrOyjZU3KK2yobqeG0hMtw6og7k1f2VjaloA1G/WW6mZoE5EXbNNW6iMWbW77UHZNGtSU6ebJwPwoi8P6leDdqd/Iuf4I+BXYQW0cCBIkVVHGAMVJsqubsKxyR8Gac/8ArDKx93pf+EK0fGPIP/fVdZspPLpc7CxyP/CEaXnIEo+jVDP4MiX5rK7nhbsCciu12UbKfOx2R59FJqehTAX0PmW+eZo+mPerPiDTxqcdtq2m4aaPhsfxL3rtZYEljZJFDKRgg1ztrp91pGqeXaL5lhOeU/uGmpE8phSJKYSIkJlI4X3qzptq+gad5hgaa+uDnAHQ1tfZRFrCgDgndW6YVJyRmhyBI4238PXeov5+s3DndyIVOAK3LPRrK0AENugx3I5rY2UmypcmVYqiFP7i/lS+WPQVZ8v2o8ulcLFQwI3VVP4VTutGsblSJraM574wa1/LpdlCbQWOes9BSyuhLaTypH3jJyDWxsqxso8ui4WK+yjZVjy6PLouBX2UbKseXR5dFwKzxqyFWGVPUGuQ1zwuyM15pIAk6vEejfSu52Umyrp1JQd0TKClozyi3mEjGORTHMvDI3UVPsrsvEXhqLUgJ7cCG7UcOO/1rjl823uWtb+MxTr0PZvpXt4bFxqqz3POrUHB3QgWkK1YK803ZzXYcxCqYelC80/ad4p23BqgIwtO208DmnbaBEW2nKvPSn7acBigQ0AGqeqf8erVfxkcCqepr/oppMRjeG1/4m0ePWvQ9QT9y/0rgvDA/wCJvH/vCvRdQX91Jx2rGRSepxU6/Oa2vCyf8TKGs2dPmNbPhNN2pQ1hPY76fQ7Zou9N2c9Kv+VwaTyunFcp0lDy/mpGTmrpi+ak8oZ5oArCM46U5o8AirPl05oywJxQBRC/L05qMpV7yflFMMVAGe0ecnvTVTLVdMXBpgTawpgR7MdqNlTFTTcc187c7CEoQelBXgcVYCEnpSFCRSuBUcgcVka+CdOmz0xW48RJ6Vm+IIsaXKcdqa3DocDoaYMn+/WvOv7qs/RE/wBZ/wBdK1rhP3dbQf7xB9hnpPgOLOgQn3NdO0fyrWJ4Aj/4pyD6munaP5Vr05PU4UjKlTJ4FQ3kf/EqlrSkhwTxxUV7H/xKZTWlN6k1NjgJk4FVHX0rTnT+VVTHXpR2PKk9St5QxmmrGMVZMdPWEYqiCtDDkU8wEduK57xLPexzqlpIyADnFYn2zVcf8fMlPlYzuxBz7U4249K4D7Zquf8Aj4lo+26p/wA/EtLlaGlc78QYHsK529luNYv20/TgViU4ll/oKw9Pl1bVr9bO2uZCp/1jZ6CvUNF0mHTLRYo1G7HzN3JrgxWJ5PdR3YbDX96RBpOlQ6ZarFEOe7dzV3ZVnZRsryXJt3Z6VraIrbKNntVnZRsqbjsVtntRs9qs7KNlFwsVtntRsqzso2UXCxW2UbParJXHWs++1axsv9fcID6ZyaeoifZ7UbPaotM1CHUVLW6ybR3ZcA1e2UaoZW2e1Gz2qzso2UrhYrBKXZVjZRsp3CxSa2QzCUj5hxUmyrOyjZRcLFbZ7UbParOyjZSuFits9qNntVnZRsouFits9qNntVnZRsouFits9qNntVnZRsouFits9qNntVnZRsouFits9qNntVnZRsouFits9qNntVnZRsouFiuE9qyte0K31a1KSDbKPuOOoNbuyjbVRk4u6E4p7nj7LcadeGy1IbXBwknZx9at7a9B8QaHb6zZNFMuJByjjqprznbcaXfHT9SGHH+rlPRxXuYTGKouWW55tfD8vvIbNIsLAtUH21Oyk1bvbVpvuLkiqDWM4/gNehe5wsf9vQdFNH9oKf4TUZsZ/wC5QLGbH3KdmLQl+3r/AHTQdRUfwVELGb+5R9hm/wCedGo7ok/tMf8APM1HdXaTW7DaQxpPsU3/ADzNI1lN5bNs4HWlZhoV/C6/8TmP/eFelagn7uQe1edeGARrMeP7wr03UFykh9qxmNaM4eZeTW34QTOoxVlTrya3fBiZ1KOsJ7Ho0+h6AseM5pjIQeBWgI8014gDXFc6TPaP5qjaP56vtGd3SmNEA2TVAVvK4pwjPIq0I8ineXTAohKa8dXEShkHpSuBmMnUVF5fzCtB481AU+amiiJo6TyqtryMkUuBjNfNXOuxU24bmnbRt4FTHGacoAFO4FN4/asnxOmNKkroJADWN4n/AOQVIKpbks870NeJP+ulbE6/uqytB4aYf9NK2p/9X+NbQ/ior/l2z1XwBHjw5b++a6Vo/lWsTwEAfDlvjtmuiI+UV6ctzgRSePINVr9caPL9a0HHBNVb/B0WT6mtKfxEVNjgJ15quUq7P0H0qCvUieTLcr7KljSlqxCBkVRAy30oXhYrGHfNXI/CbsufIRc9sVteDwDNNxXVHGKh1GnY2hTTVzzs+E35/dJ+Vch4siW0mXTrNI3vZeDt/hHrXefEDxYNDiSCzAe9l4VfTNcx4U0WRHk1LUiZL2c7iT/D7VzYjFckbdTqoYdSdyfwvoMWj2QAGZn5dj1zW1s5qfFJgV4k5uTuz1FFLREOyjZU2KXAqRkGyjZU+BRgUAQbKNlLcTR267pGAFYeoa8qK3lYUD+I0JXE2bErpEu6QgAVz2seKLOyUqh3ydgO9YDXmp6/cNDpquUJw07DCiul0DwhZaeBNdgXV4eTI/IH0FacqW4jAiTxD4iOf+PCzP8AEfvH8K39K8KWFkA0itcTDq8vNdIAAMAAAelLgUnN9B2K6QqgwoAHoKXZU+BRgVAyDZRsqfAowKAINlGyp8CjAoAgKUbanwKMCgCDZRtqfAowKAINlGyp8CjAoAg2UbKnwKMCgCDZVC61O1tbxbedjGzdCwwD+Na2BVXUNPttQgMN3GHQ9+4+hpq3UByqGUMpyDS7K5K6uNT8LH5gbvS8/ePLRj3rotI1e11OFXt3ByM4ptWEi3so2VNgUuBUjINlGyp8CjAoAg2UbKnwKMCgCDZWR4j0G31qyaKUYlHKSDqprewKMU4ycXdCaT3PGbeafT7qSxvlP2iLgH+8PWp2vMn/AFTV3PjHw8uqW63FsAl7DyrevtWXoeitqNtuyglXh17givosFilVjZ7njYuh7N3WxzRuzj/VNSfbDj/Vmu4/4RSU91pR4Rl7lfyrv5vM4rLscKbw9ojSfbH/AOeRrvx4Pb1X8qH8JlRyR+VHOu4W8jz5rp+D5dRSXMjKRs4Ir0M+E9y8ED8Kydb8PS2FnJOSpRfak5J9RpeRwnhgY1qP/er0/UFzHJ9K828NqBrSH/ar06/H7uT6VhMvqcNcL8zfWuh8DJnVIx7Vh3A+Zq6TwEAdVT6Vz1Nj06XQ9FCZIxSSx4Iq8qjA4qN1+bkVwHSUHTJFNeLkZ7Vbdec4prjgVSKIFj4pfL4qwE4qTYDTAorHik8v5TVvbgkUYGzgUAZrR8VXaPD1psmATVaVcnimgM1SeR2zShioxTV7/U04471860dVxM5pw6UijmlpDInbnFZPifnS3rWbrWX4kGdLkqkJnn2hfen/AOulbU/+rrF0QfPOP9utqb/V1rH+Kil8DPXvAH/ItW/410cn3VrnfAX/ACLdv+NdG33a9SW55xAwG01Vv+NGlq0wqvqOP7HlFaUviFV+E4K55x9KrdBVqeq55Feotjx5bjRU8XWoBU8VUSdH4P8A9fLWx4g1KHSdMmup2ACg4+tZHhEhZJSelcb421CTxF4gTSbZv9GiOZSOlctaXJds66EXLQp+HrSTWtTk1rUAWDH90rdhXY4wAB0qO2gjtoFiiGFUYAFSGvEqT55XPYhFRVhRSUUVmUFFFFABVDUr+O0UgHMnYUuqXotITgjeRwK4TWNW8qUZzLcPwqDqaqMbibLWsasIwZLlsk8Kg6n8Ki0rw/d65KtxqeYbPOVhHVh71o+GfDbSSC/1cb5jykZ6LXZABRhRgD0qnJR0QkrkdrbxWsCxQIERegAqWiis73KQUUUUAFFFFABRRRQAUUUUAFFFFABRRRQAUUUUAFFFXbO3juY2QHE3bPejcVylRTpEaNyjjDDtVi0gW4DKGxJjIHrRboMpyxrLGySKGRhgg96881vSJ/DV619p4Z7Bzl4x/AfWvUorMyQykNiVDyp9Kz5okmieOVQytwQapXW5L1MXw/rcd9AmXByODW7XnGtafL4YvhcW+5tOlbLAf8sz/hXXaDqq3cKIWBJHyt605R6oafQ2aKKKgYUU5Mbxu6d6u3NkoeNoj+5k4B9DTSuJuxQoq6LB/tDQkgMBke9VJUMblGGGHBFDiwTTG4rn7oSaDrceqQKWtJTtuUxxz3roKbPEk8DxSDKsMGtKM3TldEVIKcbM7O2S1uIEmhVWRxkEd6nFvD/zzX8q4HwDqcmn6hLod85IHzW7nuvpXoWc17MZ8yujx5Q9m7MYIYv7g/KnCCL+4PypwqRRTuEdSMW8X/PNfyrkvifBGnhefYoByOldmOlcj8UB/wAUxN9aIP3kayilG58+eHgBrMf+9Xp17/q5B/s15joHGsp/vf1r02+4WT/drskcfU4qflj9a6XwAP8AibJ9DXNS9D9a6f4fKG1dPpXLV2PSpbo9OTjrQ2D0qfYu2on+XpXnpnUVpaQjIB7VJIu4UoT5BmquBGDkU5VIOaUqFFIpO2qQCIMls00jAp8dOPPFMorEcGqrjmrjDhgKqyKdwqgRjgYY/U0d6XufqaK+de50i0A0Y5pcVJRC9ZniL/kFvWo4rM8Rf8gyT6VS3FY880b/AI+Jx/t1tT/6usTRv+Pif/erbm/1Vax/iopfAev+Af8AkXLf8a6Qj5a53wF/yLdv+NdGeVr03uecyFulU9R/5BEv1q8/3TVHU8DSZOeprWl8RNT4ThLjrVftVif73NV+1epE8iQ0VYiquKswj16VQgvdX/snSbplP71wVQDuap+DtMNrZG6uObm4O9iayt/9r+JIrUDdBAdzHtmu2ACgBRgCvHxtXXlR6+EpWjdhRRRXnHaFFWJrVooo2PJfoBULqyHDDB9KLBcbUVzMsELSOeBUtc14nvxGrJuwiDLU0rg3Yxdd1MKrTTNyeFXufQVY8FeHjvOqakpa4k5RW/hFZ3hHSn1y/wD7SvVYWqH9zG3f3r0dVCgADAHFXJ20JSuL06U6ONpG2oMn0pvetS3As7USEfvpOF9hUJXHsZ6wu27Ck7evtSRxtJIEQZJrRu5kt4PJgOXcZdqhsriO3gdwMznhfanZCuyK8txbsED7mxz7VWpzsXYsxJJptSykFFFFABRRRQAUUU2SRIxl2Cg8c0AOoqlrN19j0u4nVwrIuQfeszwZrw1uybzRtuYzh1PH40+V2uFzoKKD1opAFFFFABTo3ZGDKcEd6bQtAF69uI7mFHYYnH3sd6pIxRgynBHekoouJKxZ+1y+cJQQHAwT61XZtzFj1JzSUUN3HYiureK7geC4QPG4wQa82Mc3hnW/skpY2kjFreT09q9OrN1/SINYsGgnHzjlGHVT61UZdGJosaZdLdWyuDyODVqvP/CmoT2F/Lpt8cSxNjJ/iHrXfg5AI70pKzBO4taOnzo0bW033W+6fQ1nUoODkdaE7A1c1ZHzEUlbFxB91vWor10urZJuBKOGHrVAuzEkkkmkycYzxT5riUbCUopKWpGzI8Q27+VFfW/FxasJFI6kdxXoOg6gmp6Xb3SHO9efY1ypUOpVuQeDUngKY2l7e6ZIcKD5kQPoetejhKn2WcOKp3XMjuRUi1GtSLXazkpjhXJfE/8A5FiautWuT+J3/IsTfWin8SNZ/Cz560H/AJDKf71emXpyr/7teaaF/wAhhP8Aer0u7+63+7/SuyRxdTiZO/1rrfh0udWX/dNci/VvrXY/DjnVwP8AZNc1X4WejS6Hp+3jFRONh+tWMY61FOgZevNecjqIMZyRR796eBg0pUHmquBCyllpQB06U4jjimqCOtO4CcKcCnAc0gGTTx2FO4EDLjdUO0b8datSjJqFV/eCqKOaP3j9aBSev1pQcV8+9zqHKcnFKxwKaowxpx5qRkLc1neIP+QZJ9K0TWfr/wDyDJPpTQmedaJ/r7j/AH62pz+7rG0Uf6TP/v1s3A/d1rB/vUP7DPYvAA/4pq2P1rpD0Fc58Pv+RZtvxrpSPlFeo9zzXuQuODVHU1B0mU+mavvkCqepD/iUy1pSfvCqfCefTioKsT1B2r1VseTLcYMbqZqt2tlp0spODjinr96sTxEzXV9Z6enPmMGYD0FKpPli2VThzSSNTwLp5t7F7qbPm3DbyT6V0tMgjEUSRqAAoxxT6+cqSc5XPfhHlVgqa0VGuEEhwucmoaKhFGuHV5Zbp/8AVx8IKiiQNFLd3PO7hQe5qo1wzWyw9FBzRJcPJGiH7qDAAq+ZE2KOoziCB5M4PavOblH1/WksYyfKVt07D+VdB481P7LbiKLmZ+FUdyau+DNI/s3S0eYA3U3zSMeuTTXuq4PU27a3jtoEhiAVEGABUtFFZvUoKcXZsbiTjgU2igBc5pFoooADRRRQAUUUUAFFZ9/qcdne2dswJe5fauO3vWhRYArmvH8xg0MOpwwlUg/jW/d3MdpbPPMcRoMk1xfxOvUfwpFPGfkdgymqgruwmyfxTcG7TS9OQ48/DyY9BVPV4W0LULfVrQYi4jnQd19areEXl1q/W/dcpGgii966/UbDzrd7e6QhXGCCK6UrKxHmattMlxBHNGwZHG4EVJXHeC76Wyup9Cvmy8PMDH+JK7LFc0o8rNEwNJRRUgFFFFABRRRQAUUUUAFAODRRQBxvxA0uRo4tVsVJubflgP4lrX8JarHqmmRujAsBgj0rZdBIjK4BUjBBrz2AN4W8YGFciwvCSvoG9Kte8rE2seiUUgORkUtQUFFFFABS0lFADhWTqcj6dqNpqsOcxNtkA7qa1RUV3AtzbSROMhlIrSlPllcipFSVjv7aRZoUljOUcBganUVyfw8vGl0drWU5ktnMZ+nautWvXUrq55ijyuwork/icM+F5vrXWCuT+Jv/ACK831qofEh1PhZ89aHxrCD/AGv616be8K/+7/SvMtF/5DUX+9Xpuofcf/d/pXZI4lucO/c+9dp8MlzqufRa4s/drtvhjxqwH+zXNVfus9GnuepMMioJVq0w5BqKYV5tzqvcq7RnnmkbIOKmIprnkYp3AjI4pMZFSCj2qwIcYNKDTyozTgvFAED/AEpicyDipnGM0xB+8WmUcl3f6mgHmmq2S31NLXhHUPBy1OamL1zTj0pDIj1rP1//AJBsn0rQPWqGvf8AIOl+lNCZ51o5xc3A/wButq4/1dYmkf8AH3cf72a27j/VVrD+Kh/YZ7F8P/8AkWrb8a6Y/drmvAH/ACLVt+NdKORXpy3PMYxxlapan/yCpqvP0NUdS/5Bc1aUviFL4Tz64FVz0qzcH5arnpXrLY8uW4xR81UrCFbnxS8g5EEeM+9XJHEUbu3RQSaq+A/39rdXrA7ppmwfbNcmNny0zqwcLzudRRR2orwj2AooooAKRmCqSegGaWsbxbqH9naNM68yyfu0HqTTirsGctpMR1/xfNeSDdaWp2r6Fq9C4AwOlYfg/TF0zSI1x+9k+dye5NblOTuJIKKKKkYUUUUAFNZ1XG5gM8c06uZ8UzPNqemWMLEMz+Y+PQU0rgdNRQBgAUUgCiiigDktRIuvHNjED/x7xl/xrra5Dw0pu/FOqXhO5UIiU11/pVPsI5fxvM0kVrp8R+e5kCn6VifFaJP7AsLKPgs4QCrskg1TxpkHMFipJPbdXOa7dT654w0/ygTZRXIj56E961gtSWerfD7QEt9PtWMe2ONRgY6mum13S1u4d8Y/eL0rUtYlht0RBhVGMVLjitjBz1PFfFOlys6XloCl9bHI/wBodwa2vDmrRatYLIp2zLxIh6qa7PXtGFyGmgGJMcj1ry7WLSfQb7+0bFCFzi4ixwR6/Ws5wuawlc7KioLG7ivrSO4t23RuMg1PXNaxqUbHU4rq6ntuUmiOCrdx61ernfE9nNE0eqWA/wBJg5ZR/GvcVraVfxalYx3ERBDDkdwfSqtoBcoooqQCiiigAooooAK53xxpf9o6NI0Q/wBIh/eIe/FdFSMAylWGQetNOzuDMjwlqI1LQ7ac/fxtYehFbFZOhaV/ZbXSo2YZJC6L/dzWtQ9WAUUUUgCiiigApQaSqupCY2E4tm2TbTtPvTQnsO0C6/srxh5THEF6uB/vCvS16GvEU1GTUdEtNTxi5tZAXA7EHmvZNKulvNPguEOVkQGvTw8rxscNWNpXLlcl8Tf+RWn+tdbXJfE3/kVp/rXTD4kYz+Fnz1on/IZi/wB6vTNROI5D/s/0rzPRf+Q1F/vV6TqozG/+7XZI41ucWxAFdt8MPm1YH2rimXIBruvhcMapj/ZNc1X4WehDc9TYcCopRxVgjiopFGK8w6EytjrTcZ5qYgDj2ppXavFMoiI44pFB71JwenWhVweaoCM4zSBj0xT2XDcUoXFUFyFgc0kYy4zUzDJpgB3jAouUcRGhCDdy3en7D608UpPFeEdg3GKdjK0lOpAQMp7Vn69xpsv0rUbiszxAP+JdJ9Ka3EzzrSBi9n+tbU/+prG0n/j9uPrWxOf3YraH8VB9hnsXw9OfDVv9TXT9K5n4ej/im4Pqa6cV6ctzzGNf7tZ+q/8AIKmrQfoaz9V/5BUv41pS+ImXwnAzj5BUOKsTfcFQ45r1Y7HmNamP4hl8nSrkjqy7R+NbHha1Wz0O1iQY+TJ+prm/Ekn2i8tNPT70rgn6V20KeXDGg6KoFeVj5aqJ6mBjaNx9FFFeadwUUUUAFcZq2dZ8XQWQJMFoBI4HQtXWXs621rLM/wB1FJNc54GtWkS51ObPm3blhn07VUerEzqQMAAdAMUtFFSMKKKKACiiigBrsEQsegGa5Xw3nU9fv9Tk5jQ+TF7Ada2PEt19j0W6lzj5CB9TUHgy3+z+H7cEfO43t9TVR0QjboqvdzGIKE5djgVOudo3daljFrE8XaxHo+jzTu4D4wo962mYKpZugrzHxlHJ4jmO0lbKCQID/fb0q6cbsTOn+Hds0fh9LiUYkuGMh/GtvWLxLDT5rh2xtUke5qXToFtrCCBBhUQACuJ+IurIlzbaeTwx3uB39qaXNIXQp6YtzLbJp9oC19qL7pGH8Cn/AOtXYatosOlap4Y0q1TMgk3yN3OOpNa/wz8OG2h/ta/QC7mGEUj7i9qW1Y6p8UZD/wAsrG2P/fRIrpirGTlqd8n3RS0hpRSMQrI1rR4b+FvkG8j8616KY02jxOWO48H6uYplI0uZvwjb/CutidZYw6MGRuQR0rrdc0e11ezkguo1YMMAmvLlS68I6h9g1As+nO37mU/w+xrGpC+qN4TudMRkEHpXIRI3h3xCc/8AIOvW49Ek/wDr11ykMoZTlSMgis7xBpq6ppkluTtf7yN6MOlZRdnZmlzSHSisLwnqT3lo9tdDbeWx2SKe/vW7UtWGgooooAKKKKACiiigAooooAKKKKACiiigApD0qK8d4rWV4hmRVJA96p+HdROp6ZHcOAHyQwHqDRbqHkc5o6i08TarpT/6i4XzUB9+tekfDa8DabNYO3721crj27V534qH2DxNpGoLwHfynP1rqdCuE0/xnDjiO8Qq3oW7V20JWZz1Y3R6ZXK/EsZ8K3J9xXV1y/xIH/FK3X4V6EPiRxz+E+dNGP8AxOof98fzr0vUv9XJ/u15nov/ACGof98V6Zqf3JP9yuyRxL4jjT9wV3Hww/5Cq/7prh/4BXc/C/8A5Cw/3TXLV+FnoQ3PViKifODU5qN14ryzaLICuaTbUmKYwOc1VzQYVAGR1pB0qXtSY46U7gRbfejHNSYyBijFUhEeOaFAz9KeM56U4r0xRcZ58jHGTTs1Gv3KevWvDO0XPODTs8VG33mqRcYoGBGRzWXr/wDyDpfpWqeBWVr3/IPl+lNCZ53pP/H9N9a2Zh8grG0zi+nHvWzN9wVtD+Kg+wz2P4e/8izB65NdOormPh1/yLUB9zXUivTlueWyF+hqlqf/ACCZq0JOlZ+rf8gqatKXxCk/dOCm+4KizgH6VNIMoKrSnajk9AteqtEed1Oa08/bfGzHGUgX8jXeVx/gOEyXGoXjDmR8A/SuwrwcXLmqM9rDx5YIKKKjEyGZogw3gZIrmNiSiiigCnq1iuo2EtszlA4wSKlsbZLO0igj+7Gu0VPRRcAooooAKKKKACiiigDmPHRZ7O1tlPM8yrj8a6O2jEVvHGOAqgVzGvEXHivSbc8qpMhH0FdJeyiC3Zzx2FUxIrQ/6RfvJ/AnA+taFVtNi8u1XPVuTUl1cR2sDzTMFRBkk1O47mR4nvJVji06yG+9u22IB/CO5qLX9KTTE8PaOgzJu86Ujue5Na/w80qXUdRl8QXy8MStup7L61S1Wf8AtH4h3RzmOziCD6mulR5YmXNeVjQu7hLW1lmkICIpJJrlvh94aPifXpvEOpqWtlbECnocHrR41upLy5tNEtMmW7cBsdl71634f02LSdJtrOBQqxoAcetKlGyuE5WRamZbe1kYcKik/kK4n4Xp9pvda1Rx8082wN6gVveOb3+z/DF9Ln5vLKj3Jqv8N7I2XhOzDjDyDzG+p5rcx+ydSaSiioJCiiigArP1nSrXV7J7a8jDow4z2NaFFAXseTyxXHhO/SwvmaSwlOIJz/D/ALJraBDAFSCOxrrtc0q21iwe1vEDIw4PcH1FebRi78O6iNM1Ri1uxxb3B6EdgayqU+qOinO+5R8RhtL1q01WIYic+VPjvnoa6lGDorKQQRkEVV1S0TULCa2kGVdeD6HtWR4Pv3kgk0+6J+02p2c/xL2NZbo06nRUUUVIwooooAKKKTIzjIz6UALRRRQAUUUUAFFMlkSJC0jBVHc04HIBHINAXBwGRge4Ncx4GkwNSt+8VwePY11A61ynhf8Ad+Jdbjz1cNVLZiJPiFCZNC81RloJFkH4Gpb2VptEsNSg/wBZBtk4/WtHxHALjRbyMjOYzxXM/DnVYtU0GTT5CPPt8xsp7irg2kmKSWzPcdLu476wguYjlJUDA1hfEb/kVbr8KxvhVflbe60idv3tq5KA91NbfxE48K3f0r1qUr2Z59SNk0fOOif8hqH/AHx/OvTNU/1co/2K8y0T/kNRf74r03U/9XJ/1zrukcC+I40fdWu4+GJxqy/7priMfu1Ndx8Mv+Qun+6a5avws9GG56welNYcU6ivLLRCRQRTz1pCMGi5aZGR7UhqTqKQrTHcYRnpSbT2p2MU4D1q0MYAQfanfhRjmlpgecqKeBg0L0oyc4rwzuEYZY05RgUoHJoxigY2TgCszXDnT5fpWjMeAKz9b/5Bsv0poTPOtO4v562J/uA1j6f/AMhCetmX/Vit6X8RB9hnsfw6/wCRZg+prqAa5X4dN/xTMA9zXUg16ctzy2K33aztWP8AxKpa0GHymsvWyf7KlxV0viJl8LOHk/1fFZerTCKwmbOPlIrUfAjrlfGdz5NpHEOsrBRXpOVoNnDFXkkbfg23MGiRZ6v81blcy15JbappNjEeCmXFdNXz1TVtnuQ0Vgrk/D073HizVWJyqAKB6V1h6VyfglQ19rMw6tORSWxR1lFFFSAUUUUAFFFFABRRRQAUUUUAcYx874ixDPEUJre1SXddwQdRnJFc7o4+0ePL+YfdijC1r2rm51tnHKrWkiUdAMBQBxWC1u/ibxEumQk/YrfDXLev+zVrxDqH9n2Dsg3TP8kajqSa6nwBof8AZGjh5ubu5/eyseuT2q6UOpM5WRussWnaawjASKGM4A7ACvJPDFwvl6rqs78TSs24+grvviTqP9neE7xlYiSQeWmPU8V5TLFNcWGneH7IZnnwZSOwPU1pLXQzp9zpfhbpcmq6xdeIbxT5ZYpAD6etesAVS0LT49L0u3s4QAsSBeKvVREpXZwXxKZry40vSozzcTqWH+yDzXc2sSwW0cSABUUKAK5VtOmvPHS3U6H7PbxfIT03GuuAxQEtkgooopEhSYpaKAAUUUUAGazde0i21mwe1u0DK3Q91PqK0R1qC6vLe1TfczJGvqxxTsC30PMLdrrQr8aZq5JU/wConPRx6E+tZ3ieI6Xq9prMIOzPlz47g966jxnrvhnVNPktLm8XzesbxjJVvUVw/h3XYNat7nRr5t0igokjDG8dj9aylCzujpjK+53EUiyxLJGwZWGQRT65vwTdN9jmsJz+/tHMZz1I7V0lYNWZomFFFFIArnRdSJ4yNuXOxocgflXRVy2rxrF4y0yYZzIrJ+lVETOpopTSVIwooooAoa7bG70q4iU4YqcfWq/hO7+2aLCWP7yP5H9iOK1/r0rltEf+z/E+oaeeI5v30Y/nVLVCZ1Ncnpg8nx5fqOkkQbFdbXHklfiNgfxW/NEeoM6u7UPbyr13KRXDeG/CU0GlXOuaVuN5DcMJIh/Etd4wyCParPwtmQRanZN99Jy+PY1vhtXysyrOyujjLTWo7PxDpusQELFKRDOPT616R4/ZZfCF26kFWUEEVwvxL8KS6YlzqWmxGWzk+aWFRyjf3hW0+o/2p8KROD84i2sO4x613UVyuxy1XzK54lo3/Iai/wB8fzr03VMeXJ/1zrzHRRjWoR/tj+demar/AKqX/cr0pHnLc5Ef6tfpXb/DL/kLJ/umuGB/dLXb/C8/8Tdf9w1y1vgZ6MNz1sCg4xSikbkV5RYymHOakXig4zQUmMoApwFOGM1SC5GRRUhFIFwKpBcYRzS4zS4z1ozgVQHm7Aq7AdM03J3U+X/Wt/vGmnBavFe56CY/d8xoyaReppSOKkohbknNUdbx/Z8v0qHWtesNIRjdygOP4B1NcBr/AMRPtELw2FqQrcbnNbQoynsjOU0txbEj+0JsVrTtiLNeZrrOopcNKroCx5GK04PE90F2zxq49jXTDDzjNSJ9tHlaPpv4bjPhqL0ya6sV498NfiTokGlQ2F9I9vOD1YcfnXrFjfWt9CslpPHKjdCrA12SWpwssn7tZus/8gmatPGRWdq4H9lTZ9Kql8REvhZwcn+rNcZeQvrHi+3gVsw22HYV2Fy4itnkPRVzXM+Bj5ranqJIO5yo+grrxE+WnYxw0eadw+0w/wDCcTzTMFitYcE+lddYXcd7apPDny3zjPevKdGE3iDxHdxRq3lGXMrY/hHavW4Y0hhjijUKiDAAryKisepEJ22wyN6KTXM+AButL6T+9cMf1ro704tJj/sGud+HPOhynuZ3/malfCxvc6iiiioGFFFHegArLh1Mya/LYBAUjj3FvetQnArkPCztceKNblbnayqDVLZibOvoooqRliJQIXdvwqv61YYYtF9zVZvusfSgDhvDsoi1TXpj13YFbPhz5p5nPUDNcvpUw+06soP3pqtXGoyWds1va5N3dERx47e9bWuyLmvos1trXjhnuLiMWVj0DsAC1eoT+INKto8y39uqj/bFcVoPwr0iGzWS+MstzIN0hDkc1rj4eeHI0PmWhdQMne5P9a3SsrGMmpPU5L4m+J7DU3tLayuUmhiPnSFTnp0FbPwr0UlZdcvFzPccRg/wr2rhtD8EWviLxVfvYBrfSY2KfKfvEV0t1oes+H5RDpmqyoifcWTlSPSq0KtpY9borj/Bviee/lNhq8Qiv1GQw+7IPauwFSYtWCiiigAooopAFFFFABTZHCIzMcAU4Vna6sj2RWEEsTjigEruxxOveJ9dnvpLTR7NUj6CZuc/SptJ8Ez35W68SXk1055EO7Cj8K6bRtJFuBLOAZOw9K28U0zSUktEY1v4b0iAAR6fAMDGdorL8T+DbHUNPb7DBHbXkZ3xSIMEEV1uKKCOZnz9FqTad4nhlvF8m5Y/Z7lDxz2avQ1IZQy8g8iqPxe8FDWbA6npw2ahbDd8v8YHNUvB2prqeiQPk+dGNkgPYjisasep0wlc3KKFpCyhtuRu64rAsWuR8Y5i1jR5gcATY/OuurkfiKdltp8g/huU5/GqhuJnXn2pKAQQCDkGipe4wooooAK5Lxh/oOraXqKcASCJz7GutrC8a2LX3h+4WP8A1kf7xfqKqO4mbq8qD61xcL7viO5PaDbXQeGL8aloltOPv7cN9RXKWblviHdHP3VC046XQjvs1T8DSeV44vIlOA8eSKuHrVLwoCvxBk2jgw81rh/iIq/CeoOiyIVdQynggjrXE+MdIh0zw/qMtj+6hlGXiH3c+oruK5z4hDPhS+/3a9SG6OCWx83aOc63D/vj+demap/qZf8AcrzLR/8AkNQ/74/nXpurcQS/7ldkjj+0cWD+6Fdx8LjnV1/3DXCg/uxXU+CNWs9Gujd38qxxJGTk965qvwM9GC1Pa5ZUhjLSMFUdSTXH+IfiJoWjbhLdI8g/hU5rwv4h/FS91u8kh0uR4LMEgc8mvM7i5lnkMk0jO56ljmvPjT7mqifRlx8c9MUkRWkje9QQ/HWyJ/eWTivnUuB1o8yq9lEZ9O6d8bNGnfFxG8QPc12uheNNE1nH2S9j3H+EnBr4uElWbO9mt3DwSPGw7qcU3TXQVj7uRldQVII9RS45r5k+HXxXv9Lu4bXVpDPZMQCT1X3r6R0vULfUrKK6s5FkikGQQalqxDVizikbpTwaRhQK55nJ/rH/AN40gNLPxcSD/aNMzzXiyPTRIDxXFeLvGiaYXt7LDzYxu9DWl4x1tdJ02QA/vXGBivFZmku5Xmc5JPU104ehze8zOpUsR3lzPdzvNdOXkY5JJquWGaWRWDlMc1EuWbaBzXpJJbHJe47dRmkKsJNmPmzihR8+1uDnHNMVyVWrU0fV9S0uZZdPu5oSvOFY4rIb93IVJzj0qZbgIW2dCMYNAXPa/B/xlkXZb6/FvHTzl6/jXrLalaat4ee6sZVliYZBBr45VxXS+F/GGoaC2yCVmtj96IngiqgkpESV0er+NL77FoE7Aje42isS3uofDfgZPtDgXFwC+CecmsjxV4msdXhsEjkARjudT6jnFVtZsptZ0uXUbv5YIgBEmewrSunUaS2IoWpLU7j4b6cLTQlnYAS3BMjH1rqqx/CDbvDljjp5YrYryp7noR2Ib0Zs5h/sGua+HAK6TcL6Tv8AzrqJxuhdfUEVzPgD5bbUI/7lw1JfCw6nU0UUVAwpRSULTAH+430rj/AvOpa43/TfFde5+RvpXI+AObjWW9boiqWwmdfQOtFIzhBuYgD3qQZZm/49Y6qv/q2+lW5/+PWKqj/6t/pQh9DyrRHzq2rDsJjXU/DnTf7a8WS3kqlraxG1D23VwNldi2vNbZT87SlVHua95+FmjnSfC8Pmj9/OfMc+5rrUbamEnZHYDgYrG8V2d7f6VJa6dIIpJflZz2XvWyaKq5inZ3Mrw1o1voemRWlsgAUfMfU+tWNT0+O+i2vw3Y1dzRQ9R8zvc42TSLm1ukkRdxB4YdRXXQ58pN33sc1JgGjApDlLmCijNHWgkKKKKACiijNABRRRQAUUhYAZJwKwNR8WaZZXKW/mmadjjZENxH1oBJs6CimxuHRWwRkZ5p2adgBgGUg8g8V4xfWLeFPHUkY40/UcunoH9K9mBHciuM+Kmj/2p4ceaDi6tSJoyPaiSurFwdmVq5rxBNJZa/pdxkiCQmF/QE9K0vDeoDUtIt7jPzFcN9RVPxvD5ugySAZeFhIp9MVyLR2Onob9cb8UGxo9qB1Nwn866fSpxc6bbzD+NAa5b4mkNY2EfdrhTRHSQPY6zTn32UTeq1YrP0Jt2nRj04rQpPca2CiigkAc0gCmyIHRkbkMMGhWDDKkEU4ZJ4oQHIeB82d3q2nMf9VIWUegNY+hyF/GeoyE5/eAVtX3/Ev8aJNkBLuEr/wIZrnPCW46vfTE53XJFbLa5HU9PNReB18zxpfOf+WceKlHOKT4c/P4l1Zj2AFXhvjIrfCejiub+IP/ACKl/wD7tdIK5z4g/wDIqX/+7Xpx3Rwy2Pm3R/8AkMw/74/nXpWsf6iX/c/pXmmkHGsw/wC+P516XrJxBL/1z/pXbI418RwdxcJbWhmlYKijJJrzrWtWudTuGIdhApwq9q2PGupjy47KM+7VxxkIGAa46suiPTih4Vt5XoR1pjcR7s9TjFR7yMnJyaiNYGhal2iNCpBY9fammRNqcdOtV8+9FAExcbjt6U9ZDVanK2BzSEXEkORXqvwb+IbeHdQSx1KUnT5jgZP3D615GjdKJ3wEI4INDVwZ9/W0sdxCk0LB43GVYdxUjV43+z540Gq6T/ZN4+biD7hPcV7IRWTVjN6M8xuf+PiT/eNMYheSegzT7j/j4l/3jWbrU5t9NuJc/dQ141rux6XQ8l8e6q19q8qbsqhxgVywlZMbTxT7qQy3EsjclmJqua9enHljY4pu7HLOVd2PLEVEkrRyb1+9TT3ptaEji7GTeT82c0OxdizdTTKFoAdk04GmUUCJQacXCqSaiWq0zGO6UMSUYYqkBteCbaG/8S263nMJb7ue9e3eLbdIfC9xHEoVQowBXgulTmz1y1ePjLg/rXvvit8+FpnP8UYNdVL4GclW/OjS8G4/4Ryx/wCuYrZrF8HEnw3Y/wC4K2q8OfxM9WGwjfdNcl4IJj1TWoT087diuurkNGZrfxtqMOOJUDiiOzG9zrzRRRUjCiiigBG+6fpXKeAhtbVl7/amrqz0rlfBZ2arrkGMFZ92PqKpLRiZ1dc942umt9LRImIllkVFxXRVynio+frmk2o5y+8/hRFagzsXz9gts9dvNYniS/Gn6VNKD85G1R7npW/MP9Ei9uK4jxWkmo61pWlwk/PKHfHYCnFXYN6HnHgLQbyb4mw2GqlgHbzmXse9fVsUaxRqiDCqMACvHtZutJ8NfFS1v9QuEih+y43eh96sa38c9Bs5NlhFPeN6qMCu2zZzSuz1yivnLVvj5qKnFvpYhB6F6xV+OXiO5ukSBEyeAoA5pezYuU+idb1bUNOkH2fS5buLGS0bc/lVHTvHWkXEnk3jvY3H/PO4Xb+teQ2Pxi8SQEG90ppF7/LXS2XxO8K6+oh1+wNvP0JkTj86bg1uOyZ7FDKk0YeJw6HoQcg0+szw6lhHpcX9lOGtDyhDZrTqGQ9AxRRRSAKKKKACkWloFABRRRQBx+uQaxrV+1lb77OwXh5ejP8ASrdjpGi+GLJrhhHGVGXmkOWP41qa1q1to9jJdXrhI0GfrXj+rnUPHl2XmeS30oH5I+hf61cYtsq+mpY8SfG23ile28P2TXkoOA5BxXCat478d32XadbGI8gAba67WrXRPBmjvdLaxGUD5MjkmvDr29vddvXubqV1jJJCA4AFaT5aauxw974Tpv7X8W3T/wDIeO4np5laC23xFeErFqNy8TjGQ4IIrivsabcKWB9Qa6bwN4vv/D2pRW17M81g52/Mc7ainWpzdkXKEoq53Xwenu7eG+0zUgVuYX3Ybqc13ms2/wBq0q5gHV0IrkdXlisPFemapb48i7HluR39K7rhl+ormrw5Jl03eJg+BphLoESFstCSh9sVifEht1zpMfYzZq14Jl8nV9ZsOyyeYoPoap+P23a3pMfoSf0qEveKex0vht82zJ6GtesHwu3+tGa3qiW5SCqmqy+Tp1xJnG1DVusfxdMsHh+7djj5cUJXYNjfB8zXGhQSPncxPWujsMGcgj+E1zvg6MxeHbMMMErmugssi5GO4oe4I4n4oo8Oh/bYRia1bcCK5b4esz2EU8n35ZN5P1rufiIUXwzf+Z0KmuN8Dqq6TY7TxxW0fhM3uen5wufQZo+Fa+bqOsXHYvtFQ3b+VZyuegQn9K0fhFAyaJcTt/y2mJBrXCrW5FbY7uud+IHPhS//AN2uirn/AB8P+KVv/wDcr0I7o4pbHzVpI/4nUP8AvivSdfdY7KdzziP+leaaQSdahz/fH869E8VkLpV2f+mVdktjjXxI+dtRma5vp5WOcscVSPU1K332+pqJhXny3PVWwxu1JTuDx3oxxzUjGYoJwOakC8Z9aguWONo6mhBcepDDINNl4Q0ya1ubLyzOjIHG5c9xSzMGiHPWgB1q+Rg9akn/AIaqRJIo8xRlR1NTtJvIqhHX/C7WZdG8YafNG+1WkCt7g19twOJYUdejKDX5/afKYbyGUdUcN+tfdXgu9+3+GNOuDnLQr1+lZTRMjirgYuZR/tGsPxcG/sC62jJ21t3BzcyEHOWNVNSg+12M8B6uhArw07SPR6HztIOahard3C1vdTQyDDRsVNVGr2obHFLciNJTmpD1pkiYo70ZUnAIzRQAUjEKMtwKdiqupNtg2KCWPQCgRaBHrUV+m+3JHUc11Wr6HFovgzSnuYj/AGlesZQx/hSuauSFt3z6YqkDKlpOftVoT1WQc/jX0hrEfn+E9rd4FP6V4V4H8PS63cOUXiJcg+9e+wxOPDywzD51h2nP0rroxfKzkqyXMifwcyt4etNh4C4rarlPhxK0mgsjn/Vysorq68OorTaPVh8KYVx1xKIPiDbgdZYiDXY15/4sc23jHSrnOBvCE/WiGug2egUUfSioGFFFFABXG6DJ5XjrVoiwHmqrgeuK7I8V5vezvY+O7S6/gmYxNVxVxN2PSa5NwLvx6ozkW0OcDsTXV5HU1ynhci48Sa1cDnDhAaI9QZ20zf6Ejds14n4i1LXbrxy58Ohi8S+Wz4yFr2LUJ1g0SeRukYJNcl8O7df7OnvWXEtzKzZ9s10YWF3cyqysjmYfhnNq032rxDfyTztyRnpVfxXZ6B4M0zZa28cl6eFDcnNey2unXF0MopC/3jXzN4+mmvPHV5DO29bd9o9K7JtQjcxheTsYM0c2qTfaL04z0UcYpRpyROJLdmWQcg1echeTwBRE4l/1ZBzxXkvEzbudqhHY9L+FPiQaqraXqaRvdx/dYj7wrsNa8GaXrMMkb26RzOMK6jBBrw3R72TQfE+n6goI2yAOPUZr7Es7ay1Gzgu1jGJUDgj3FenRqe0hc4qsXCR4r4H0TxboN+lpGZfsscnyhh8p/wDrV7nblzChlAEhA3AdjT9oU4A4FLWMnqDldBQelFB6VIgFFItLQAUlLSLQAtFFFAHP+J/DdprflvdGVvJ5WNT8pPvT9I8PpGimddqqPlQVvx/eqWuqlsTKXQ+Wf2idQ+0+LYdOhwsMK8qPWuBWMIgCjpXQ/FJnu/iffHaSqyFaq3tqkNocD5vWvOxtT31E7sPH3bmKrhm2qQSO1M1GFhbsXUgjkGs/S2Y6vKvUE5rq9YQNYnjkCuVv2VSKRrGPNFnoXheNPE/wmkugWa/00g4B7Cu60K6W90e0nVt2+MZ+veuK/ZbC3WneILKXlGIBHsRitnwlv0zU9V0Gc/Nayl4/dCcivTrx5oqRx03aTRm6c/2fx++B8s6EfiKg8ZN5ni+xQc7Yyag1KY23iexnHAExX86drshuPGp29IocGsLdTVnTeGDiaUewro65jww3+lsPUV09ZS3KiFcx8Q5NugFc/wCscLXT+tcd8QZAw062P3pZ14ojuDOo01PL062QDGEA/StCy/161Wj4jUegq1Zf8fCUnuNbHJfEWN7jTfsiZLTvtxXJ+EYHslNnLkNBJtweteg3Nu1/4wsbYLuVGLsPQVzviW2Gn+ObuJcBZMOBXVGP7u5i5e9Y2vEs5i0KUg4LKFH413ngS0Fp4WsUxyU3H8a8z8WOZYtNtEyWmlXivZNOh8iwt4gMbEA/StsNGyuZ130LFYHjz/kVdQ/3DW/2rB8djPhbUP8Arma647o5nsfM2kf8hiH/AHx/OvRfEqeZp1yvrF/SvOdI/wCQzD/v16ZrPNpN7x4rslscKfvHzVKuJHHoSKjx61o6zAbbUJkYdWyKqLGZCqLyzHAFefPRnrQI5bCaGOG5dSIpcha2PDXhyfXXnEYKxRqSWx39K9SufB6ap4SsrTd5c8ShlbHeug8E+Gm0nTVtokDyt99gOtc7qo2VM+f7TR57ySeC3DFoQScD0o8K6PNqmuwQMjFVb5+OlfTejfDiG0vp7tVWNpvvDr1rb0bwDo+l3UlxFCPOk+8elL2ocqPGfiV4SN9pdvNp8f7y3AXaB1FeVa9oNxoxhFwrASqGBIr7XOiWOMeSPzrF8ReAdG16BY7uLGw5UjtSjUaBpM+evAnhD+0fC969wuGnGYsjoRXnt7ZSWN3LbzKQ8bFTX11N4XOk2qR2QDW6DAA6ivHfGngy78QeL4rbSIl+0SIXfdwOKqFS7FJJK5yPgnwXqWvr9ptLdpIY3G4AdRX2T4bs/sGh2dtt2lIlBHpxXI/BjSU0nw01q6Kt1C5SXHrXoNVJ3OeT6Hlvl/OcZxmlCHOfSngjNKDXgXPVPIvihoX2O9/tCBf3U338djXAHBr1TxTcXutTXVnvVLNW24xzXIHwdhfku2z7ivVw9T3PeE8FUn70Ucsy9avaBpMmr3ZBJW3T7zevtVLWLeaxuvsyyJKWbbkdR9a7rwyY7eIWkKZ2Ll5B0z6VvOdldDwuF5qtp9Crqvhiyj0uU20eyWNdwbPJxXFxEvGGPWvWbhd0MikZBUivIZZhbyzxYOVc4/OppSctzTMaMYWcUTMyxgliMVp/DzTYvEHjjTrOcgQl9zZOOBXNyu0nLH8K9s+AvgGDV7W41XUVkXjZCwOCD6itb6Hkln9ouzW21LQ0hULAkBRQOg5ryC202bUrySCMnai7zXoXxcuNRtdRtNG1bdKbYkwznq6HpmsjwEinU7wPxuhwDVQFI9P8DaNb6Ro8Hkrh5FyxrfuF3QuPUGobJNlnbp0woq11GK9JLSyPLlfmuct8NZDs1O3z/qpzxXV6hcizspZ2GRGMkVy3g2P7J4i1mEj77BxXUatD5+mXMX9+MivBrx/etHt0XeCMnXdYeKyszYt+9umAXHpXL+PVdk808yQMjk/SovB076rrVpA+SmnoQ2fXtWl4mQXEt3HwQwIpJWZT1Oy0m5S9023uEORIgNWcVyHwuuzP4cEDZ327mPB7V0mo6hBYGDzyQJXCA+9ZSWpS2GQ6gsupzWeMNGobPrV6uUik2ePnjB4kt8/lXV0SVgTEbofpXmPi5HZHniGZYJBIv4GvTm+6fpXB6kgeadGHBJGKcHYUjrdLv0vtHjvFI2tHuPtxWP4Dw9tezL/y0nY59eaxPBN+YtH1TTZD89sGKg/3TXQ+A4hF4fhI/jJY/nTlotAWpuanbveaLe20Qy7pwK1/BfhsWmmW4uFwFUYX1rnYtSaLxjpNiv3ZQxceoANeqJgqMdK7MLojnr7jdqrGQoAGO1fHXiixnm8batKsEhRpj8wU4HNfZArivEHivwrol3NZai8CXHVo/KBJzWtePNBq5FKTjI+XNdt/JtOBg7eaxvDDFjgnOHrvvG32XU7+6l06LyrZzlF9q5XSNLa2l6cFs14UaiVOUW9T0rNyTRN4mT/RldRyOc19W/C6c3PgXSZGbcfJAzXyz4jGLLHtX058HFK/D3SQx/5Z16OXN+zOXF7nXN940lObrTa1lucyCiiipGFFBoFABRiiigAooooAcp5qbtUNSKciuii+hEji9Si8FxXl19v/ALPF2WJlEhG7NeHeN4tOm1O6XRgfsmfl/wDrVq/tFaXJYeJLPUoxthnXDEDvXJWEyz24KkE4rzsxbVrI7sGlbc5yx0hob9pMHk961tWAFi2a0yMDFYXiW4CQiJOWavOpylWqI7JJQiz1L9lKAiPXJyDguBmuj8Youn/FCGUAKt5b4J9SKv8AwV0yHwv4C+13hEfm/vXY8cV554+1C91LXLbxNLvi0uG5EMee6+tfRON4cvU8mPx3G+K/l/e5wY5g2fxqtos73up311Ic8hVP4VN4ndZ9JuZFOVZdwNUPA4J0dZW+9IxNctrI36nd+GOb1j/s11Ncz4WH+kyn/Zrpq5pGqCuI1sm+8cafbqMiFd5rtmIAJPQVxnhVDfeKNU1AjMaN5SGqiuombfibVDptvAIuZppAiit3T2JkhLdcAmuNnJ1jxjFGBmCxG5vQsa7O3/1wx1oewFTwY0l5441Ccf6uJdlYnxatTD4v065XpIhU12fw/tFtYrueTCySyHOetc18bHRF064BGVk25r0VD3LHJze+Z/huM6x47t1cbobRN3417QOBXmHwatcwXWpTcPMcDPpXpZlQfxCrpx5URN3ZJ61g+N/+RX1D/rma2xIpOAwJrn/HU6R+Gb4OwyYyBz3rWO5k9j5o0k41qH/fr07Vhm1kH+xXlmknOswZ/v16nqR/ct/uV2M43ucR4R0Sz1jx3bW2owrJAYWbB9aPEnw1vNI8Z2r2EDS6dLKCu0fc9jVjTr1tH1m01NBkRvtf/dPWvfrK4hvrSK4hZXjdQwPWvLxDcZHrUrWOe0nw6QqG6OAB9wV0cFtDAoWJFUD2qaiuQ2uwpk5YQyGMAuFO0HuafRQSUdFuLm60+OW9h8mfJDJV6haKAEIBGD0rhdFCH4l6hKiAJb25BPpmu6chUZj0AJrynw9e3V/4l123s4HzcNs87sAKuG5FTY9B8BL/AKHeSH/lpOzA+tdR2NZ+h6eumadFbJztHJ960OxrQwPLu9P6nFRg80/PNeEeucFqcXk6zdr2Y7gKgq54wK2WpC5m+WF1wW965ifVJbv93psLOT/y0PAFd1NXR6lCquSxyfj2IQ3vmWgBZwDIR1GDXX+F5LY6ZEtuwLbQX9c1zHiZBZ2v2bcHvJvmdj2FaeiWyX2mRT2j+TdINrEdD9a6mrxMackqrtudVIwVGLdAK8c1Rlk1S5ZehkOMfWvR9G0rW/EmpPpkFzEkaD55c4r1Lwl8FtF050uNRc30w5wfu5p01yq5x5hiFUtFdDyf4WfDS98UXqXN9G0OmIcsWGC/sK+qdJ0620rT4rOyjWOCMYAFTWtvDaQLFbxrHEowFUYArM0PX7fV72/t7cNm0fYzdiapu55Ld9jyH9pGxH2vSbwDsUJrzXwPYT33iRFhLCNRlyK9o/aHtfN8N2s/H7qWuO+ClmJX1G52/dTGa2pg9juguzYo6AYqZeeKjb7y1IvBzXpx2PLlucxaE23juRQflmirsJCBE5bpjmuK16Q2ni/S5gMBzsJrqNcuPs+lXEpOMIa8TFx/enr4WV6Ryfw8a1k1fW3t8bvNxTtU5vpv96sr4d2clhrBmY/LdqWI961tWG3UJ/8AerOceWRqpKSM3wLONM8V3ti5xHdKJEHv3rtfEunjUdIniHEijch7gjpXnGuh7a4s9Rg4kt3BJHde9ep6fcreWMM6EFZFBqJ6alI818M6wb3xhY+dxOkJikHuK9SryTXdKbRfiPYXsJCQTvz6V60DlQfXmlPVJoaFPSuI1EYvZv8AeNdvXGayu3UZvrmpiNnG67ctpF+bxOEniMT/AFr0vwcMeG7Ijuma868aW32jQ5hjlPmFd/4Cl83wppx7iMCtJ/CRHcLIeb8UbBP7luzfzr122f5dp7V5Lovy/Fe33dGtWA/WvU8YkI7N1ram+VJmdRX0LykHoc186/tE6I1nr1prMaExSja5xwCK9Suo9Z8OXj3NiG1DTnOXgJ+dPpVTXde8N+KdHn0/VvMt88bZkwVaumVqkbMxjeDujwaykWe2RgQeKnKjsKytU0+60DU5LezJvLTrHIgJ4qSJ9Wul221hOWP+wa8Grg5qVorQ9SFZNalXVVkv7+2sbdC0kjBcD3NfW3g/T/7J8M2FmRgxxAEe9fPPw28KeIbbxXbale6Y0kIbOH4x719MglkBIxx09K9XDxVGny9Thry55BRRRTZkFFFFIAooooAKKKKACiiigApytg02g002thHO/EHwrbeLvD81jLhZsZif+61fK2radqfg7VnstRjO1T8rDuK+yxWNq/hjR9XnE+oWMM8oGNzDJpztUVpl05OD0Pk6TWWkixBC7sfQVB4f0fVb/X7e4udOuZoFYEqFNfWtp4U0S0YGDTrdSO+wVqxWlvCP3UEaf7qgVlSowpaxRrOtzqzPPbTTdW8T+Tb39udO0eAALCD80n1pvxo0qFPh1JDAgWO3dCoAr0sCuU+J8Qm8FaiGAICZ/KuhVGpKRknqeFeJZhD4ZLA9YwP0q14TRU0K0290BqkLKTxDb2enxtgGIvIfQAVf8Lp5WlpFnIjYoPwOKynqrmqOr8K3sSai9sx/eyLkfhXWV5hpcrQ+OLIfwvGy16ga5po1Rh+MNUXSdCuLhmAbaQvuaxvAMwh8Em+cje4aQn3qHxQY/EHiK30dTuigUyy+mccCsuwufL8LppEH+tkuGhA9FB5q1HQTZ0/gO3YWEt7L/rLpy5+ldE1/DZ3VuszAGV9qj3plhbraWcUCDCooFc9qOL/xhYWwcFbcGVxSpx55im7RKd5qV0l9PsndVDnABrmPGtxdXtjErTO+HGATXXz3OlNJITbvuJOTuqnKulSgBoHIHTmvpoxTglY8LmkpXuUtCvryx02KFJ3QAcgGtAazfH/l5k/76pRLpgGPJf8AOnifSh1tnP8AwKtEopWsQ+Zu9yP+3dQjGVupAfrWfqGr3t3BILm4d1IPBNaq3OkA/PaOf+BVT1WXSnhkEUDoMdQaHbsCcu5wOln/AIm8JH9+vU74hom/3a8p0zjVo8dN/FemysTbnP8AdrKQ+pzQjEkRVuVPGK6DwfdazYP9l0mcSQgFvJk5/AVgwn5PxNdb8Pz/AMT2L/dNclaKcT0oSsd/4X1hdZ07zmXy50OyVD2YVr1xWmt/YvjW5tJAUgvR5kZ7bq7YV5UlZnUndXDj1FFYGv6FPqMomtNQntJQMfIePyrGfQfE6bVi1sMvTLLzQkM7csACSQPrTY5EkBKOrY9DmuKXwnq9wf8AiYa5MyHqqcV0uhaNbaNbmO2Ltu5Z3Ykmiwhnii++waPO45dhsUdyTR4C0hdN0hZHTE83zuSOeazL5o9c8S2tjGd0dq3mS+mR2ruVAUYAwBWkDKo+g+iikzVGR5atOFMzilDV4J7BX1fTLfVbGS3uFDAjj2Nea3EqaKJre6xGYs7c/wAQr1Xfge1eQfF25t7vUIYowPNT7zD+VdWGbcuUqNZ0tUcPc3D3t7LdSDljgD2pINQu9LjlNm4AfqD2po4GKiuRuiNeql0OF1Zc3Mmdz8F9Jt9f1XUP7Rupo3ChgUk25r2aLwo8AP2DXL5PQeZuFeMfBDQ7TWdYulvFYqicFWIx+VeyHwNFBL5um6ne2z9hvyKTKiuZXY258ReIvCtnMuow/wBp2wU7Jo/vL9a5v4beJZIPNnW1n8y4laRxtODk1v3T6/osUi3yrqlgRhio+dR9Ks/CfXtNvTdaZCirLE5ZAy4OCelHKZ1IqOqOf+LupanrmgOIrF4LSJtzO/etH4LaeIPBl5dFcNJnmut+J8Pm+D7yJFALADim+C7Eaf4FSIDrHmtIaGEnoYjZ3ITTyelNOCVzQzCvTjseXPc5H4gjy7e0uwcNDKDn8a0fGF1v8NQ7Dkz7QMe9M8aW32rw9dL1YLkVhWFw2q2OhQv91U+Yf7vFcWIp81SLO3D1LU2jRMf2CXSJAcAHafxqXXEC6hIfXBqx4jiP2FHUZ8pwwFV9WfzTBMv3XQGsMZDlkma4SfNFmVdQrPA8TjhhitL4bakRBNpNw3762b5d38S9q5u81iO31iCyYf6wfe9KL5303VLXVYD8sbBZcd1rkcbo6kzp/inYvPoQuoR+9tnEgrY8Gaqur6Ba3IILbQGwehFXZfs+r6S20h4Z4+D9RXlHw+v7jw/4lvNOuGP2EylB6Ke1QleNuxd7Hstchr67dRf35rrwQRkVy3iZcXqt6rURBnM60u/S7gY/gNP+EeryLajTLsbScvCT3HpT9QG6ynB6bDVnRdHeb4dWer2Cf6XYysxx1KZ5FdCV42IvZnQ2/wC6+KOkSdA8Lr+hr1mQZwR1rxa8vY7jWvDOqQN8rTBCfTPava05Ue9OPw2IqaO4o6c1Vn0+zuDme2icn+8oNWqKpMyKK6Tp46WcHH+wKnjs7aP7kMa/RQKnooC7EChegA+lKKKKQBRRRQAUCiigAooooAKKKKACiiigAooooAKKKKACiiigArmfiSP+KL1P/rma6aqWs6fFqumz2Vx/q5lKmncFueKfCDSpG8KaprV0pDGIxxZ/uisLw0+6wf8A66v/AOhV7bqun2+h+Crm0tVCxRQED8q8S8KD/iXcd5GP60p7G8Xc0ryIW2t+H7njMkhWuy8SarHpOlS3EhwcYX3Ncx4jQLrfh6I8BCXPtWL4lv8A/hJNfFtASbG1bk9masbXLua/w4tJDLd6len99N8zE9hWX4NghvPHmpSROGghdigB4BJrVu5pYLC20uyO28v3CAL1C9zUHgHRTofi3WbMksYiBk96ro5B1O9vrhbSzlncjaik1yXgW7trm41TVrtWeTYx+i+lSfEnUPs+krbRviadsY9qy9BjFn4Ovpc48wiMe9dOEpXjzM5sRUs+VGv/AG54cz/yD5c/71J/bXhzP/IPl/76rhN1NZ69yMEjy3LW53w1zw4P+YfL/wB9UDXfDYP/ACD5f++q4HcTRnmjkQuY73+2vDTf8w+X86S81bw01hIFsZQ+CBzXCg02Y5jajlDmMvTiDq0ZXoX4r0yT/j2P+7Xl+l/8hWH/AHxXqD/8e7f7tTLYSepzcJ+Sut8AH/ifRf7prkYvufia6rwE2Nfg+hrlq/Ceij03xBokOtWiqxKXEfzRSr1Vu1YGleKlsbw6T4hYW96nCSNwsg7EV1N5fxafaPNcMAqrmvBfGs0ut6uuq3EZlskbbs7hfUV5jt1N6KctEe/xukihkdWU9wadXiNjYzi2WbRNYuYY2GQu/cBVxZ/FkYwmrq4P95eazaRtynsDuqKS7BVHJJNclq3jG0N9/ZulutxetwQpyFrhbi01e6Rjq2sTNH1KodornvC2mxwajeXtk7JKHxHJnNGi1HGnKWiPevCuhLpkbzy5a7m+Z2P8q6GuK8EeME1LGn6kwj1FB+Eg9RXa1r6HJNNOzF70d6Wigk8rApcAVA17Yg4F7F+dKt5Yd76IfjXj8jPU5kZ/ijVE0nS5LhsZxhR714PqN497eSXEpJZj3rs/ilrcd5qCWNnOssEQyxXpmuBY16GGpcquzmqzu7C5qKZgYiRTmPymqgbNu3qTXWZHsH7OEWb3U5P9kCvdj96vF/2cYClpqMxHVtoNe0ipZ1U17ohGQQRmuX1TwwkWpLq+i4t7+M5OOj+xrqTSCgpxuQaVq9n4gtZLK9Ty7of6yF+D9RWvcxJDpUsUYwqpgCuY1rRxdst1asYb6LlJBxn2NWtD1s6lptzbXa+VfQKVkT19xVx3Rx1YcqOeKkMDmhqc3G2k7V6kdjx57lO/RZbWVDyGUiuD8E3CnW2syDutgy4+rZr0Cbjgc5rkfDemmHxPqNyVxk0pxu0y4SsmjrLuEXFtJER94EVyEFwTGbKX/W2rFfw7V2griPE8ZsPEsNwFxDcrsY+9YYunzxv2NcJU5ZW7nP3+n/bNSupFGZIEEi/nW7EEubJQ4BV1wRWObuWx8TyyBd8Ui+UV9c1pW0FxptybO9Uo7DzIwe6nmvPmlyK256Eb8xoeANUNhfS6Ldv8pO6At3HpVfV7KFfF13aTDbHeJvjb0YVheMN9tbw6ja5FxbOGBHpWvqeqQ65oFlq9v8t5ZspmU9QO9Y2s7o2Or8G6nJNDJp96f9LtvlJP8S9jUnilCfLfHTisjUonMEOs6XxOqhiB/Gvoa0pdQj1jw/HdRfez86/3T6VEo2d0O90YFwN0Eg9VNdx8EGjn8IXFpINwSZ1YH0NcWRnIrpPgxcpb6lq+nEYZiJl9xWkGZyWhynj/AEi78L6qixORpRmE8JP8LZ5WveNDuxfaRaXK9JIw36Vm+NNAg8R6FcWUyqXIzGx7N2qD4dR3Fv4agtLxGSa2JiIbvjvWmhnJ3R01FFFSSFFFFABRRRQAUUUZoAKKKKACiiigDJfWoF1z+zCR52zf+FawrznW7a4PxJt5IUbYYACwHHWvRUzsGeuKCpKyQtFFFBIUUUUAFFFFABRRRQAUUUUAcp8UJvJ8G6gQcEpivI/AlputbSNxnI3Gu/8AjfeCPw9FZg/PcOBivJb/AMSNpUEenaUA97Ioj3D+CnJNqxrDREnxG1CS88X21ppkvMcexip6etX9Pit9Is90pGFGW9WNcnoVomnavdXd7MZJEHzu3OWPYVrQCe/nSeVCfNbbbwd2PrS5ehVztPhSP7Z8XXF5eRnzIlBTPRB2FXNNvYbr4geJJImUojBSQfQVNdN/wgPg0Q/K2tahlQR1BP8AhXmekahLoy6yC+67nwN2ecnqafJzLlQr2dy/4quv7S8SSSq+6GH5VA6VrarJ9m8NWFuODKTIRXPWVsYoIVkOGdssxrT8R3aXFxDDEwaOCMICO9exSpcijE82rU5m2ZJbimZzSnpTa6zlHA0AnNNpwpgPB6Ukx/dNQtMn4ibNJjMvSv8AkKw/74r1F/8Aj2P+7Xlukf8AIXh/3q9Tkx9nP0rKYR3OYiPyfjWz4d1W30nUUuLhh8qnA9a52e6WCPaAXlY4VB1JrS0jR3kcXWpjMn8KdlrkqNWsdsqiirieKfEOrapdw3Fwpj0wSYZR6eprciEbQKEwYyOB2xS3VvHcWklu4Gx1xisTQ52s3fTb07ZIuUYnhlrzcRB2ujvyzExbcZDpbS60p3udKcbOrQN0P0pLLxzbTROrwTC4TgqFyM1na/ql3ds9tpcLyov+tdOwq74fu9KMAih2JKo+cSDDZ96xXMldo7ZKnUm1FlaDUbjxNKyNJ9mt1ODHnDNXS2tvFZ24jjAVFFclrpjvb+KLRQFvA3zSLwAPepNQ1PU4bQ2VzaSGd/kWWPlT70OnKauhRr0aLcW9SzaBtU8QyXVrK0YtcCORe7V7D4E8WjVd1hf4jv4Rg5/jHqK838P6emm6fHEB82MsfU1YmheG7iv7MlbuI5BH8Q9K7FTtGx4ksTz1G3sz3bPFBrnfD/iW11PT0lLbJQMOh6g1onVLcD79Y3SNlFtXPnaqWsXYsrGSX+IDA+tYjeIn/wCeYrE1fWpNRYQ9EU5NcUcLO95Ha8TTkrIply5Z3OWY5NMJ9Kr30hjiwpwxOKljBCLk5OK9BKyOdu4TNtibPpWbbS5j2ehNW799sOO9UrGIyuFUcucVSEtz6Y+AlmYPCBmYY86QsK9LrnPh7p/9m+EtPgIwfLBIro6ze52x2CjFFNkdUXLMFHqaZQ6uV8V2z2Vymr2xKlRsmA/iWuoR1ddykEHuKhv7ZbuymgcAh1IwacXZ3InHmi0cpHJ5sccin5WGRUtZejlo4DbSf6yByhHt2rU6CvUpu6Pn6seWViCT79NSNEZmVQCetOfljRg1sZIkA+UGsPxlZfa9ElYf6yH94v4Vux/dqvqLRrbfvv8AVl1VvoTWU/hZdL4kc18IvJ1PxdM08aSRmEMAwzg12/xX8Om5tItWsU/0m0+8B/Eneud+H+iHQPiXe26/6mWPzI/oa9kliWaN45ACjDBBryJLU9ZycWj5zuUTUtMdRgh1qDTbE3+gS3dlH/pliphvIB/y0Ts316Vr+J7BPDHid7AsPs9yPMh9uelReHL1fD3iyO7mH+gXa+VP6DPc1C00NLifDzUBcWUtm3JhYgZ9Kl1e2l0WWe8s0L2k3+ujH8J/vCtDU/DyeGvGcV/Zc6VqXyZXkIx6VJqzalokjprdmZLFzhbmIblwemabQ1IyIJUuIxJEwZT3FWPClwdO8fWE2cJcKYmrDv8AytHmF7ZyCXTZj8wB+4TU99Lutob+0bLQsJVI9KhLlYPU+jFpQAOlUNA1KLVtHtbyE5WRAfxq/VswCiiikAUUUUAFJS0UAFGKKKACiiigAooooAYYkMvmFRvxjOOafRRQAUUUUAFFFFABRRRQAUUUUAFVdTvEsLKS5kVmVBnCjJNWqRlDDDAEehpgeQax4d1X4g6pFdXO+x06E5jU/eauK8Z2OjeHvEyW9sPmtYhk9WdzX0HrmoQ6RpVxdykKkSEgep7CvDtN8D6p4t1FtVuE8hbmUyGVuoXPAFUnY0i7nHaDpt3qN/kwyXU7uWEKdAT/AHjXtPhjwvFoEba54hkRbhE+SMYCxj0+tdHZWGjeC9IaQiOJFXLyn7zGvGPFPjGXxxrb2dlIyaXCeQON9D7jvcdq2py+J/Es2pz5+yQ5SBe2PWuPjh+3eJZ50J8pD09a3Neuxp9pHZ2gxLJ8oUdhTdNtFtbVRj525Y+9deDpc0uZnPiKnKrIlvRhVqgTzV++6LWe33q9U86QZoooqiQpVpKWgBw6U2f/AFTfSlWkl/1L/SkMytHGdXh/3xXf6zqa2kIiiHmXD8Korzq1m8i+ST0Nd/oFgZT9vuxmZ+VB/hFc1WfKg21YmgaJ9mAub0+ZcNzg9FrfNLSGuJu5Lk5O7FrK1zRYtXSMu7xSRnIdOtadOpBGTi7oq6dYw2EAihHHc9zVbUtCsb9g80IEn95eDWnRUj9pK9ylp+m22nJttowPU9zVw4PUA0GkqhOTbux1KtJRQK5z3iGa+0ucXunyOsbfLKq/zql/wkupMMrdPj611csayxsjgFW4INeceL45dBm82KJntG6Efwn0rlrUnLWJ6WFxCtyyOr8Y+DtJ0nSyYSxuH4QH+deOQReX5h6nJ5r3DxpILm01XUXY/Z7aMxRf7xrxRIpZ2jt7dS00pwAPetmx4em1BN7sz5X86+RV5VOtXx0qN9MOnajcQs+90IDH3p0rBEyetSzcz9QfJI9K6P4ZaLJrfiS0t0XKIfMc+1cpMd745JavpP4F+F/7K0X+0bmPFzccjI5C0bGkI3Z6dBGIoY41GAowKlFFBqDrAnHJritaup9e1pNJsWZbZDuuJlPTH8NaXi3VJ7dIrKxVjd3J2qR/CPWr3hvSY9Jswgy0z/NI56k0Esv2lulrbpDH91BgVN3oooKOK8WWNxYXv9rWamSI4WeMenqKWCZZ4FkjOVYZFdlIiyRskg3IwwQa8+t4pNM1a50+T/VlvMiPse1deHqfZZ5mMofbRdPU0hZVPJA+pqC+ultYi7ck8Ae9RaZ4Vu9YgNxqdzLAHOURPSuudVQWpxUqEqmkS+txCoAM0Yz/ALVc94qmm1K2bTtLUy3LkEFegxXTWngLTYnDTSTzY7M1dBp2k2Wng/ZYFUn+Lqa5Z4lNWR208C1K8mc3oN+V1bTG8QWz2d9bp5Im6pIMcZNeoowIyDwec1ymradFqVo8EyjkcHuD61yi+LL/AEq0k0GaN3v1+SKbsU7GuTlcnobVocquZ/jq1TxTq9+YWHmWi4hceorkrCVb60kt7pcTR/JIp9fWu+0OwFjA27maQ7nPqa5Lxlprafqseq2inyX+WdR/OumpQ9xNbnJTr+/boangnxQulyx6L4jVZbAsDbzuMhD6GvZAtveWoGElgkHHGQRXgMscN7bAMoeNhkU/wL4t1nQZry3YNd6bbtnYTlkX2rjinLQ6pW3O38a/C6z1G0nk0l3tpT8xiB+R/bFcDbaLc2mnSz6cjTRQHy7u1P3oz6geleweHfHmha4qi2vFSU8eXJwc+lY3iuB/D2vReILJN1lNhLxB0IP8VO3Rji31M74Ia7BPaXekeYPMgkLop67TXqnSvLdc8KjTdXt/FfhQdcNPAnR1PcV6XYXH2uzhn2lfMUNg9RSaJlrqT0CiipJCiiigAooozQAUh60tFABRRRQAUUZooAKKM0UAFFFFABRRRQAUUZooAKKKKACiiqWs6hDpemz3dwwWOJckmnYDgfHTzeIPFNhoFuxFuhEtwR6e9bPifxpovhDThFNMhkjTCxLyeK8ctfEOs6lqOpXlhKsKXL487HzY9qy9a0dLy2ZWmae7LhpHkOTirjHmaiXKyVy/r3ifUfG8265BgsF+7Gvf61jeEYYrG91MAYCHj6Vr2cC29vHEgwFGK5fUrtrTVbuBDh7gACvQq4dKmkjmp1m56mjpxbUtTmvJR8q8JW4elVdKgFtZomMHHP1q0a7KUOSKRzVJc0rkF4PkWqHer93/AKsVQJ4rQxY1qBQeaBQIWlpppRQMVaJf9S30pRRIP3TD2oAxdJt/teuW8I6btx+letIAiKoGABivO/AVv52vTzMOIlwK9GrzazvIJCZpabRWRAUUUUAFOptOoAQ0lFFABRRRQAVX1Gyi1Cyltp1BRxjntVilzQCdtTH+Jkbaf4Bs7YcSXEgZ/fvWL8I9BSRb/XbtCY7aMiEHpkdTXWfGu0lu4dIsrRSXeTYoFaGtW0Pg/wCGM1uMLM0W0n1Y1imfQqFn5HgFw7T3lzM/V5GYmsu7ffJtXp0q/Kxjt8n7xFdP8KfCEniPWo5p4z9ihO5ie/tQZJczE8C+CpNQ1iwS4UlmIldSPur2zX09awJb28cMYAVFCgCqtlpFjZTvPbQLHK4Csw7gVfFS3c6oR5QooopFkbQRNMsrRqZF6NjkVJRRSuAUU6m0wFrh/iNDLaJb6vAC3kHEijuDXb1Dd28V1bvBcIHicYKnvRGTi7kTgpqzOI0HS5tfaG+vV8q0XDRp3b613aKEUKvAAwKhsLSKxtVt7dSsS9ATnFWKqc3J3YqdOMFZBmigUVJoRzyrDE0jHAUZriISdS1eW+kVdq/Khx2rR8b6t9mhisoMme44wOwqKxi8i1jQ/eA5rqw0Op5uNq2XKifpTLiFLiCSKVQUcYINOpTXYeSnbY8zEEui6u9hPkwOcwsfT0q74aKR+KbiBgCk8XQ966LxdpP9paazRD/SYfnjI659K4XRLtpfEGnyuCsysYpFPY1xyp8lTmWx3xqc9Oz3Les6Lb6ZqxhKFIZjujdeCrfWrrXuuxWDWUF+JrZwV2TDPH1rqPE+nDUtPI2jzU+ZD3FcNeXDy6PMYHKzxjB9iKyr03GV0a4epzRszs/g94nuLad/DutMPMGWgc9GHpXsC4xx0r5k0y4Gs2ENzA5i1CAgq6nBBFe0fDvxaut2X2W9YJqVuNsiHq/+0Kwe5tJX1R2lFJn0oHWpIFooooAKSlooASjNLRQAUUGgUAGKKKMjvQAYooyPUU2SRIxmRgo9zimA6imJKkn3HDD2NOOc0gFooooAMUUUUAFFFGaACvJfjfrfmwQeH7Vj5twd0pH8K16H4p1y38P6RNe3TAbVO0f3j2FfP7XE15c3uuamT50pLKG/hXsKrYuC6lbwiVtdMlizhYnI5qDw/efb9Q1FwPlAwKyNK1DzdGvWTIaSYgVpeHoBYap5Q/5aR5NdWHpu/MZVaiXumtWVfaUlzqMF0eqda1pBtkYHsaYa9dLmWpwXaY7tSdgaO1A6VRJDe/6sVnt0rQvP9WKoHpSJYzFHSlooATrSiilWgBRSTHETH0FKtMvW22sn0qXsCL/w1ibyrudhwzkA+tdpWN4PtRbaFBxgv8x/GtuvMm7sUtxtFY11fz6dqQW6O6zlOFf+4fQ1sjBAIPB5zUiasFFFFAgooooAKKxpNZlk1RtP060a6nUZYAgYq8tn4plx5elRqPVnp2NFSk1dFuilTw54nkALG0iz254qYeEvERUk31op7DaaLFLDzMvV7k2lqJR/z0VfzOKu1zvjDSfEunWsDXxtpbNp0DNGDkfMK6FfuL9BSsROm4KzO+1HSIb6/tLmX71udwHvXlPx41dZJbPSYmyQfMfHavYr2YW9pNKTgIpOTXzBdSXHinxsI5HYfaZfLVyONoPaueJ9DN6aFTwz4du/FGrR21sjCAEeY+OAK+m/DOh22g6XDZ2qBQg5I7mo/DHh2y8P2CW1nGoI+8+OSa2z0obHCCiJRRRSNAooFFACFlBwWAPpmlrG1/SJL/ZPa3DwXUQ+Qg8H2IqpoWvSNc/2fq0ZgvVHBP3ZPcUrCOkooHNFMAoooqRhRRRVAFHY5orjfG3itNOT7DYfvdQl+UKv8NOKcnZETkoq7Kl86X/i+WTG5bdAoPbNahORWV4ftJLa133J3XEh3Oa084r06UeWNjwK9Tnm2OWjqaAc0vSqMR3avNPFelvp/iuxvLYfuZ5RvHofWvR881U1KxjvljEmPkYMD70nG5cZuJcBzwa838RWx0zxBIuz/RbtT9A1ekYrC8Z6adR0eTyh/pEfzIfepqQ5o2Loz5JHKaLpG7QftVgMXUTHIH8Q9KbG0rzx6hp7mG/hOSAcfga1fhfJM+kT/aFKyiQhgR0o8Vac2n3Q1K0Q+W3EyKP1rmq0Lw5ludVOvafKz1TwP4pg8RWGThLyPiWI9QfWulHWvnQXdzpVxHrWjyYkjG6RR0kX0r2HwH4007xZpyy20ipdAfvISeQa4rXOmUeqOropKUdKRIUU6m0AFFFFACMcAkc1xuoah4qmv3i03ToY4FOBJK3UV2dIaY07HEtZeMLlgJL21t1/2FyabJ4Z1+4P7/X5FXuEXFdxzS4ouPmOf8PeH30qZpZdQuLpmHIkPFWtd0K21mMJcPKv+42K1sUUXFzO9zkNO8Fpp1wstpqF2NpztZ8g11yggAE5paKAbbCiiikIKKKKACq2oXkNhaSXFw4SNBkk1LcTJbxNJKwVFGSTXhvxG8YnW3ezspcWStg4PLmqimwS6sxfFvi9/GXiyK0RSmn22SB/fPrWP42uf9B+xwnlhlsdgKrx2Y03VILp+NyHIx0qpNuuIL7UZ/4hsjB/KuiFB89mTKsuXQp6LEqzwWo+6zCTNdBdlY/EMYX/AJ54pdK0ZYxZXJOHRACKjlXzPEjN/dXFejShynA6nPM02OTmk70veg11EgelAo7GkFAEV39wVQJFX7v7grPIpEsQ0gpaTpQAtKtNzTloAVar6mSbYIv3nYKKs96SOA3GqWcX8O7cazqO0WNHd2qeXaxIOyAVLQBgAe1FeYzNkN9bx3dtJDKMhhisnQLl4JX027J82P8A1ZP8S1uVBLaQyzxzOmZI/utSGn0LAparz3CQYDn5jwAKnHNMlCU6jFVNRvI7SHc5y7cIg6sfagpRu9DzuW7ubHVtQ1awlMc9vLxzwR6GuwtPiD4kuIY3VbTJXPXNP8IfDG81Vp7nWXaC0nff5PciutvfhLpywE6TcTW86jjLZBNUq1NOzPTVKfKcjJ4w8UStnzraMegWon8R+JZB82oqv+6tUtSs7/Q7wWurwlCThJR916qtJPcalb2FnsE8vQucCu2MaLjznO3V5uUTWdS1i5NrFd6i80bzKDGRwea7dfur9Kzz8Mteukina9thJG29VHOalV7ux1E6dq8YiugMqw+649q4p1ISlaBNalUteR6pe20d5bSQTDMbjBGa858U6Pa6f4s8Mw2UKRqJGPAr02uG8TATfEDQUP8ACGauVHuSVzuRzT6aKKllBRRRTGFFFFAgrE8V6bBqOnESZSZTmOReGU1t1l66+IkXPU0AznvD/iWWznTTNcG2bpHOPuv9a7QHIBHINcHq9vbXFo63eAgHDd1rI8I+L73Ty8OpK8+nI+yO5xyB2zTsTfU9UoqG0u4LuFZbaRZEbnKnNTUiwoJoNcv4q8QfZV+x2Hz3b8cfw04xctEROagrsPEevmJ/senkPctwSP4a5/StGjt7h7q5Pm3bnJdu1T6fZiAeZKd07csxq+G5r0qVJQVzxcRiXUdlsTZwKAeKjzTh0rU5CQU7NMB4py0rAIaB2oNFFgHUh54pc0nemBDBbxW+/wAmMLuOTjvT3RZEZHUMp4INO70tIdzzvVLJtF1B4WybG5yEPZSe1cxoovLDUpjaM1vLC/7uZeAfY165renR6nYSQSD5iMqfQ+tcJ4LhabVtS03UB84HUjr71xzoe9od1Ov7up6d4H8fxakVsNZ2W2orxknCv7ivQFIKgggj1FfOeq6aYZjaXWQ45gmHB/Otv4f+N9b06GWHVomu7GF/LEi8sorldN3sdF1JXR7jmlzVHSdUtNVtEnsplkRvQ8j61drOwC0UUUgCiiigAooooAKKKKACiiigAooopgFBIAJPQd6bLIkUbPIwVFGSScAV5r4o8YTavff2J4ZbfIx2y3C8hR3xTjFsErjvFl1eeLdV/sDRXKW6n/Spx0A9BWB4n+F8egxx6npLSTxwj97G3J/3hXqXhLw/BoOniJAGnfmWQ9WNbkqLJGyOoZWGCD3rqhHlIk76Hyt4i26jax/ZHDMDggdRVDVCqSaZpg4LMGb8K9N8b/D+007UzewNJDazt95D/q2Pr7V5Rr+jX+n6+ZGuPtEkGGjb+8DXRGsnK3UweHaV76HaH5I/QAVzelky6hdTHkFiBXVWvhbxTq1krRQRQCRfvMe1YV1oWpeFryO01REYzZKup61vGvGUkrmEcPOCcmWqKO1NrqJFBxSU4YI5ppGDQBFef6sVnk4rQu/9WKzzSJY3vS0UUAFKtJSrQA4dam0OWMeIELnAVDnPaoRVSxIF5dXEp2ovyg1hXdojR6Sro/3WB+hp9eeR+IYYZAY2lIHUhTitq38YWLW+WZmlHG0Dk154uRnT1FczLBEXYj6VzQvta1NsWkItoT/G45psnh/VLhsz6oQPQLQLk7ssJI1zexsxzlq6YV5/DZ6h/bSwaffmQRcu7IMKa3dNXX9T1d9Os2SZFwJJwMBKTdtWaqk5u0TVubyR51s9OTz71+AoGQPc12fhPwPHZzJf6y/2q/PIB+7H7AVqeEvCtroUW/HmXbfflbkk10mMZrlnVvoj0KNBU1ruY3iLS5NRtVjgvpLPb3QgVyU+mavo0DyxeKY2IGdswGD+tafiPw+Cs97fa1dQ2o5KKcACuD1H+wlsJnsrDUtR2g5kd220RVzouZ+t+NdR8SWVxpl3ZWr+U4H2iNu47isfStP0fUbmSLxDqklnJER5Xl8Ej1zVfw/Go0/zI02CRmbae3NXdA1jSNEu5n1rTFvS7fLJ1IHpivSnTVOj7pxRqc9XU7XR7bRo4vs+meJbtJwfkaVuCfxrY8UaDqOr+GfNvmh/tKyy8M8R++B60zRtU8G+I4VgFrHBI/AV02n8DXS65JaeG/CVxtdhCkZCb23dRXm3aZ2NK1mahridQH2r4kWITB8iBmb2rsriUQwu56KM1w/gdW1HxJqmquSVz5SfQVSOlneUUUUmUFFFFIApDS0YqhMSsPxBKquAxwFGSTW27BEZ2OFUZJrhr6K48UamYbctHpqHEj9C+OwoAzRFJ4kuWjh3JpsJ/eSf3z6CtVLaGKD7Oka+SBgLjtXRyWsGmaV9nto1RANoAFYRpk2OeurG60bzL3RLloio3NAx+Rq1LfxZrAtY5JtNR9yg/K9LrA/4llz/ALhplhj7Bb+yD+VdFGmqm5x4mtKlaxK3ibVbyBo0sRAWGA5bpVfTrEQbpZW8y4flmNWsgcinrya7KdGMNjzquInU3Y7NOFMHWnKeTWhzkq4696cORTFFPBwpoFcAafmoakByKQA7YxQDSMMkUmcHmgCSikBzStwwoAKKKKSGJu5rn7nTHj8Uw38CfK6bXI9a3iOadnIoaKTsZfiDTlv7Nh0lT5kPoawfBExW+u7aQD5hkqfXpXYEZFcx/Y8tp4rjvrfcYJARIPQ+tRKN3c0hU0aZb1KG70bfqOhSeVKnzNF/C4rY0H4oRvDF/btlJa7uPOQbkP8AhTpoxLE6NjawwfpXI6BJbi+vdImKTIp3KDzwe1c2Ippao68NPm0Z7fp+oWmowLNZTxzRkcFWzVo14d/Y13pdybvw5ePaS9TFnKN7YrodF+JU1pKtr4ptGt36faEGUPvXEdLg+h6hRVXT9QtdQgWaznSaNuhU5q1SZAUUUUgCiiigAooqtf31tYQNNdzJFGoySxxRuBZrm/FHi7TdAjIuJQ9x0WJOWJrjdd8f3uqzNaeFoSEPym6ccfhWJBpMOnxTahqcrXN1gu0spzzVWsWo9WY/jTxJ4h8S3NvZRsbO3nbHlIfm2+9eq/Dbwpb6HZoypmTbkuepNcf8PdJbU7p9Xuk/eTHEQP8ACtezW0QhhVB2FdMI2Im+hNRRRWhkVr+zhvrSS3uEDRSLgg188+MtBu9C194bti9tIP8AR5D6dhX0fmvO/jbBGfCguGQFoZAVb0pxS5rhurHP6N4khhgsLuW/x9mjMc0Hdj24rkfEWrS6/q7XkwIjGRGp7Cs+3CTQRy7VJYdakYeldNLDRjLmMqlZyXKN6cUUpoHSuw5gFIaM0GgCG7/1Yqg3atC8/wBWKzzSJYhpBS0CgBD0py0005aAFA4ra8L2lrfaU6XESuRIc5rHWtXwO5D6hCe0gIH4VzV/hH0LGq6Rd3EggsxBb2mMFlHzGptH8N2OnAPsEkx5LGtzNJXDclzdrDiABgYFZmv3v2DTnkXmRvlQeprRNc54zztsP7vnDNAo7lnRLT+ztFd2yZ3UyO3vXpHwt05LTw1FcYzLdEys3c5rjpIhLatGP4k25/Cr3hLxnb+HNL/s7Xy0YgyIpQMhl9PrWVVNrQ7sJNXdz1SszW9ZsdGtvOv7hIl7ZPJrzy9+I2o3rsNE04mA/dlk71514ql1W51e0uteuPMikJBQcKtZ06Lk7M6pV4x2Z6ZqfxY0Vy9vDaS3Z/ulMg1zOteOdS1iyezsLBLG1fhieDj2rmkewSZpUeMMRjipTfWv/PZPzr06eEpx1bOWeJm9EiS3j8qBYh0AxUvh7V/+EYvLie40+K/tJTkhlBZPpmqT6laL1nUn0FUbzVoZUEEIdmkIQHbxz710V1CULNmFKUoyuj3Dwb4n8PeJdotLOOGcDIR4gD+FQfGu2E/giYDI2sMAd/atvwl4fs7DR9P/ANHjFxHGPnA5yayPjJbXNx4RItRykqs3sK8HRS0PW6EnjbUvsuk3Ow4IQ0/4fWH2Hw7DuH7yX52P1rlvHc7nSJGHO51B+ma9A0YKNJtAv3fKXH5VZ0dS7RSLS0mWFFFFIAooooARlDKVYAqeo9aZFDHCu2JFRfRRipKZNIsUbO5wAKoRka9JyiA+5FY561NeTmednPc8VXoQFbVSBp0+f7tQaac6fD/u1X8U3Bi04xKf3kpCrVrT4zFYQo3UKM13YVaXPKx7WiJ1HFPBweKbSp15rsPNH9aVetIOKUEk0CJVbAp2eDTcYoPAqQEJpw44plOzzQA8dKQ84pAcUtAD+gpCcmgHAwadQMQUtJmlB4oAb3p1NNJnjmgBx6VGzBMsxAX1NY+q+IrWy/dqfNm6BV5Ncrp15r3jHWzp1hE9vAp/eOR0FRKaiawpOR1F/ez6pONN0Yb7mQ7Sy8hfeotc8ASeFdNg1u3lee7iObn0KnrXqHhTwtY+HrVVgTdcEfPKeSTW1e20d5aS286ho5FKsD71zVHznZTXJseU2ky3NtHMhyrjcKWe3inQpNGrqexFY+hB9M1C+0S4J32sh8vPdD0rcrhkrM7dzA/sObT5TPod5LaSZzsB+U/hW7o3j+/0uQQeJ7RjH0FzCMj8RS55psiJKpWVQynsRmpuFrnoWk65p2qQrLY3UUinsG5rSBB6V4nceHbVpDLZyzWk3UNE2Bn6VYtda8XaKAEmh1GAdpBhsVW5m4dj2So55ooIzJNIqIOpY4FeZH4mXwg8s6HOLvHqNn51gXv9veKXDa3cm2tM5FtCcfmaLAoPqdn4k+ItjZ7rbR1N/engBBlQfc1xU1hqfiKf7T4huWMfUW6HCitPTdKtNOjCW0Sr79z+NXh6Ur22LUUiK1tobWMRwIFQdgK5/XjJrOqQaNaMdhIedh2HpWxrWoppenSTty/3UHqe1XPhvoEgU3lyN11cHcxP8IPatIRbdxTlZHceFNOS1tl2rtRBtUYroqjgiWGMIg4FSV0o5m7hRRRTEFcH8aojJ4CvcdiK7yuH+MrY8C3i/wB5lH60AeISaXfaHYQTqrXFk6gkjkpUlvcRXCB4nBH8q9L06JW0qCORQymMAg8jpXI+JPBzRyte6GRHL1aH+Fq7ITcUc8rNmORSEcVStdQDytBdI0Fyn3kfj8qvYOK6U7mTTQi9DSU6kNMRDef6qs81oXX+qFZ5pEsSilxSUAFKtJSrQA9aueHpfs+tlf4Z1/UVTHajf5N5bTZwFcZ+lY1o3gNHfUUKdyg+ozTq84zExVDWbAahZmIna4+ZT6GtCqWq6lb6ZatNcuFA6DuaBx30MMeJG0+MW2oQSC7X5UCjiT3FIlnfa8ySakiQ2oOVi6k/Wq+hxya9qR1G8G2OM4ijI6D1rsAMDA6UFyko7biRRrDGscYAVRgYqK8tYL2ExXMYdPQ1NRQZ31MNvCmjt1tvyNOTwxpCdLVfxraoouVzy7mfDo2nQ/6u0iH4VJd6dBcWrQiNU7qVGMGrlKKBKTWpd8L/ABFtNNxpPiOQw3MQwkp6Ovajx7410/VdHk03R5PtM82ASoOAPrXAeONLt57u0uLlSI2PlM390noaittB1mxj8qwuLUQ4wshX5sVl7JXuehHFe5rueia9bR3WlTxSEAFSQfQ1u/DzUDqHhm3LEFof3ZPriuYk0y/1ZGNy/wBntiDhB94/Wtb4VW4tNEuLcMDsnYDn3qWtDup4iFSfLE7UsFBZjgAZJqlBq1jNny7qI4OCN2KukA5B6VhXfhTSrmRnaAozckoxFSdJtpKjjKOpHsaeCD0INcung61j4hvLyMeglNXbHQPscm5NQvHH91nyKNA1NuigDAxTqBjaxtdkl+VMYjPetmobqAXEJRqSEck3NJTpYzFMyN1BxSMQMnpTQHJawGfxZZpKf3WwkA+tdL2A9q5u8Zb/AMVwCIgrbLkn610h7Yr0sN8B4eNd6gtOHao++aevNdByD6VOtN6A5o75FAiYnNGeKiBJNKM0gHGgdajIOetOU4oAex9KXNNJ4pmTSAsjkUbuaiVmFI7GgCYtik3gAk8D3rP1HUYLCAyXDgeg7mucN1quvuVslNvan+Nupqblxi2b+o63aWXBk3yY4VRk1l7tX1oDyx9ltj3PXFamk+HbayUPJmacjln5puq3lxcXiaVo677uThiBwg9alt9TeEF0Mux0RJdQGnaQhmu2/wBbO3IQfWvYfC3h+10CwWGBQZTzJJjljUPg/wAN2/h+w2KA9y/zSSHkk10Nc7dzoSsFNkcRozN0FOrN1u48q12Dq3FIZ5H8SFez1q316AZUMI5sd1NaUMqywpIhyrDINWfHPkHwxffaMBNh596xPADNqnhGC5iJYxfu3HcYrmqrqdMGalFLQawNBKM0YoxQAdaWgCloASjOOT0FTW0ElxIEiQsx9BS+KkXRNIVeJNQum8qGMe/emldivY5mztn8UeKUiiXfZ2bcnszV7ZplklnAqqMHHNc/8PvDaaFpCeYAbmT53Pua6yu2MbI5pyuwoooqiAooooAK84+Nt4qeH7ay/juJ0AH416PXkPxQlN7410iwGGWP94R6Ypx3AvWsfl20a+igVKaWiulbHIzn/Enhey1xA0i+XcD7sq8EV59f2+o+HpvK1FDLadFnUZwPevYahu7WG8gaG5jV0YYIIpqTWw733PLoZUnjDxMGU9xT6v6z4RuNLd7jRT5kPVoD1/Csayvo7lnjYGOZeGRuCK3jNMlx7El1/q6oMBmtC5H7us5+GqyGJmkpTSEUCClWkoHWgCSknUNCwPXFA6USD92/0pMZpeGPEkbgWl+4SReFYnqK6kzwhQxlQA9814jrBICkHB3dRXT2elCW2hZ57hlKg7dxxXnVIKLKcE1c7DVfEtlYqUicTXB4VE55rlzDPqVz9q1Ikt/DH2UVPb2ENucpH83qetWqzsJWWxc0i4FrMB0Q8GumQq6BkOQa42rNvfTQDCNx6GkS1c6oilrCTWXxhox+FWYdWifiQFaCeU0qKiinil+44NTY460CsJTlptKDigCprFvDc6fNHcDKFT+Brl9F186aRZarnyl/1c3UY9DXQa7OEt9gPzNXIaqEawm3qD8p60zSCTVmeyatcfZtMuJs4KocV4vYahqVpdS3VheyRO7klc/KefSvWPF7hfD9yCeduK8ig+WFRXLUlY6cohe7Oz074m6zaAJfWUVyo/jU4NbVt8W7E8XWn3MR74Ga8z3c0ZzWSqHv8h7JafEvw7OmZLh4T6OhrRg8beHpuU1OL8eK8IaONhyqn8KYbaBusa/hT9ohezZ9AHxfoWR/xMoP++qZJ4x0FPvajD+dfP8A9it+6UfY7ftGKftEHs2e8S+PfDsf3tQj/AZqjd/E3w7brmO4knPoiGvGBbQf881/KpAiL91FH4UnUQ/Zs6zxB8RwzyS6bYSMp53SHGK5iXxFrWsxB2uPs8L/AMMfWqOottspiP7tO0wbbOIf7Ip8+hPs9bM3vhzvj1i7jkkaRioO5jk16R9K808FSeX4mZf76V6XjNerhvgPAxqtUEpynFM5zThXQcpJ1FH1/CkA4pccU0ALyaeTxUY4NPPIpMBhbmnDmmlaVcimBIelRk4NBOcYqhqmpW+nR7p2+Y/dUdTS0QJXL7SKiFnIVR1JrAvtdknuBaaRH50pOGkx8q1Elrf+IGDTbrWx7L0LV1GnabbWEIjt4wMd8cms5M1jC25kWPhxXcXGqyG5n6gH7q10EcaxqFjUKo6AU/FZGu6nJA8dnYoZb2XhUHb3pbI0Sb0QmqX8rzpp+mL5t7LwAv8AD7mu78FeGItBtPMlxJfy8yynrn0qv4G8JposRu7zEuozcu5/h9hXYVzylc6IxUQoooqRidq5nV7jzrpgOi8Cuhun8u3kb0FcXqV2lrbTXMpwqgkmkykch4hjl8QeJ7HRISTb5Elx/ujtW34Mto9J8ba1pVuoFq0ayhOwPSk+F2nPM97r90DvuWPl57JU3g5zqHjnXL9V/dKBCreuK5pu7sbLY09d0Qxs09suV6kelc7tOa9QZQwIIyDXP6toKy5ktQA/dT3rKxUZp7nIbaTFaUml3aNgxH8Klt9DvJTygQf7VIu6MkLnpzWxpeizXZDuNkfqa39P0K3tgGkHmP79K11UKoCgACmRKfYp2tpb2EB2KFCjJY1w/h62Pirxnc6vPlrCzPlW6noT3P6Vd+IOtyoItG03LXt2dmR/Ap6muo8K6RFoejW9nEOVXLH1bvW9KHUyk7I2AMDiiiiugyCiiigAooooAa7BVLHoBmvE4ZBrHjzUtR6xQfukNejfEPWV0bw1dShsTOu1B3JNcJ4QsfsWjRl+Zpz5shPXJ5q4K7Jm7I2BS0UVscwUUUUwCuX8UeFLfVM3Fr/o96ORIvf611FGKBp2PGbma506X7Hq0RjkHCydmpmQ3I5Fesazo9nq9sYbyJXHY45FeX654c1Hw9cF4N1zp5PbllrSNRrcUo32K+OaYaWGVJ0DxHI/lQwrZO5nYSlWkApelMQo606T/VP9Kao5pX/1T/SkwON1UZC/74/nXsukRRjS7QhFz5S9vavHtSHyH2avYNCbdpFmfWMfyrhrblSfulqSGJwQyL+VYWqaeYDvjGUP6V0JpGQSIVYZBrnuZpnG0Vd1O0NtNx9xulUKZY6kFJSZoAkVmU5UkGrtvqc8PBO4e9Z2admgDcTWlx88Z/CmT60Cp8pMH1NYuaTtSCyJJ5nnkLSMSazNbITTJyT/AA1fWuZ8dX/2bSmiX/WScfhTRcVqew/ECUx+H5+OvFeXDhBXonxOuANIjUHG5wPrXnp+7XFWO7J42ptjCaTPvQaSsD20Ln3pd1NooGO3UbvamZpaAF3UbqbmloAramGkspFUZJFWbQbYUX0UUg561KDiquTYveFoWbxTAykgBTmvUl4NeeeAgJNelJ/gjzXoh65r2cKvcPncc/3ojdaOKQ80Cuk4xxPy4pQflpvUDFKOlMAzT88Cmd6c3QUABNIDk0hqvqFylnZyTSHAUZo2BalLW9aj0xQiDzLl+EQdc1D4e0GS4m/tHVzvnblUPRRUHhLT21G5bVr1SSx/dq3YV2gGBWTdzdLlQKoVcAYA7UpwaKyNV1YW7ra2cZuL2ThY15x7mpbSGotk+r6h9kjWKEeZdynbHGOpNdP4H8K/2cv9oakPM1KUZJPOz2FM8GeEDYynUtWYT6jIOM9Ix6Cu27VhKVzojGyCiiipKCiiigDO1t9tmR3Y15j48naaC10uE/vryQLgenevRfEMm1Y17da8/wDC9uNd8dXN6fmt7IbEP+1Wc3ZGkUei6VZR2elwWqDCogXH4U7T9NtdORltIljDtubHc1bFFctx3YUUUUXACM0AYoozSAK53xd4iTR7dYoB5t9L8sUQ6k0vinxPb6LCEUedePxHCvJJqh4O8P3Et02ta6BJfSjKIeREPatYQbDZXZL4N8NzW9xJq2rnzNQn5wf+WY9BXZ0YorpSsZt3CiiimIKKKKACkPAyaWsbxbqyaPoV1ducFVIX60Aeb+OL0eJPF9tp8Lb7Oy+ebB4J9K1gAAAowBwBXO+CbR47KW+uB/pF25kP07V0dbxVkYVHdhRRRVEBRRRTEFFFFABTXCuCrDIPY06igDzrxb4PeJ31DRQQw+aSEdCK5W3uFnU8bZFOGU9Qa9tx69K4Xxp4TMrNqWkgJcry8fZxVxlyg1zHI4xSVHaXAnQ5BWReGU9Qamx81bp3IasKOlEn+rb6Uq0kn+rb6UMRyd4pdZFUZNereFpBJoNmQckJivNrNQ98FboTiu28GTGOW7s+THGcqfTPauPELqD1Vjp6UVFdpM0JFs6rJ2LDisN9P1yQkNqSIv8AsJXKQka2prG1o/mkDA4Jrlasz+HdSuQVuNUlZfQcU2HQrm0QqGaX3JzQXGy6kFJUkkTxnDqRUdNAFGaKKACiiigBO1eW+NdQc6vInUIMDPavUia808U6LdX+tz/ZI9xHJxSbsb0Vdns3xaciGyQdDIK5B2CpljgV2/xSj8zTLaUKCUmWuDks5dRmjtIG2l+T7CuStudWUy/c3I/NkmJFpC0xHXaKiYaomTJpswT1rprDw7qOlwEWF5GSOdrrnP41dstdZJRa6zD9nlPAb+Bvxrmcux6nPI4yG+hkYoW2SDqrcGrOa6TxL4UtdWi863AiuQMq68A1wrzz6VObe7Vvl6g9fqKqHvrQpVbfEa2KSkhlSaNXjIKmn0WNBtFOopFCDrUi9ajFSCmhM3/h6P8Aic3h9EAr0LNed/D19ms3Y/vKK9Er28N/DR83jf4rA9eKTtSnpSGug5BV6U4AdzTAeKcelACkZPBp+3jmolODUhbOBQA0rz1rnNbL6nqcGmxcxk7pMelb11IILeSVjgICazfBMInjn1BwS8rkKT6VMmaU11OktYEt4EijG1VGABUpooqDTcxfFVzqNvprHSoPOnbj6VhfD7XY/D3mXGu6bcyai7ZaTbuAHtXbGkKKeqg/hUuPMXGfKXIPipojf61biL/ejNWU+Jvhw9bpl+qmsZrWB/vwxn6qKibTLJvvWsJ/4AKj2RftUdLH8RfDT9NQUfUGrSeOPDzjI1KHHua41tH05utlB/3wKqXPhvTJjn7Mi/7oxS9mw9qj1LTNa0/U8/YbuKbHZW5rRrwqXwxJYyi60O5e2uU5XB4Psa7PwT46N5d/2Rr0YttSQYVj92X3FS4tFqSexP8AE/VRp2nuy8ysuxB6k1a+HWlHTPD0JkXE8/7yQnrk1zHiYnX/AIl2eljBt7YCaQeuK9PjUIoVRgAYFctSXQ2WiFooorAAooooAK4zxj4v+wSjTtKT7TqUnARedvuaTx/4ml0xoNN05Qb67O1WPRB61Q0UeHfCAe61fUoZtTl5kZm3MD7VtCnfUNtTQ8HeEJIJ/wC1NckNxqEnzYbonsK7oDAribX4neF7iTYL/Yc4yy4FdfZXlvewLNaTJNE3IZDkV0JW0M229yxRRRTEFFFFABRRRQAdK8q+K94+o6tYaHA3yswklx2Ar1C4lWGB5XOFQEmvFdDkk1jxLqWsTcx7zFEPYGqirsG7K50aII40ReFUYFOoPWiug5W7sKKKKBBRRRQAUUUUAFFFFABRRRQB5/478LvltU0lcTqMyRjo4rkbO4FxFuHDDhl7g17aQCCDyDXmPjfQf7JvTqdih+zSH96g6KfWqjLlY372hj0kg/dt9KcrKyhlOQRkU1/uNzW97kWMCzB+3rjrmuk8DXaQ6nqcd1KqOXBG444rm7Q4v1Poa1bDRrXUZLm4m3hy+AVOOKwqQdTRDSTvc9EW6gbpMh/Gl8+HP+tT864hfDluPuzTgezmn/8ACPW4/wCW85+rms/qsyeRdzsjdW46zR/99Cm/bbb/AJ7xj/gQrj/+EetSeXlP/AzS/wDCPWffzD/wI01g5i5F3OnurmwmiZXnizjruFcpd3NtDMymeMgdDmpV8PWHdH/76NDeHNOIOYf1NP6nPuUlFFJtUswP9en51E2tWKdZ1qO88PW1uSY4gU9+1VBY2y/8sU/Kk8M1uVaLLZ1+wH/Lb8hUT+JLMfcEjn2U1H9lgHSJPypREi/dVR+FCw3mO0SKfxC7Ifs1pIx/2qPDGrMJ5rqeAFn4PtU5UYIxVLSI12yrvUHceCa4sbS5IaHbg0uZnrXxFhB8Osw/hcH9a4rwYom1W4k6+WoA/Gu+8dR+d4ZvcfwrkVwHw1+f7fL6sBXLiVZXMcol7ljtqrX9jBfwGK5QMp/SrRpK85PU9k5WK6uvDt2tveM0unOcJKeqexq54n0O312w3R4E6jdG471rahZxX1o8EyhlcflXPeGrqTT9Ql0a8YkqMwsf4lrVPqhNdzhoYprDftyfLOJo/wC771qxssqB0OQea3/FFmtnqEOpKmYX/dzr2IPeubv7dtFvghJNlOd0beme1dllUhzImnU5JcjLGKTFLnPNFYHWIOtSLTBTxwCacSWzd8AwltWuZR90YFeiYHFcX8O482s8vcviuzFe5h1aCPmsXK9RjiBTCaeelJitzlEA6VJ0xTAKcDQMYR81Ox0o6mnY6UhGL4unKaWYozh5GCdetbmh2q2Wl28AH3VGfrXN6qpvvEVlaYJRD5jfhXZAAAAdqh6m8dELSd6WikMKKKKAAUuaSigAzQelFFAAOhrM1rRrfVYwJAUmTmOVeGU1p0UbjTszzn4b6mmjfEm/TX9QDOU2JLL3r3u21SxuBmC7hcezivmTx5aRp4ukLry6ZBrJjE0Dbre6niI/uua55YRz1izp9vFaM+vVZW+6QaWvlW08TeI7Ej7NqsrKOznNb1j8UPFFoR5xguF9+DWEsJURSqwfU+jM0V4T/wALm1Ux4/smPf67uKzL/wCKHia8Vli8i1U+gyalYao+g/aQ7nQfE60/t3x5Z2QkaNIItzFDyKpXHhC0tsMsZnPUs/JrL+F7X2pX9/qmpzNPKz7Q5r0c4NdlOnyqzMKk7vQ4CTR7FgQ9tH+VT6DqF54Ou/tWns8tgx/ewE5wPUV181jBKcsgz7VVm0eJ1IVsAjGDVShcmM7Hpegavaa3p0V5ZSB43HIzyD6GtOvDtHlvPA2qfaYd0+kzN++jXnZ7ivY9K1O01W0W4sZkliYZ4PT61i1Y2TT2L1FFFIYUUUUAcp8StWGk+Er2XIDuuxc+priPCFubXQbZWHzMN5+p5p/xium1DXNJ0WInaW8yQdsZrTjQRxoi9FAArWmupnVelh1FFFamAUUUUAFFFFABRRRQAUUUUAFFFFABUV1bx3Vu8Myho3GCDUtFMDxS48MTJrtzYNeyQqCWiGOoqVvAkpz/AMTOX8q7nxza+WlvqUY/eQMAxA6qabDIJYldTkMM5rysVVqU5aPQ9PDRhUjqtTg18AOrZGoyZ+lWrXwhd2gxDqb4znBFdrTa41i6q6nR7Cn2ObXRdRReL0E/Sq5h1q2choo509QcGusorSOYV4vcl4Wm+hyLanLB/wAfdnNEPXGRVm21O1uB8koz6Nwa6RlVxh1BHoRVK40mxnB3wICe4GDXbTzaa+JGE8DF/CykrK33WB+hp1VpPDKqWNrdSxMRwM5FQHTtZtseXNHcAdmGK7qeaUpb6HNLBVFsXmUMCCMg1g6pZ+S29PuH9KstqN7b8XljIMdSnIqnqes20kAXLIc87hiur6xSmtGY+xnHdFI0lNSWOT7jA/jTsHtSUkxWCuJ1Zmh1OURsRzng121cTr5C6rLnvXLi9YG9DR6H0rrkYudCu4/70R/lXnPwxiKadck/89CK6fRdVkewubG+OLqKNgCf4hjrWJ4BTbpMjf3pW/nXk4l3hdCy2nKnJwkdN1pKdTa849oZNIsMZdzgCvO/HF9Kl3aX1uNskbgfUV1OrXJlkMan5FNcl4sUPaQL3MoropRszKUuh0Wqail54cnWdcOYs/jUCWCa34Nt1cZk8vKN3BFU75caTMp7Rn+VN8I38ttpNsCdyY6V34RLVHNXb0ZjaZI4jaCfiaI7WBq7Ud5JFJrty8QwG5P1qSuerHlloehRlzQTFWlbiM00U5yPLNRHcuWx3ngaMJoqsOrMTXSrWN4Vh8rQrcY681tAcV7tL4EfK19ZsU8Cg9BTcnJpRyK1MhF5NPbp0pAMfWnc4oGIvWnZxk9qQdaraxOLXTZ5R1C4H1pMaV2ZXh0yX3iW/uyP3UY8pa6+sfwpa/ZdJjJGHk+dj7mtisjdhTe9OJAGTWIl28mpqM/KDjFMVjbopD1oFAC0UUUAFFFFABRRRxQB5j8V7YxahYXoBwf3bGuRY+9em/FK0+0+FppAPmhYOPzry2F98KN6gVrS7CqdyTNG6mMaTNbWMiYNUN7L5cDEfebhfrTgat+F9POt+JYYOsEH7x/Som7IuCuz1HwDpx03w1bRuoEjje31NdEKbGioiogwqjAp9c/Q1YUUUUEjXRXUq4BU8EHvXOtpup6FeNfeF59hbmS2b7jfSukoHBqXG5UZNF3w38Q7O6xba4n9nXw4xJwrfQ13MMqTIHidXQ8gqcivLdR0201CPZdwpIOxI5H41m2A1/wzIX0a5+1WY5NtMe3saycLbG0ZpntFNY7VJPQCuL8NfEHTtVnW0vEexv8AoY5eAT7Guj8Q3a2eiXdwx4SMkH8KixZ5Hav/AGz441TU5MFLdvJj/rXS1zPgJd2kyXJGGnlZ/rXTV0R2MKj1CiiiqMwooooAKKKKACiiigApM0tFABRRRQAUUUUAV7+2S7s5YJACrqRg1w2hs0Pn2MuRJbuRg+navQa4vxdamy1W31OLAR/3cvv71yYylzwudWFqckrFim0o5UEUteEz1xtFFFIAooooAKdTaKAAgHqBVWfT7ScHzYI2z6irlNqlJoVkzAu/CmmzkmOMwt6oayp/CF1EP9Evdw7CQV2lFawxNSGzIdKEt0eczaTrNty9sJl9UNcX4ktLp70yPazRjGOVr3qo5IY5BiSNWHuK3ePm1aRmsPGLujI8TaW99as9o5jukHysvf2qj8PGZNJe2m4nich1PWuo49RXP6zavYXa6pY4DLxNH/fWuWM248prypS5joagvphBbk9zwKLK6ivbZJ4GBRxkVna5L8yRjtUxjd6lN6GUxyxNYHiVi01lGO8gNbp6Vz+s/vNasI+27NdUdzFmlq8nl6XOf9giqehDGj2/+7mpvEZ26TP9KZowxpVsP9gV2YXqc9boZin/AInFwPar4rPj+bWrg9sYq5PKIUHBZ24VR1JrnrayPQw7tT1JsY71BJPFgr5ig5xjNZ8mm67cTrK9s32cfwKcHFatlaaKGEepWdzbyH+JycZ+tQrLVhOpfRHqOjNEmmW6LKrEKOhrSDVwUWgRNEr6VfSxgDghsipI9e1LRHEerQme37TJ1/GvSoYyEvdZ4lbCTXvI7gc5pw4FUNI1S01OHzLSUOO47itA9K7r9jhaa3E3DNODZNMxzT8UXAeOtc/4tn3fZLJT808g49hXQEkDiuVkcX/jm2jXlbZST7GoZpBana26COFEHRRipKKKRZDeNttnPtXMWrkXaHP8VdBqxxZOM9a5lOJFPfNAHZ0UyA5iUnuKfQgYUUUUwCiiikAUUUUAZ3iK2+16JeQf3oyK8Is/li8v+4Spr6GkXfGynoRivBL23Nnrmo2x/hlLD6GrpvUJK8SM00dacwoUV0GBFdSiKBj36CvUPhfoh07SPtUwxcXPzHPpXnmgae2ta/b2qgmGM75Pwr3WCNYYUjQAKowAK56ju7G0VZElFFFQMKKKKACiiigApaSjNAzP1bR7TUk/fIBKOVkHDKa47xrrHifS/D8mmSSfa7OQhFlx8yj0Neg5qOaGOddsyK6+jCpcUyozaMzwnbta+H7OJhghATWvSKAqhVGAOgpaolu7CiiigQUUUUAFFFUNVuvIhKqfnNAF/IPQ5orP0UN9nLOSSTnmtCgAooooAKKKKACiiigArM8Q2f23SLiLHz4yv1FadIwyCD0NKSurDi7O5xOlTGeyjLffUbW+oq0apWifZdTvrU8ANvUexq9XzteHJNo92k+eKY2iinViWNopcUlADqKQUGgBaKKbQAUUUUAFFFFAHl2Vzk61Jn/fpkiROpV9Ycg9fmru/wDhGNJ/59V/Kj/hGNJ/59l/KulVYmfIzk/C2rw6Ldiye5EttKfkb+6a3r2bz7hnBBHYirkvhfSnBAt1GR1HasG4t5NEuVgmJe2c4jc9vY0lKMndCaaRaNc/f8+JbMegroAawbkbvE0HshrWO5DJ/FBxo830pdI40y3z/cFQ+MCRo7gd6saeCthAD2Qfyrrw2xhW6GVaf8hC6PvVrw9Gb7xZHGxzHCu8iqtj811dsP79afw/j3+Ir6XrtXbXNW3Z2w/ho9FwAOOlRXNtDcoUnjV1PUEVLRXAUc1c6Rc6VJ9o0RyEzl4GPB+laGmapb6qjQzKFmHDxOOa1s1jaxoy3R+0WreTeL91l4z9a0Ur7it2KGqaJPp7G90FzFMOWjHRq1vCnin+0IxFqCiC6U7SD0JqromsNLMbHUF8u8T16MPaqnibSdhN/aLhh/rFXqR6iu7D4uVP3Zao5a+GjUV1uehR4IBp/HpXFeEvEZ+S01BvvcRy9m9j712owRkHivXjNTV0ePOm4OzCRgkLsTjAzXLeBYvtWralftzlyoNbPiK4FtpFy57Iag+HlsYfDsTuMNKxc++TSe5UFZXOmooopgZfiBttqoB6mue9D3ra8RtxGtYh6Uh9DsLM5toyfSpqracc2cRPpVmmJhRRRQAUUUUAFFFFABXi3xHiFl4vEnRZkya9pryr402v72wuQOAdpNEdGNdjleGGQeDUV1L5MBYcnoB6mqMNw8XfK1veDdNbxJrkYVT9ktzukJ7muiU7IzjDU7/4Y6J/Z2k/ap1/0m4+Yk9QPSu1pkMaxRqiDCqMAU+uc0buFFFFAgooooAKKKKACiiigAooopgFFFFIAooooAKQ0tIaAAkAZJ4rmr6U3N7heRnArY1WfyLRjnk8CsrRYTLceYwyooA3raMRRKg7CpaQUtABRRRQAUUUUAFFFFABRRRQBwHxAmn0nUbe+tYw4lGxgfWue/4SjUFAzYj/AL6rufiHYLe+H3z1jIfPeuQs/DFnPaxSeZN8y5++a8vGRipXZ6eFk5Rsip/wlN9/z4j/AL6oPiq/xxYjP+9WgfCNl/z1m/76pP8AhDrL/npP/wB9muHmpnXaRm/8JVqP/Pkv/fVI3irUscWaf99VqDwhYd3mP/AzSf8ACH2H96b/AL7NHNTC0jJ/4SrU/wDn0T/vqk/4SzUv+fWP/vqtf/hDtP7tN/32aP8AhDtN9Jf++zRzUwtIyh4s1H/n0j/76p3/AAlt+Otkv/fVaTeDdN7eaP8AgZo/4QvT/wC9L/31RzUxWkZv/CXX2f8AjyH/AH1Tv+Etvdv/AB4c/wC9V4+DLA9GlH/A6D4Lssf6yb/vs0c1MLTKH/CW33/PiP8AvoUHxbff8+I/76q9/wAIXZf89Jv++6cPBdjj/WTf990c1MLSOmooorA0Cqup2UV/aPBKMgjg+hq1RTTsBwdo8lvO9jdjE0Z4J/iHrVB/+RpTPaI12PiPSft0SzW+FuouVb19q8/t7ppvFKrIjJKibGB9a6qb5rmLVmXPGbY03b6sP51eiGLSMf7A/lWZ41OLWEesgrUUYtl9kH8q7sKvdZy1t0Yekso+07iB855NbXwzIbUdRYHIz1rjoVVprje77Qx+Ud67T4WRqv25lGBuxXLX2Z2Rfuo76iiiuA0CiilFAXMnXNKW/jEkR2XUfMcg9aboWqG7V7W7Hl3kXyup/i9xWzXNeJ7F49up2eVuIOTj+Je4q4voS+5BrWnDT5DPEhezc5kQdUP94Vo6F4iexmht7xvMtJf9VP6exq7p11DqmnJKuGRxgg1zMFtGt/d6Pcf6t/3kB/u/SuuhXlB6mFejGojpfiHd40mOGMg+ewUY711mhw/Z9ItIsY2xgV5Pp7Xup+IrPR7zLG1bdu9VFeyoNqqo6AYr2ISU1dHlzjye6RX9z9lsppyMiNS2PXFM0y8S/sIbmMYWRc4qW7jE1rLGwyGUisLwLJnRmt8/NbytGfbmr6kdCTxEPnjNYNxOkELSSHCL1NdF4jX5Im965PXUMmj3SjrsJpMEd7Y4+xxbTkFQQas1i+Drk3fh2ykbrsAP4VtUAwooopiCiiigAoopBQAtcR8WrXz/AA00mOY2DV2xrH8X2f23w7eQ4yShIoY4nz6Q8gSOIFpJMKoHUk17t4B0EaDoUURH7+Qb5D715x8KtCe/1r7bdJ+5tDgZ7tXtlF7jegUUUUEhRRRQAUUUUAFFFFABRRRQAUUUUAFFFFABRSEgdaWgApDS0yVtkTN6CkM4rx/qLLHHawH95IwQAdc10+hWxttNhV/v7RuNchZxrrPjHJG6O0G4+mT0rvwMDA6U0D0AUtFFAgooooAKKKKACiiigAooooAqatD9o06ePGSUIFcX4dctY+Wx+aNip/Ou+blSPUV57pYMOr6lAeAJMgVw46N4XO7BS95o16KKQ14tj0wzRmkopALmjNJRQAppabRQA6im0UALmkoooAKKKKACiiigArjfFmj+ReJq9qm5k4kUdx612VI6LIjK4BUjBBq4ScXcTVzyfxZPHcWlk0bAh5Aa2yP9F/4B/SsPxxos2napbvDn7Ez7sdlOa3G5tM/7Fevh2uXQ4ays9TmtDhRzcuwyd5rrfhquEv8A/rpXMaBjyrj/AHzXWfDcf6Len1lNcVfqdqXuxOzptOptcRTClFJTJpBFGXboKAK+oXn2ZQFwWNYlxdyzIys52sMEU25mMsrMxqLiuiEUtzKUih4P1Eafc3ljLkqrbl9s1J4yukgurHUrdsGNwG+lZwXy/FPAwHjqbXLY6oq6fb5ed2HTtW8ad5Kxm52R1Xw4X+0PEOo6kVG1UVFbHrXo9Y/hTRYtE0mK3jGXwC7eprYr16UeWNjyqsuaVw+tcv4fBtPE2rWpICyETKPr1rqK5XVSLPxhYz4+WdDGx96sUTV19SbQN6GuT1Eb7CdR3Q12mrDNjJ3rkLjmBx6g0hIt/CyYzeGEVuTG7LXY1wXwlkP9m3kR/gnau9oKluFFFFMgKKKKACiiigApsiB42RujDFOooBaGVoOiQaKkyW7lllcuQe1atFFA27hRRRQIKKKKACiiigAooooAKKKKACiiigAooooA5rxvfSWlnBHA22SaRVB/Guht8i3iDHLbRk1yfjAhtd0eJhlTJurr+w4xSW5T2HVmeILkWumzSZx8taR4FcX8R7wiyS0hP72ZggH1oewRWofDW3JtLq+cfPcSEg+oFdpWb4dsRp2kW1sOqLz9a0qaFLcKKKKBBRRRQAUUUUAFFFFABRRRQAVwNyvk+LblezqDXfCvNPG0F4fFMLafKI5Smeehrmxceamzpw0rTN+kNcuuuajYNt1SxYp3ki5Fa9hrNlfAeTMN3dW4IrwnBo9dNM0KKBz0p1QMKbS5pKACiiigAooooAKKKKAP/9k=;fontSize=13;" vertex="1" parent="1">
          <mxGeometry x="515" y="880" width="30" height="30" as="geometry" />
        </mxCell>
        <mxCell id="X5dV8ayuIPw5LhitXocs-32" style="edgeStyle=orthogonalEdgeStyle;rounded=0;orthogonalLoop=1;jettySize=auto;html=1;entryX=0.5;entryY=0;entryDx=0;entryDy=0;fontFamily=Helvetica;fontSize=13;fontColor=default;endArrow=classic;endFill=1;strokeColor=#6C8EBF;exitX=0.5;exitY=1;exitDx=0;exitDy=0;" edge="1" parent="1" source="X5dV8ayuIPw5LhitXocs-25" target="X5dV8ayuIPw5LhitXocs-31">
          <mxGeometry relative="1" as="geometry">
            <mxPoint x="746" y="905" as="sourcePoint" />
            <mxPoint x="780" y="905" as="targetPoint" />
          </mxGeometry>
        </mxCell>
        <mxCell id="X5dV8ayuIPw5LhitXocs-11" value="Noise" style="rounded=1;whiteSpace=wrap;html=1;fontFamily=Helvetica;fontSize=13;strokeColor=#d6b656;fillColor=#f9e29f;" vertex="1" parent="1">
          <mxGeometry x="170" y="665" width="100" height="40" as="geometry" />
        </mxCell>
        <mxCell id="X5dV8ayuIPw5LhitXocs-37" value="" style="shape=curlyBracket;whiteSpace=wrap;html=1;rounded=1;fontFamily=Helvetica;fontSize=13;fontColor=default;strokeColor=#d79b00;fillColor=#ffe6cc;size=0.5;" vertex="1" parent="1">
          <mxGeometry x="130" y="430" width="20" height="370" as="geometry" />
        </mxCell>
        <mxCell id="X5dV8ayuIPw5LhitXocs-39" value="First order" style="rounded=1;whiteSpace=wrap;html=1;fontFamily=Helvetica;fontSize=13;fontColor=#333333;strokeColor=#666666;fillColor=#f5f5f5;" vertex="1" parent="1">
          <mxGeometry x="20" y="605" width="100" height="20" as="geometry" />
        </mxCell>
        <mxCell id="X5dV8ayuIPw5LhitXocs-41" style="edgeStyle=orthogonalEdgeStyle;rounded=0;orthogonalLoop=1;jettySize=auto;html=1;entryX=0.5;entryY=0;entryDx=0;entryDy=0;fontFamily=Helvetica;fontSize=13;fontColor=default;endArrow=classic;endFill=1;strokeColor=#6C8EBF;exitX=0.5;exitY=1;exitDx=0;exitDy=0;" edge="1" parent="1" source="X5dV8ayuIPw5LhitXocs-13" target="X5dV8ayuIPw5LhitXocs-20">
          <mxGeometry relative="1" as="geometry">
            <mxPoint x="540" y="830" as="sourcePoint" />
            <mxPoint x="540" y="890" as="targetPoint" />
            <Array as="points">
              <mxPoint x="220" y="870" />
              <mxPoint x="450" y="870" />
              <mxPoint x="450" y="390" />
              <mxPoint x="530" y="390" />
            </Array>
          </mxGeometry>
        </mxCell>
      </root>
    </mxGraphModel>
  </diagram>
</mxfile>
